<svg version="1.2" xmlns="http://www.w3.org/2000/svg" viewBox="0 63.99999999999999 1300 369" width="1300" height="370">
	<style>
		.s0 { fill: #ffc627 } 
		.s1 { fill: #ffffff } 
		.s2 { fill: #ff9a15 } 
		.s3 { fill: #000600 } 
	</style>
	<g id="Layer 1">
		<g id="&lt;Group&gt;">
			<g id="&lt;Group&gt;">
				<g id="&lt;Group&gt;">
					<g id="&lt;Group&gt;">
						<path id="&lt;Path&gt;" class="s0" d="m1232.44 98.2v33.78h33.78v236.46h-33.78v33.78h-1163.06v-33.78h-33.78v-236.46h33.78v-33.78z"/>
					</g>
					<g id="&lt;Group&gt;">
						<g id="&lt;Group&gt;">
							<path id="&lt;Path&gt;" class="s1" d="m103.16 165.36v33.78h-33.78v-33.78z"/>
						</g>
						<g id="&lt;Group&gt;">
							<path id="&lt;Path&gt;" class="s1" d="m136.94 131.78v33.78h-33.78v-33.78z"/>
						</g>
						<g id="&lt;Group&gt;">
							<path id="&lt;Path&gt;" class="s1" d="m170.72 131.78v33.78h-33.78v-33.78z"/>
						</g>
					</g>
					<g id="&lt;Group&gt;" style="opacity: .45;mix-blend-mode: multiply">
						<g id="&lt;Group&gt;">
							<g id="&lt;Group&gt;">
								<path id="&lt;Path&gt;" class="s2" d="m1266.22 335.07v33.78h-33.78v-33.78z"/>
							</g>
							<g id="&lt;Group&gt;">
								<g id="&lt;Group&gt;">
									<g id="&lt;Group&gt;">
										<path id="&lt;Path&gt;" class="s2" d="m1232.44 368.85v33.78h-33.78v-33.78z"/>
									</g>
									<g id="&lt;Group&gt;">
										<path id="&lt;Path&gt;" class="s2" d="m103.16 368.44h1109.18v33.78h-1109.18-33.78v-33.78z"/>
									</g>
								</g>
							</g>
							<g id="&lt;Group&gt;">
								<path id="&lt;Path&gt;" class="s2" d="m69.38 335.07v33.78h-33.78v-33.78z"/>
							</g>
							<g id="&lt;Group&gt;">
								<path id="&lt;Path&gt;" class="s2" d="m1266.22 300.88v33.78h-33.78v-33.78z"/>
							</g>
							<g id="&lt;Group&gt;">
								<path id="&lt;Path&gt;" class="s2" d="m1266.22 267.1v33.78h-33.78v-33.78z"/>
							</g>
							<g id="&lt;Group&gt;">
								<path id="&lt;Path&gt;" class="s2" d="m1266.22 233.32v33.78h-33.78v-33.78z"/>
							</g>
							<g id="&lt;Group&gt;">
								<path id="&lt;Path&gt;" class="s2" d="m1266.22 199.54v33.78h-33.78v-33.78z"/>
							</g>
							<g id="&lt;Group&gt;">
								<g id="&lt;Group&gt;">
									<g id="&lt;Group&gt;">
										<path id="&lt;Path&gt;" class="s2" d="m1232.44 334.66v33.78h-33.78v-33.78z"/>
									</g>
									<g id="&lt;Group&gt;">
										<path id="&lt;Path&gt;" class="s2" d="m1212.34 334.66v33.78h-1109.18-33.78v-33.78z"/>
									</g>
								</g>
							</g>
							<g id="&lt;Group&gt;">
								<path id="&lt;Path&gt;" class="s2" d="m69.38 300.88v33.78h-33.78v-33.78z"/>
							</g>
						</g>
					</g>
					<g id="&lt;Group&gt;" style="opacity: .43;mix-blend-mode: screen">
						<g id="&lt;Group&gt;">
							<g id="&lt;Group&gt;">
								<path id="&lt;Path&gt;" class="s1" d="m69.38 131.78v33.78h-33.78v-33.78z"/>
							</g>
							<g id="&lt;Group&gt;">
								<g id="&lt;Group&gt;">
									<g id="&lt;Group&gt;">
										<path id="&lt;Path&gt;" class="s1" d="m103.16 98v33.78h-33.78v-33.78z"/>
									</g>
									<g id="&lt;Group&gt;">
										<path id="&lt;Path&gt;" class="s1" d="m1198.66 131.78h-1109.18v-33.78h1109.18 33.78v33.78z"/>
									</g>
								</g>
							</g>
							<g id="&lt;Group&gt;">
								<path id="&lt;Path&gt;" class="s1" d="m1266.22 131.78v33.78h-33.78v-33.78z"/>
							</g>
							<g id="&lt;Group&gt;">
								<path id="&lt;Path&gt;" class="s1" d="m1232.44 131.78v33.78h-33.78v-33.78z"/>
							</g>
							<g id="&lt;Group&gt;">
								<path id="&lt;Path&gt;" class="s1" d="m103.16 131.78v33.78h-33.78v-33.78z"/>
							</g>
							<g id="&lt;Group&gt;">
								<path id="&lt;Path&gt;" class="s1" d="m69.38 165.97v33.77h-33.78v-33.77z"/>
							</g>
							<g id="&lt;Group&gt;">
								<path id="&lt;Path&gt;" class="s1" d="m1266.22 165.97v33.77h-33.78v-33.77z"/>
							</g>
						</g>
					</g>
					<g id="&lt;Group&gt;">
						<g id="&lt;Group&gt;">
							<path id="&lt;Path&gt;" class="s3" d="m1266.22 98.2v33.78h-33.78v-33.78z"/>
						</g>
						<g id="&lt;Group&gt;">
							<path id="&lt;Path&gt;" class="s3" d="m1300 131.98v33.78h-33.78v-33.78z"/>
						</g>
						<g id="&lt;Group&gt;">
							<path id="&lt;Path&gt;" class="s3" d="m1266.22 368.44v33.78h-33.78v-33.78z"/>
						</g>
						<g id="&lt;Group&gt;">
							<path id="&lt;Path&gt;" class="s3" d="m1300 334.66v33.78h-33.78v-33.78z"/>
						</g>
						<g id="&lt;Group&gt;">
							<path id="&lt;Path&gt;" class="s3" d="m1300 300.88v33.78h-33.78v-33.78z"/>
						</g>
						<g id="&lt;Group&gt;">
							<path id="&lt;Path&gt;" class="s3" d="m1300 267.1v33.78h-33.78v-33.78z"/>
						</g>
						<g id="&lt;Group&gt;">
							<path id="&lt;Path&gt;" class="s3" d="m1300 233.32v33.78h-33.78v-33.78z"/>
						</g>
						<g id="&lt;Group&gt;">
							<path id="&lt;Path&gt;" class="s3" d="m1300 199.54v33.78h-33.78v-33.78z"/>
						</g>
						<g id="&lt;Group&gt;">
							<g id="&lt;Group&gt;">
								<path id="&lt;Path&gt;" class="s3" d="m1232.44 402.22v33.78h-33.78v-33.78z"/>
							</g>
							<g id="&lt;Group&gt;">
								<path id="&lt;Path&gt;" class="s3" d="m103.16 402.22h1109.18v33.78h-1109.18-33.78v-33.78z"/>
							</g>
						</g>
						<g id="&lt;Group&gt;">
							<path id="&lt;Path&gt;" class="s3" d="m69.38 368.44v33.78h-33.78v-33.78z"/>
						</g>
						<g id="&lt;Group&gt;">
							<path id="&lt;Path&gt;" class="s3" d="m35.6 334.66v33.78h-33.78v-33.78z"/>
						</g>
						<g id="&lt;Group&gt;">
							<path id="&lt;Path&gt;" class="s3" d="m69.38 98.2v33.78h-33.78v-33.78z"/>
						</g>
						<g id="&lt;Group&gt;">
							<path id="&lt;Path&gt;" class="s3" d="m1232.44 64.42v33.78h-1163.06v-33.78z"/>
						</g>
						<g id="&lt;Group&gt;">
							<path id="&lt;Path&gt;" class="s3" d="m35.6 131.98v33.78h-33.78v-33.78z"/>
						</g>
						<g id="&lt;Group&gt;">
							<path id="&lt;Path&gt;" class="s3" d="m35.6 199.54v33.78h-33.78v-33.78z"/>
						</g>
						<g id="&lt;Group&gt;">
							<path id="&lt;Path&gt;" class="s3" d="m1300 165.36v33.78h-33.78v-33.78z"/>
						</g>
						<g id="&lt;Group&gt;">
							<path id="&lt;Path&gt;" class="s3" d="m35.6 165.36v33.78h-33.78v-33.78z"/>
						</g>
						<g id="&lt;Group&gt;">
							<path id="&lt;Path&gt;" class="s3" d="m35.6 233.32v33.78h-33.78v-33.78z"/>
						</g>
						<g id="&lt;Group&gt;">
							<path id="&lt;Path&gt;" class="s3" d="m35.6 267.1v33.78h-33.78v-33.78z"/>
						</g>
						<g id="&lt;Group&gt;">
							<path id="&lt;Path&gt;" class="s3" d="m35.6 300.88v33.78h-33.78v-33.78z"/>
						</g>
					</g>
				</g>
				<g id="&lt;Group&gt;">
					<g id="&lt;Group&gt;">
					</g>
				</g>
			</g>
		</g>
	</g>
</svg>