<svg version="1.2" xmlns="http://www.w3.org/2000/svg" viewBox="755 158 222.00000000000023 98" width="223" height="98">
	<style>
		.s0 { fill: #ffc627 } 
		.s1 { fill: #ffffff } 
		.s2 { fill: #ff9a15 } 
		.s3 { fill: #000600 } 
	</style>
	<g id="Layer 1">
		<g id="&lt;Group&gt;">
			<g id="&lt;Group&gt;">
				<g id="&lt;Group&gt;">
					<g id="&lt;Group&gt;">
						<path id="&lt;Path&gt;" class="s0" d="m786.05 163.63h160.63l12.33 6.17 6.16 6.16 6.17 12.32v36.98l-6.17 12.32-6.16 6.17-12.32 6.16h-160.64l-12.32-6.16-6.16-6.17-6.17-12.32v-36.98l6.17-12.32 6.16-6.16z"/>
					</g>
					<g id="&lt;Group&gt;">
						<g id="&lt;Group&gt;">
							<path id="&lt;Path&gt;" class="s1" d="m959.01 231.42h-6.16v-6.16h6.16z"/>
						</g>
						<g id="&lt;Group&gt;">
							<path id="&lt;Path&gt;" class="s1" d="m959.01 225.26h-6.16v-6.16h6.16z"/>
						</g>
						<g id="&lt;Group&gt;">
							<path id="&lt;Path&gt;" class="s1" d="m952.85 231.42h-6.17v-6.16h6.17z"/>
						</g>
						<g id="&lt;Group&gt;">
							<path id="&lt;Path&gt;" class="s1" d="m946.68 237.58h-6.16v-6.16h6.16z"/>
						</g>
						<g id="&lt;Group&gt;">
							<path id="&lt;Path&gt;" class="s1" d="m940.52 237.58h-6.16v-6.16h6.16z"/>
						</g>
					</g>
					<g id="&lt;Group&gt;" style="opacity: .25;mix-blend-mode: screen">
						<g id="&lt;Group&gt;">
							<g id="&lt;Group&gt;">
								<g id="&lt;Group&gt;">
									<g id="&lt;Group&gt;">
										<path id="&lt;Path&gt;" class="s1" d="m773.73 169.8h6.16v6.16h-6.16z"/>
									</g>
									<g id="&lt;Group&gt;">
										<path id="&lt;Path&gt;" class="s1" d="m767.57 175.96h6.16v6.16h-6.16z"/>
									</g>
									<g id="&lt;Group&gt;">
										<path id="&lt;Path&gt;" class="s1" d="m779.89 169.8h6.16v6.16h-6.16z"/>
									</g>
									<g id="&lt;Group&gt;">
										<path id="&lt;Path&gt;" class="s1" d="m786.05 163.63h6.17v6.17h-6.17z"/>
									</g>
									<g id="&lt;Group&gt;">
										<path id="&lt;Path&gt;" class="s1" d="m965.17 182.12h-6.16v-6.16h6.16z"/>
									</g>
									<g id="&lt;Group&gt;">
										<path id="&lt;Path&gt;" class="s1" d="m959.01 175.96h-6.16v-6.16h6.16z"/>
									</g>
									<g id="&lt;Group&gt;">
										<path id="&lt;Path&gt;" class="s1" d="m952.85 175.96h-6.17v-6.16h6.17z"/>
									</g>
									<g id="&lt;Group&gt;">
										<path id="&lt;Path&gt;" class="s1" d="m946.68 169.8h-6.16v-6.17h6.16z"/>
									</g>
									<path id="&lt;Path&gt;" class="s1" d="m940.52 169.8h-148.3v-6.17h148.3z"/>
								</g>
							</g>
							<g id="&lt;Group&gt;">
								<g id="&lt;Group&gt;">
									<path id="&lt;Path&gt;" class="s1" d="m959.01 237.58h-6.16v-6.16h6.16z"/>
								</g>
								<g id="&lt;Group&gt;">
									<path id="&lt;Path&gt;" class="s1" d="m952.85 237.58h-6.17v-6.16h6.17z"/>
								</g>
								<g id="&lt;Group&gt;">
									<path id="&lt;Path&gt;" class="s1" d="m946.68 243.75h-6.16v-6.17h6.16z"/>
								</g>
								<g id="&lt;Group&gt;">
									<path id="&lt;Path&gt;" class="s1" d="m773.73 231.42h6.16v6.16h-6.16z"/>
								</g>
								<g id="&lt;Group&gt;">
									<path id="&lt;Path&gt;" class="s1" d="m779.89 231.42h6.16v6.16h-6.16z"/>
								</g>
								<g id="&lt;Group&gt;">
									<path id="&lt;Path&gt;" class="s1" d="m786.05 237.58h6.17v6.17h-6.17z"/>
								</g>
								<path id="&lt;Path&gt;" class="s1" d="m792.22 237.58h148.3v6.17h-148.3z"/>
							</g>
						</g>
					</g>
					<g id="&lt;Group&gt;" style="opacity: .45;mix-blend-mode: multiply">
						<g id="&lt;Group&gt;">
							<g id="&lt;Group&gt;">
								<g id="&lt;Group&gt;">
									<g id="&lt;Group&gt;">
										<path id="&lt;Path&gt;" class="s2" d="m773.73 176.03h6.16v6.16h-6.16z"/>
									</g>
									<g id="&lt;Group&gt;">
										<path id="&lt;Path&gt;" class="s2" d="m767.57 182.19h6.16v6.17h-6.16z"/>
									</g>
									<g id="&lt;Group&gt;">
										<path id="&lt;Path&gt;" class="s2" d="m767.57 188.36h6.16v6.16h-6.16z"/>
									</g>
									<g id="&lt;Group&gt;">
										<path id="&lt;Path&gt;" class="s2" d="m761.4 188.36h6.17v6.16h-6.17z"/>
									</g>
									<g id="&lt;Group&gt;">
										<path id="&lt;Path&gt;" class="s2" d="m761.4 194.52h6.17v6.16h-6.17z"/>
									</g>
									<g id="&lt;Group&gt;">
										<path id="&lt;Path&gt;" class="s2" d="m779.89 176.03h6.16v6.16h-6.16z"/>
									</g>
									<g id="&lt;Group&gt;">
										<path id="&lt;Path&gt;" class="s2" d="m786.05 169.87h6.17v6.16h-6.17z"/>
									</g>
									<g id="&lt;Group&gt;">
										<path id="&lt;Path&gt;" class="s2" d="m965.17 188.36h-6.16v-6.17h6.16z"/>
									</g>
									<g id="&lt;Group&gt;">
										<path id="&lt;Path&gt;" class="s2" d="m971.34 200.68h-6.17v-6.16h6.17z"/>
									</g>
									<g id="&lt;Group&gt;">
										<path id="&lt;Path&gt;" class="s2" d="m971.34 194.52h-6.17v-6.16h6.17z"/>
									</g>
									<g id="&lt;Group&gt;">
										<path id="&lt;Path&gt;" class="s2" d="m959.01 182.19h-6.16v-6.16h6.16z"/>
									</g>
									<g id="&lt;Group&gt;">
										<path id="&lt;Path&gt;" class="s2" d="m952.85 182.19h-6.17v-6.16h6.17z"/>
									</g>
									<g id="&lt;Group&gt;">
										<path id="&lt;Path&gt;" class="s2" d="m946.68 176.03h-6.16v-6.16h6.16z"/>
									</g>
									<path id="&lt;Path&gt;" class="s2" d="m940.52 176.03h-148.3v-6.16h148.3z"/>
								</g>
							</g>
							<g id="&lt;Group&gt;">
								<g id="&lt;Group&gt;">
									<g id="&lt;Group&gt;">
										<path id="&lt;Path&gt;" class="s2" d="m959.01 243.75h-6.16v-6.17h6.16z"/>
									</g>
									<g id="&lt;Group&gt;">
										<path id="&lt;Path&gt;" class="s2" d="m965.17 237.58h-6.16v-6.16h6.16z"/>
									</g>
									<g id="&lt;Group&gt;">
										<path id="&lt;Path&gt;" class="s2" d="m971.34 231.42h-6.17v-6.16h6.17z"/>
									</g>
									<g id="&lt;Group&gt;">
										<path id="&lt;Path&gt;" class="s2" d="m971.34 225.26h-6.17v-6.16h6.17z"/>
									</g>
									<g id="&lt;Group&gt;">
										<path id="&lt;Path&gt;" class="s2" d="m952.85 243.75h-6.17v-6.17h6.17z"/>
									</g>
									<g id="&lt;Group&gt;">
										<path id="&lt;Path&gt;" class="s2" d="m946.68 249.91h-6.16v-6.16h6.16z"/>
									</g>
									<g id="&lt;Group&gt;">
										<path id="&lt;Path&gt;" class="s2" d="m767.57 231.42h6.16v6.16h-6.16z"/>
									</g>
									<g id="&lt;Group&gt;">
										<path id="&lt;Path&gt;" class="s2" d="m965.17 231.42h-6.16v-6.16h6.16z"/>
									</g>
									<g id="&lt;Group&gt;">
										<path id="&lt;Path&gt;" class="s2" d="m767.57 225.26h6.16v6.16h-6.16z"/>
									</g>
									<g id="&lt;Group&gt;">
										<path id="&lt;Path&gt;" class="s2" d="m767.57 219.1h6.16v6.16h-6.16z"/>
									</g>
									<g id="&lt;Group&gt;">
										<path id="&lt;Path&gt;" class="s2" d="m959.01 188.36h6.16v6.16h-6.16z"/>
									</g>
									<g id="&lt;Group&gt;">
										<path id="&lt;Path&gt;" class="s2" d="m959.01 219.1h6.16v6.16h-6.16z"/>
									</g>
									<g id="&lt;Group&gt;">
										<path id="&lt;Path&gt;" class="s2" d="m761.4 219.1h6.17v6.16h-6.17z"/>
									</g>
									<g id="&lt;Group&gt;">
										<path id="&lt;Path&gt;" class="s2" d="m971.34 219.1h-6.17v-6.17h6.17z"/>
									</g>
									<g id="&lt;Group&gt;">
										<path id="&lt;Path&gt;" class="s2" d="m761.4 212.93h6.17v6.17h-6.17z"/>
									</g>
									<g id="&lt;Group&gt;">
										<path id="&lt;Path&gt;" class="s2" d="m971.34 212.93h-6.17v-6.16h6.17z"/>
									</g>
									<g id="&lt;Group&gt;">
										<path id="&lt;Path&gt;" class="s2" d="m761.4 206.77h6.17v6.16h-6.17z"/>
									</g>
									<g id="&lt;Group&gt;">
										<path id="&lt;Path&gt;" class="s2" d="m971.34 206.77h-6.17v-6.16h6.17z"/>
									</g>
									<g id="&lt;Group&gt;">
										<path id="&lt;Path&gt;" class="s2" d="m761.4 200.61h6.17v6.16h-6.17z"/>
									</g>
									<g id="&lt;Group&gt;">
										<path id="&lt;Path&gt;" class="s2" d="m761.4 225.26h6.17v6.16h-6.17z"/>
									</g>
									<g id="&lt;Group&gt;">
										<path id="&lt;Path&gt;" class="s2" d="m773.73 237.58h6.16v6.17h-6.16z"/>
									</g>
									<g id="&lt;Group&gt;">
										<path id="&lt;Path&gt;" class="s2" d="m779.89 237.58h6.16v6.17h-6.16z"/>
									</g>
									<g id="&lt;Group&gt;">
										<path id="&lt;Path&gt;" class="s2" d="m786.05 243.75h6.17v6.16h-6.17z"/>
									</g>
									<path id="&lt;Path&gt;" class="s2" d="m792.22 243.75h148.3v6.16h-148.3z"/>
								</g>
							</g>
						</g>
					</g>
					<g id="&lt;Group&gt;">
						<path id="&lt;Path&gt;" class="s3" d="m773.73 163.63h6.16v6.17h-6.16z"/>
					</g>
					<g id="&lt;Group&gt;">
						<path id="&lt;Path&gt;" class="s3" d="m767.57 169.8h6.16v6.16h-6.16z"/>
					</g>
					<g id="&lt;Group&gt;">
						<path id="&lt;Path&gt;" class="s3" d="m767.57 237.58h6.16v6.17h-6.16z"/>
					</g>
					<g id="&lt;Group&gt;">
						<path id="&lt;Path&gt;" class="s3" d="m761.4 175.96h6.17v6.16h-6.17z"/>
					</g>
					<g id="&lt;Group&gt;">
						<path id="&lt;Path&gt;" class="s3" d="m761.4 182.12h6.17v6.16h-6.17z"/>
					</g>
					<g id="&lt;Group&gt;">
						<path id="&lt;Path&gt;" class="s3" d="m761.4 225.26h6.17v6.16h-6.17z"/>
					</g>
					<g id="&lt;Group&gt;">
						<path id="&lt;Path&gt;" class="s3" d="m761.4 231.42h6.17v6.16h-6.17z"/>
					</g>
					<g id="&lt;Group&gt;">
						<path id="&lt;Path&gt;" class="s3" d="m755.24 188.28h6.16v6.17h-6.16z"/>
					</g>
					<g id="&lt;Group&gt;">
						<path id="&lt;Path&gt;" class="s3" d="m755.24 194.45h6.16v6.16h-6.16z"/>
					</g>
					<g id="&lt;Group&gt;">
						<path id="&lt;Path&gt;" class="s3" d="m755.24 200.61h6.16v6.16h-6.16z"/>
					</g>
					<g id="&lt;Group&gt;">
						<path id="&lt;Path&gt;" class="s3" d="m755.24 206.77h6.16v6.16h-6.16z"/>
					</g>
					<g id="&lt;Group&gt;">
						<path id="&lt;Path&gt;" class="s3" d="m755.24 212.93h6.16v6.17h-6.16z"/>
					</g>
					<g id="&lt;Group&gt;">
						<path id="&lt;Path&gt;" class="s3" d="m755.24 219.1h6.16v6.16h-6.16z"/>
					</g>
					<g id="&lt;Group&gt;">
						<path id="&lt;Path&gt;" class="s3" d="m779.89 163.63h6.16v6.17h-6.16z"/>
					</g>
					<g id="&lt;Group&gt;">
						<path id="&lt;Path&gt;" class="s3" d="m773.73 243.75h6.16v6.16h-6.16z"/>
					</g>
					<g id="&lt;Group&gt;">
						<path id="&lt;Path&gt;" class="s3" d="m779.89 243.75h6.16v6.16h-6.16z"/>
					</g>
					<g id="&lt;Group&gt;">
						<path id="&lt;Path&gt;" class="s3" d="m786.05 157.47h6.17v6.16h-6.17z"/>
					</g>
					<g id="&lt;Group&gt;">
						<path id="&lt;Path&gt;" class="s3" d="m786.05 249.91h6.17v6.16h-6.17z"/>
					</g>
					<g id="&lt;Group&gt;">
						<path id="&lt;Path&gt;" class="s3" d="m959.01 249.91h-6.16v-6.16h6.16z"/>
					</g>
					<g id="&lt;Group&gt;">
						<path id="&lt;Path&gt;" class="s3" d="m965.17 243.75h-6.16v-6.17h6.16z"/>
					</g>
					<g id="&lt;Group&gt;">
						<path id="&lt;Path&gt;" class="s3" d="m965.17 175.96h-6.16v-6.16h6.16z"/>
					</g>
					<g id="&lt;Group&gt;">
						<path id="&lt;Path&gt;" class="s3" d="m971.34 237.58h-6.17v-6.16h6.17z"/>
					</g>
					<g id="&lt;Group&gt;">
						<path id="&lt;Path&gt;" class="s3" d="m971.34 231.42h-6.17v-6.16h6.17z"/>
					</g>
					<g id="&lt;Group&gt;">
						<path id="&lt;Path&gt;" class="s3" d="m971.34 188.28h-6.17v-6.16h6.17z"/>
					</g>
					<g id="&lt;Group&gt;">
						<path id="&lt;Path&gt;" class="s3" d="m971.34 182.12h-6.17v-6.16h6.17z"/>
					</g>
					<g id="&lt;Group&gt;">
						<path id="&lt;Path&gt;" class="s3" d="m977.5 225.26h-6.16v-6.16h6.16z"/>
					</g>
					<g id="&lt;Group&gt;">
						<path id="&lt;Path&gt;" class="s3" d="m977.5 219.1h-6.16v-6.17h6.16z"/>
					</g>
					<g id="&lt;Group&gt;">
						<path id="&lt;Path&gt;" class="s3" d="m977.5 212.93h-6.16v-6.16h6.16z"/>
					</g>
					<g id="&lt;Group&gt;">
						<path id="&lt;Path&gt;" class="s3" d="m977.5 206.77h-6.16v-6.16h6.16z"/>
					</g>
					<g id="&lt;Group&gt;">
						<path id="&lt;Path&gt;" class="s3" d="m977.5 200.61h-6.16v-6.16h6.16z"/>
					</g>
					<g id="&lt;Group&gt;">
						<path id="&lt;Path&gt;" class="s3" d="m977.5 194.45h-6.16v-6.17h6.16z"/>
					</g>
					<g id="&lt;Group&gt;">
						<path id="&lt;Path&gt;" class="s3" d="m952.85 249.91h-6.16l-0.01-6.16h6.17z"/>
					</g>
					<g id="&lt;Group&gt;">
						<path id="&lt;Path&gt;" class="s3" d="m959.01 169.8h-6.16v-6.17h6.16z"/>
					</g>
					<g id="&lt;Group&gt;">
						<path id="&lt;Path&gt;" class="s3" d="m952.85 169.8h-6.17v-6.17h6.17z"/>
					</g>
					<g id="&lt;Group&gt;">
						<path id="&lt;Path&gt;" class="s3" d="m946.69 256.07h-6.17v-6.16h6.17z"/>
					</g>
					<g id="&lt;Group&gt;">
						<path id="&lt;Path&gt;" class="s3" d="m946.68 163.63h-6.16v-6.16h6.16z"/>
					</g>
					<path id="&lt;Path&gt;" class="s3" d="m940.52 163.63h-148.3v-6.16h148.3z"/>
					<path id="&lt;Path&gt;" class="s3" d="m940.52 256.07h-148.3v-6.16h148.3z"/>
				</g>
			</g>
		</g>
	</g>
</svg>