<svg version="1.2" xmlns="http://www.w3.org/2000/svg" viewBox="0 63.99999999999999 1300 369" width="1300" height="370">
	<style>
		.s0 { fill: #2ebfff } 
		.s1 { fill: #000600 } 
		.s2 { fill: #25a4f2 } 
		.s3 { fill: #ffffff } 
	</style>
	<g id="Layer 1">
		<g id="&lt;Group&gt;">
			<g id="&lt;Group&gt;">
				<g id="&lt;Group&gt;">
					<g id="&lt;Group&gt;">
						<path id="&lt;Path&gt;" class="s0" d="m1164.88 97.63l67.56 33.78 33.78 67.56v101.34l-33.78 67.56-67.56 33.78h-1027.94l-67.56-33.78-33.78-67.56v-101.34l33.78-67.56 67.56-33.78z"/>
					</g>
					<g id="&lt;Group&gt;">
						<g id="&lt;Group&gt;">
							<path id="&lt;Path&gt;" class="s1" d="m1164.88 63.85v33.78h-994.16v-33.78z"/>
						</g>
						<g id="&lt;Group&gt;">
							<path id="&lt;Path&gt;" class="s1" d="m1164.88 401.65v33.78h-994.16v-33.78z"/>
						</g>
						<g id="&lt;Group&gt;">
							<path id="&lt;Path&gt;" class="s1" d="m1198.66 97.63v33.78h-33.78v-33.78z"/>
						</g>
						<g id="&lt;Group&gt;">
							<path id="&lt;Path&gt;" class="s1" d="m1232.44 97.63v33.78h-33.78v-33.78z"/>
						</g>
						<g id="&lt;Group&gt;">
							<path id="&lt;Path&gt;" class="s1" d="m1198.66 367.87v33.78h-33.78v-33.78z"/>
						</g>
						<g id="&lt;Group&gt;">
							<path id="&lt;Path&gt;" class="s1" d="m1232.44 367.87v33.78h-33.78v-33.78z"/>
						</g>
						<g id="&lt;Group&gt;">
							<path id="&lt;Path&gt;" class="s1" d="m1266.22 131.41v33.78h-33.78v-33.78z"/>
						</g>
						<g id="&lt;Group&gt;">
							<path id="&lt;Path&gt;" class="s1" d="m1266.22 165.19v33.78h-33.78v-33.78z"/>
						</g>
						<g id="&lt;Group&gt;">
							<path id="&lt;Path&gt;" class="s1" d="m1266.22 300.31v33.78h-33.78v-33.78z"/>
						</g>
						<g id="&lt;Group&gt;">
							<path id="&lt;Path&gt;" class="s1" d="m1266.22 334.09v33.78h-33.78v-33.78z"/>
						</g>
						<g id="&lt;Group&gt;">
							<path id="&lt;Path&gt;" class="s1" d="m1300 198.97v33.78h-33.78v-33.78z"/>
						</g>
						<g id="&lt;Group&gt;">
							<path id="&lt;Path&gt;" class="s1" d="m1300 232.75v33.78h-33.78v-33.78z"/>
						</g>
						<g id="&lt;Group&gt;">
							<path id="&lt;Path&gt;" class="s1" d="m1300 266.53v33.78h-33.78v-33.78z"/>
						</g>
						<g id="&lt;Group&gt;">
							<path id="&lt;Path&gt;" class="s1" d="m170.72 401.65v33.78h-33.78v-33.78z"/>
						</g>
						<g id="&lt;Group&gt;">
							<path id="&lt;Path&gt;" class="s1" d="m170.72 63.85v33.78h-33.78v-33.78z"/>
						</g>
						<g id="&lt;Group&gt;">
							<path id="&lt;Path&gt;" class="s1" d="m136.94 367.87v33.78h-33.78v-33.78z"/>
						</g>
						<g id="&lt;Group&gt;">
							<path id="&lt;Path&gt;" class="s1" d="m103.16 367.87v33.78h-33.78v-33.78z"/>
						</g>
						<g id="&lt;Group&gt;">
							<path id="&lt;Path&gt;" class="s1" d="m136.94 97.63v33.78h-33.78v-33.78z"/>
						</g>
						<g id="&lt;Group&gt;">
							<path id="&lt;Path&gt;" class="s1" d="m103.16 97.63v33.78h-33.78v-33.78z"/>
						</g>
						<g id="&lt;Group&gt;">
							<path id="&lt;Path&gt;" class="s1" d="m69.38 334.09v33.78h-33.78v-33.78z"/>
						</g>
						<g id="&lt;Group&gt;">
							<path id="&lt;Path&gt;" class="s1" d="m69.38 300.31v33.78h-33.78v-33.78z"/>
						</g>
						<g id="&lt;Group&gt;">
							<path id="&lt;Path&gt;" class="s1" d="m69.38 165.19v33.78h-33.78v-33.78z"/>
						</g>
						<g id="&lt;Group&gt;">
							<path id="&lt;Path&gt;" class="s1" d="m69.38 131.41v33.78h-33.78v-33.78z"/>
						</g>
						<g id="&lt;Group&gt;">
							<path id="&lt;Path&gt;" class="s1" d="m35.6 266.53v33.78h-33.78v-33.78z"/>
						</g>
						<g id="&lt;Group&gt;" style="opacity: .39;mix-blend-mode: multiply">
							<g id="&lt;Group&gt;">
								<g id="&lt;Group&gt;">
									<g id="&lt;Group&gt;">
										<path id="&lt;Path&gt;" class="s2" d="m1164.88 367.87v33.78h-994.16v-33.78z"/>
									</g>
									<g id="&lt;Group&gt;">
										<path id="&lt;Path&gt;" class="s2" d="m1198.66 334.09v33.78h-33.78v-33.78z"/>
									</g>
									<g id="&lt;Group&gt;">
										<path id="&lt;Path&gt;" class="s2" d="m1232.44 334.09v33.78h-33.78v-33.78z"/>
									</g>
									<g id="&lt;Group&gt;">
										<path id="&lt;Path&gt;" class="s2" d="m1266.22 266.53v33.78h-33.78v-33.78z"/>
									</g>
									<g id="&lt;Group&gt;">
										<path id="&lt;Path&gt;" class="s2" d="m1266.22 300.31v33.78h-33.78v-33.78z"/>
									</g>
									<g id="&lt;Group&gt;">
										<path id="&lt;Path&gt;" class="s2" d="m1300 232.75v33.78h-33.78v-33.78z"/>
									</g>
									<g id="&lt;Group&gt;">
										<path id="&lt;Path&gt;" class="s2" d="m170.72 367.87v33.78h-33.78v-33.78z"/>
									</g>
									<g id="&lt;Group&gt;">
										<path id="&lt;Path&gt;" class="s2" d="m136.94 334.09v33.78h-33.78v-33.78z"/>
									</g>
									<g id="&lt;Group&gt;">
										<path id="&lt;Path&gt;" class="s2" d="m103.16 334.09v33.78h-33.78v-33.78z"/>
									</g>
									<g id="&lt;Group&gt;">
										<path id="&lt;Path&gt;" class="s2" d="m69.38 300.31v33.78h-33.78v-33.78z"/>
									</g>
									<g id="&lt;Group&gt;">
										<path id="&lt;Path&gt;" class="s2" d="m69.38 266.53v33.78h-33.78v-33.78z"/>
									</g>
									<g id="&lt;Group&gt;">
										<path id="&lt;Path&gt;" class="s2" d="m35.6 232.75v33.78h-33.78v-33.78z"/>
									</g>
								</g>
								<g id="&lt;Group&gt;">
									<g id="&lt;Group&gt;">
										<path id="&lt;Path&gt;" class="s2" d="m1164.88 334.09v33.78h-994.16v-33.78z"/>
									</g>
									<g id="&lt;Group&gt;">
										<path id="&lt;Path&gt;" class="s2" d="m1198.66 300.31v33.78h-33.78v-33.78z"/>
									</g>
									<g id="&lt;Group&gt;">
										<path id="&lt;Path&gt;" class="s2" d="m1232.44 300.31v33.78h-33.78v-33.78z"/>
									</g>
									<g id="&lt;Group&gt;">
										<path id="&lt;Path&gt;" class="s2" d="m1266.22 266.53v33.78h-33.78v-33.78z"/>
									</g>
									<g id="&lt;Group&gt;">
										<path id="&lt;Path&gt;" class="s2" d="m1266.22 232.75v33.78h-33.78v-33.78z"/>
									</g>
									<g id="&lt;Group&gt;">
										<path id="&lt;Path&gt;" class="s2" d="m1266.22 198.97v33.78h-33.78v-33.78z"/>
									</g>
									<g id="&lt;Group&gt;">
										<path id="&lt;Path&gt;" class="s2" d="m170.72 334.09v33.78h-33.78v-33.78z"/>
									</g>
									<g id="&lt;Group&gt;">
										<path id="&lt;Path&gt;" class="s2" d="m136.94 300.31v33.78h-33.78v-33.78z"/>
									</g>
									<g id="&lt;Group&gt;">
										<path id="&lt;Path&gt;" class="s2" d="m103.16 300.31v33.78h-33.78v-33.78z"/>
									</g>
									<g id="&lt;Group&gt;">
										<path id="&lt;Path&gt;" class="s2" d="m69.38 266.53v33.78h-33.78v-33.78z"/>
									</g>
								</g>
							</g>
						</g>
						<g id="&lt;Group&gt;" style="opacity: .31;mix-blend-mode: screen">
							<g id="&lt;Group&gt;">
								<g id="&lt;Group&gt;">
									<g id="&lt;Group&gt;">
										<path id="&lt;Path&gt;" class="s3" d="m1131.1 98.03v33.78h-994.16v-33.78z"/>
									</g>
									<g id="&lt;Group&gt;">
										<path id="&lt;Path&gt;" class="s3" d="m136.94 131.81v33.78h-33.78v-33.78z"/>
									</g>
									<g id="&lt;Group&gt;">
										<path id="&lt;Path&gt;" class="s3" d="m170.72 131.81v33.78h-33.78v-33.78z"/>
									</g>
									<g id="&lt;Group&gt;">
										<path id="&lt;Path&gt;" class="s3" d="m103.16 131.81v33.78h-33.78v-33.78z"/>
									</g>
									<g id="&lt;Group&gt;">
										<path id="&lt;Path&gt;" class="s3" d="m1164.88 98.03v33.78h-33.78v-33.78z"/>
									</g>
									<g id="&lt;Group&gt;">
										<path id="&lt;Path&gt;" class="s3" d="m1164.88 131.41v33.78h-33.78v-33.78z"/>
									</g>
									<g id="&lt;Group&gt;">
										<path id="&lt;Path&gt;" class="s3" d="m1198.66 131.81v33.78h-33.78v-33.78z"/>
									</g>
									<g id="&lt;Group&gt;">
										<path id="&lt;Path&gt;" class="s3" d="m1232.44 131.81v33.78h-33.78v-33.78z"/>
									</g>
								</g>
								<g id="&lt;Group&gt;">
									<g id="&lt;Group&gt;">
										<path id="&lt;Path&gt;" class="s3" d="m103.16 165.59v33.78h-33.78v-33.78z"/>
									</g>
									<g id="&lt;Group&gt;">
										<path id="&lt;Path&gt;" class="s3" d="m1232.44 165.59v33.78h-33.78v-33.78z"/>
									</g>
								</g>
							</g>
						</g>
						<g id="&lt;Group&gt;">
							<path id="&lt;Path&gt;" class="s1" d="m35.6 232.75v33.78h-33.78v-33.78z"/>
						</g>
						<g id="&lt;Group&gt;">
							<path id="&lt;Path&gt;" class="s1" d="m35.6 198.97v33.78h-33.78v-33.78z"/>
						</g>
					</g>
					<g id="&lt;Group&gt;">
						<path id="&lt;Path&gt;" class="s3" d="m204.5 131.81v33.78h-33.78v-33.78z"/>
					</g>
					<g id="&lt;Group&gt;">
						<path id="&lt;Path&gt;" class="s3" d="m170.92 165.39v33.78h-33.78v-33.78z"/>
					</g>
					<g id="&lt;Group&gt;">
						<path id="&lt;Path&gt;" class="s3" d="m136.94 165.39v33.78h-33.78v-33.78z"/>
					</g>
				</g>
				<g id="&lt;Group&gt;">
					<g id="&lt;Group&gt;">
					</g>
				</g>
			</g>
		</g>
	</g>
</svg>