<svg version="1.2" xmlns="http://www.w3.org/2000/svg" viewBox="240 64 142 142.00000000000003" width="142" height="143">
	<style>
		.s0 { fill: #9a43ff } 
		.s1 { fill: #ffffff } 
		.s2 { fill: #000600 } 
		.s3 { fill: #7b2ee8 } 
		.s4 { fill: #2ebfff } 
		.s5 { fill: #25a4f2 } 
		.s6 { fill: #f22259 } 
		.s7 { fill: #cc366f } 
		.s8 { fill: #ffc627 } 
		.s9 { fill: #ff9a15 } 
	</style>
	<g id="Layer 1">
		<g id="&lt;Group&gt;">
			<g id="&lt;Group&gt;">
				<g id="&lt;Group&gt;">
					<g id="&lt;Group&gt;">
						<path id="&lt;Path&gt;" class="s0" d="m306.29 125.55h9.47l23.68-23.67v-9.47l-23.68-23.67h-9.47l-23.67 23.67v9.47z"/>
					</g>
					<g id="&lt;Group&gt;">
						<g id="&lt;Group&gt;">
							<path id="&lt;Path&gt;" class="s1" d="m311.03 73.47v4.74h-4.74v-4.74z"/>
						</g>
						<g id="&lt;Group&gt;">
							<path id="&lt;Path&gt;" class="s1" d="m306.3 78.2v4.74h-4.74v-4.74z"/>
						</g>
					</g>
					<g id="&lt;Group&gt;">
						<g id="&lt;Group&gt;">
							<path id="&lt;Path&gt;" class="s2" d="m320.5 68.74v4.73h-4.74v-4.73z"/>
						</g>
						<g id="&lt;Group&gt;">
							<path id="&lt;Path&gt;" class="s2" d="m306.29 68.74v4.73h-4.73v-4.73z"/>
						</g>
						<g id="&lt;Group&gt;">
							<path id="&lt;Path&gt;" class="s2" d="m315.76 64v4.74h-4.73v-4.74z"/>
						</g>
						<g id="&lt;Group&gt;">
							<path id="&lt;Path&gt;" class="s2" d="m311.03 64v4.74h-4.74v-4.74z"/>
						</g>
						<g id="&lt;Group&gt;">
							<path id="&lt;Path&gt;" class="s2" d="m325.23 73.47v4.74h-4.73v-4.74z"/>
						</g>
						<g id="&lt;Group&gt;">
							<path id="&lt;Path&gt;" class="s2" d="m301.56 73.47v4.74h-4.74v-4.74z"/>
						</g>
						<g id="&lt;Group&gt;">
							<path id="&lt;Path&gt;" class="s2" d="m329.97 82.94v-4.73h-4.74v4.73z"/>
						</g>
						<g id="&lt;Group&gt;">
							<path id="&lt;Path&gt;" class="s2" d="m296.82 82.94v-4.73h-4.73v4.73z"/>
						</g>
						<g id="&lt;Group&gt;">
							<path id="&lt;Path&gt;" class="s2" d="m334.7 82.94v4.74h-4.73v-4.74z"/>
						</g>
						<g id="&lt;Group&gt;">
							<path id="&lt;Path&gt;" class="s2" d="m339.44 92.41v-4.73h-4.74v4.73z"/>
						</g>
						<g id="&lt;Group&gt;">
							<path id="&lt;Path&gt;" class="s2" d="m344.17 92.41v4.74h-4.73v-4.74z"/>
						</g>
						<g id="&lt;Group&gt;">
							<path id="&lt;Path&gt;" class="s2" d="m292.09 82.94v4.74h-4.74v-4.74z"/>
						</g>
						<g id="&lt;Group&gt;">
							<path id="&lt;Path&gt;" class="s2" d="m287.35 87.68v4.73h-4.73v-4.73z"/>
						</g>
						<g id="&lt;Group&gt;">
							<path id="&lt;Path&gt;" class="s2" d="m282.62 92.41v4.74h-4.74v-4.74z"/>
						</g>
					</g>
					<g id="&lt;Group&gt;">
						<g id="&lt;Group&gt;">
							<path id="&lt;Path&gt;" class="s2" d="m306.29 120.82v4.73h-4.73v-4.73z"/>
						</g>
						<g id="&lt;Group&gt;">
							<path id="&lt;Path&gt;" class="s2" d="m315.76 120.82v4.73h4.74v-4.73z"/>
						</g>
						<g id="&lt;Group&gt;">
							<path id="&lt;Path&gt;" class="s2" d="m306.29 125.55v4.74h4.74v-4.74z"/>
						</g>
						<g id="&lt;Group&gt;">
							<path id="&lt;Path&gt;" class="s2" d="m311.03 125.55v4.74h4.73v-4.74z"/>
						</g>
						<g id="&lt;Group&gt;">
							<path id="&lt;Path&gt;" class="s2" d="m301.56 116.08v4.74h-4.74v-4.74z"/>
						</g>
						<g id="&lt;Group&gt;">
							<path id="&lt;Path&gt;" class="s2" d="m325.23 116.08v4.74h-4.73v-4.74z"/>
						</g>
						<g id="&lt;Group&gt;">
							<path id="&lt;Path&gt;" class="s2" d="m296.82 111.35v4.73h-4.73v-4.73z"/>
						</g>
						<g id="&lt;Group&gt;">
							<path id="&lt;Path&gt;" class="s2" d="m329.97 111.35v4.73h-4.74v-4.73z"/>
						</g>
						<g id="&lt;Group&gt;">
							<path id="&lt;Path&gt;" class="s2" d="m287.35 106.61v4.74h4.74v-4.74z"/>
						</g>
						<g id="&lt;Group&gt;">
							<path id="&lt;Path&gt;" class="s2" d="m282.62 101.88v4.73h4.73v-4.73z"/>
						</g>
						<g id="&lt;Group&gt;">
							<path id="&lt;Path&gt;" class="s2" d="m282.62 97.14v4.74h-4.74v-4.74z"/>
						</g>
						<g id="&lt;Group&gt;">
							<path id="&lt;Path&gt;" class="s2" d="m334.7 106.61v4.74h-4.73v-4.74z"/>
						</g>
						<g id="&lt;Group&gt;">
							<path id="&lt;Path&gt;" class="s2" d="m339.44 101.88v4.73h-4.74v-4.73z"/>
						</g>
						<g id="&lt;Group&gt;">
							<path id="&lt;Path&gt;" class="s2" d="m344.17 97.14v4.74h-4.73v-4.74z"/>
						</g>
					</g>
					<g id="&lt;Group&gt;">
						<g id="&lt;Group&gt;">
							<path id="&lt;Path&gt;" class="s2" d="m313.39 85.31v4.73h-4.73v-4.73z"/>
						</g>
						<g id="&lt;Group&gt;">
							<path id="&lt;Path&gt;" class="s2" d="m313.39 90.04v4.73h-4.73v-4.73z"/>
						</g>
						<g id="&lt;Group&gt;">
							<path id="&lt;Path&gt;" class="s2" d="m313.39 94.77v4.74h-4.73v-4.74z"/>
						</g>
						<g id="&lt;Group&gt;">
							<path id="&lt;Path&gt;" class="s2" d="m313.39 99.51v4.73h-4.73v-4.73z"/>
						</g>
						<g id="&lt;Group&gt;">
							<path id="&lt;Path&gt;" class="s2" d="m313.39 104.24v4.73h-4.73v-4.73z"/>
						</g>
						<g id="&lt;Group&gt;">
							<path id="&lt;Path&gt;" class="s2" d="m308.66 90.04v4.73h-4.73v-4.73z"/>
						</g>
						<g id="&lt;Group&gt;">
							<path id="&lt;Path&gt;" class="s2" d="m308.66 94.77v4.74h-4.73v-4.74z"/>
						</g>
						<g id="&lt;Group&gt;">
							<path id="&lt;Path&gt;" class="s2" d="m303.93 94.77v4.74h-4.74v-4.74z"/>
						</g>
						<g id="&lt;Group&gt;">
							<path id="&lt;Path&gt;" class="s2" d="m318.13 90.04v4.73h-4.74v-4.73z"/>
						</g>
						<g id="&lt;Group&gt;">
							<path id="&lt;Path&gt;" class="s2" d="m318.13 94.77v4.74h-4.74v-4.74z"/>
						</g>
						<g id="&lt;Group&gt;">
							<path id="&lt;Path&gt;" class="s2" d="m322.86 94.77v4.74h-4.73v-4.74z"/>
						</g>
					</g>
					<g id="&lt;Group&gt;" style="opacity: .43;mix-blend-mode: multiply">
						<g id="&lt;Group&gt;">
							<g id="&lt;Group&gt;">
								<g id="&lt;Group&gt;">
									<path id="&lt;Path&gt;" class="s3" d="m306.29 116.08v4.74h-4.73v-4.74z"/>
								</g>
								<g id="&lt;Group&gt;">
									<path id="&lt;Path&gt;" class="s3" d="m315.76 116.08v4.74h4.74v-4.74z"/>
								</g>
								<g id="&lt;Group&gt;">
									<path id="&lt;Path&gt;" class="s3" d="m311.03 120.82v4.73h-4.74v-4.73z"/>
								</g>
								<g id="&lt;Group&gt;">
									<path id="&lt;Path&gt;" class="s3" d="m315.76 120.82v4.73h-4.73v-4.73z"/>
								</g>
								<g id="&lt;Group&gt;">
									<path id="&lt;Path&gt;" class="s3" d="m301.56 111.35v4.73h-4.74v-4.73z"/>
								</g>
								<g id="&lt;Group&gt;">
									<path id="&lt;Path&gt;" class="s3" d="m320.5 111.35v4.73h4.73v-4.73z"/>
								</g>
								<g id="&lt;Group&gt;">
									<path id="&lt;Path&gt;" class="s3" d="m296.82 106.61v4.74h-4.73v-4.74z"/>
								</g>
								<g id="&lt;Group&gt;">
									<path id="&lt;Path&gt;" class="s3" d="m329.97 106.61v4.74h-4.74v-4.74z"/>
								</g>
								<g id="&lt;Group&gt;">
									<path id="&lt;Path&gt;" class="s3" d="m292.09 101.88v4.73h-4.74v-4.73z"/>
								</g>
								<g id="&lt;Group&gt;">
									<path id="&lt;Path&gt;" class="s3" d="m287.35 97.14v4.74h-4.73v-4.74z"/>
								</g>
								<g id="&lt;Group&gt;">
									<path id="&lt;Path&gt;" class="s3" d="m329.97 101.88v4.73h4.73v-4.73z"/>
								</g>
								<g id="&lt;Group&gt;">
									<path id="&lt;Path&gt;" class="s3" d="m334.7 97.14v4.74h4.74v-4.74z"/>
								</g>
								<g id="&lt;Group&gt;">
									<path id="&lt;Path&gt;" class="s3" d="m287.35 92.41v4.74h-4.73v-4.74z"/>
								</g>
								<g id="&lt;Group&gt;">
									<path id="&lt;Path&gt;" class="s3" d="m339.44 92.41v4.74h-4.74v-4.74z"/>
								</g>
							</g>
						</g>
					</g>
					<g id="&lt;Group&gt;" style="opacity: .25;mix-blend-mode: screen">
						<g id="&lt;Group&gt;">
							<g id="&lt;Group&gt;">
								<path id="&lt;Path&gt;" class="s1" d="m320.5 78.21v-4.74h-4.74v4.74z"/>
							</g>
							<g id="&lt;Group&gt;">
								<path id="&lt;Path&gt;" class="s1" d="m306.29 78.21v-4.74h-4.73v4.74z"/>
							</g>
							<g id="&lt;Group&gt;">
								<path id="&lt;Path&gt;" class="s1" d="m315.76 73.47v-4.73h-4.73v4.73z"/>
							</g>
							<g id="&lt;Group&gt;">
								<path id="&lt;Path&gt;" class="s1" d="m311.03 68.74v4.73h-4.74v-4.73z"/>
							</g>
							<g id="&lt;Group&gt;">
								<path id="&lt;Path&gt;" class="s1" d="m325.23 82.94v-4.73h-4.73v4.73z"/>
							</g>
							<g id="&lt;Group&gt;">
								<path id="&lt;Path&gt;" class="s1" d="m301.56 78.21v4.73h-4.74v-4.73z"/>
							</g>
							<g id="&lt;Group&gt;">
								<path id="&lt;Path&gt;" class="s1" d="m329.97 82.94v4.74h-4.74v-4.74z"/>
							</g>
							<g id="&lt;Group&gt;">
								<path id="&lt;Path&gt;" class="s1" d="m296.82 82.94v4.74h-4.73v-4.74z"/>
							</g>
							<g id="&lt;Group&gt;">
								<path id="&lt;Path&gt;" class="s1" d="m334.7 87.68v4.73h-4.73v-4.73z"/>
							</g>
							<g id="&lt;Group&gt;">
								<path id="&lt;Path&gt;" class="s1" d="m292.09 87.68v4.73h-4.74v-4.73z"/>
							</g>
						</g>
					</g>
				</g>
				<g id="&lt;Group&gt;">
					<g id="&lt;Group&gt;">
						<path id="&lt;Path&gt;" class="s4" d="m306.29 201.3h9.47l23.68-23.68v-9.46l-23.68-23.68h-9.47l-23.67 23.68v9.46z"/>
					</g>
					<g id="&lt;Group&gt;">
						<g id="&lt;Group&gt;">
							<path id="&lt;Path&gt;" class="s1" d="m311.03 149.22v4.74h-4.74v-4.74z"/>
						</g>
						<g id="&lt;Group&gt;">
							<path id="&lt;Path&gt;" class="s1" d="m306.3 153.95v4.73h-4.74v-4.73z"/>
						</g>
					</g>
					<g id="&lt;Group&gt;">
						<g id="&lt;Group&gt;">
							<path id="&lt;Path&gt;" class="s2" d="m320.5 149.22v-4.74h-4.74v4.74z"/>
						</g>
						<g id="&lt;Group&gt;">
							<path id="&lt;Path&gt;" class="s2" d="m306.29 149.22v-4.74h-4.73v4.74z"/>
						</g>
						<g id="&lt;Group&gt;">
							<path id="&lt;Path&gt;" class="s2" d="m315.76 139.75v4.73h-4.73v-4.73z"/>
						</g>
						<g id="&lt;Group&gt;">
							<path id="&lt;Path&gt;" class="s2" d="m311.03 139.75v4.73h-4.74v-4.73z"/>
						</g>
						<g id="&lt;Group&gt;">
							<path id="&lt;Path&gt;" class="s2" d="m325.23 149.22v4.73h-4.73v-4.73z"/>
						</g>
						<g id="&lt;Group&gt;">
							<path id="&lt;Path&gt;" class="s2" d="m301.56 149.22v4.73h-4.74v-4.73z"/>
						</g>
						<g id="&lt;Group&gt;">
							<path id="&lt;Path&gt;" class="s2" d="m329.97 153.95v4.74h-4.74v-4.74z"/>
						</g>
						<g id="&lt;Group&gt;">
							<path id="&lt;Path&gt;" class="s2" d="m296.82 153.95v4.74h-4.73v-4.74z"/>
						</g>
						<g id="&lt;Group&gt;">
							<path id="&lt;Path&gt;" class="s2" d="m334.7 158.69v4.73h-4.73v-4.73z"/>
						</g>
						<g id="&lt;Group&gt;">
							<path id="&lt;Path&gt;" class="s2" d="m339.44 163.42v4.74h-4.74v-4.74z"/>
						</g>
						<g id="&lt;Group&gt;">
							<path id="&lt;Path&gt;" class="s2" d="m344.17 168.16v4.73h-4.73v-4.73z"/>
						</g>
						<g id="&lt;Group&gt;">
							<path id="&lt;Path&gt;" class="s2" d="m292.09 158.69v4.73h-4.74v-4.73z"/>
						</g>
						<g id="&lt;Group&gt;">
							<path id="&lt;Path&gt;" class="s2" d="m287.35 163.42v4.74h-4.73v-4.74z"/>
						</g>
						<g id="&lt;Group&gt;">
							<path id="&lt;Path&gt;" class="s2" d="m282.62 168.16v4.73h-4.74v-4.73z"/>
						</g>
					</g>
					<g id="&lt;Group&gt;">
						<g id="&lt;Group&gt;">
							<path id="&lt;Path&gt;" class="s2" d="m301.56 196.56v4.74h4.73v-4.74z"/>
						</g>
						<g id="&lt;Group&gt;">
							<path id="&lt;Path&gt;" class="s2" d="m320.5 196.56v4.74h-4.74v-4.74z"/>
						</g>
						<g id="&lt;Group&gt;">
							<path id="&lt;Path&gt;" class="s2" d="m311.03 201.3v4.73h-4.74v-4.73z"/>
						</g>
						<g id="&lt;Group&gt;">
							<path id="&lt;Path&gt;" class="s2" d="m315.76 201.3v4.73h-4.73v-4.73z"/>
						</g>
						<g id="&lt;Group&gt;">
							<path id="&lt;Path&gt;" class="s2" d="m301.56 191.83v4.73h-4.74v-4.73z"/>
						</g>
						<g id="&lt;Group&gt;">
							<path id="&lt;Path&gt;" class="s2" d="m325.23 191.83v4.73h-4.73v-4.73z"/>
						</g>
						<g id="&lt;Group&gt;">
							<path id="&lt;Path&gt;" class="s2" d="m296.82 187.09v4.74h-4.73v-4.74z"/>
						</g>
						<g id="&lt;Group&gt;">
							<path id="&lt;Path&gt;" class="s2" d="m329.97 187.09v4.74h-4.74v-4.74z"/>
						</g>
						<g id="&lt;Group&gt;">
							<path id="&lt;Path&gt;" class="s2" d="m287.35 182.36v4.73h4.74v-4.73z"/>
						</g>
						<g id="&lt;Group&gt;">
							<path id="&lt;Path&gt;" class="s2" d="m282.62 177.62v4.74h4.73v-4.74z"/>
						</g>
						<g id="&lt;Group&gt;">
							<path id="&lt;Path&gt;" class="s2" d="m277.88 172.89v4.73h4.74v-4.73z"/>
						</g>
						<g id="&lt;Group&gt;">
							<path id="&lt;Path&gt;" class="s2" d="m334.7 182.36v4.73h-4.73v-4.73z"/>
						</g>
						<g id="&lt;Group&gt;">
							<path id="&lt;Path&gt;" class="s2" d="m334.7 177.62v4.74h4.74v-4.74z"/>
						</g>
						<g id="&lt;Group&gt;">
							<path id="&lt;Path&gt;" class="s2" d="m344.17 172.89v4.73h-4.73v-4.73z"/>
						</g>
					</g>
					<g id="&lt;Group&gt;">
						<g id="&lt;Group&gt;">
							<path id="&lt;Path&gt;" class="s2" d="m313.39 179.99v4.73h-4.73v-4.73z"/>
						</g>
						<g id="&lt;Group&gt;">
							<path id="&lt;Path&gt;" class="s2" d="m313.39 175.25v4.74h-4.73v-4.74z"/>
						</g>
						<g id="&lt;Group&gt;">
							<path id="&lt;Path&gt;" class="s2" d="m313.39 170.52v4.73h-4.73v-4.73z"/>
						</g>
						<g id="&lt;Group&gt;">
							<path id="&lt;Path&gt;" class="s2" d="m313.39 165.79v4.73h-4.73v-4.73z"/>
						</g>
						<g id="&lt;Group&gt;">
							<path id="&lt;Path&gt;" class="s2" d="m313.39 161.06v4.73h-4.73v-4.73z"/>
						</g>
						<g id="&lt;Group&gt;">
							<path id="&lt;Path&gt;" class="s2" d="m318.13 175.25v4.74h-4.74v-4.74z"/>
						</g>
						<g id="&lt;Group&gt;">
							<path id="&lt;Path&gt;" class="s2" d="m318.13 170.52v4.73h-4.74v-4.73z"/>
						</g>
						<g id="&lt;Group&gt;">
							<path id="&lt;Path&gt;" class="s2" d="m322.86 170.52v4.73h-4.73v-4.73z"/>
						</g>
						<g id="&lt;Group&gt;">
							<path id="&lt;Path&gt;" class="s2" d="m308.66 175.25v4.74h-4.73v-4.74z"/>
						</g>
						<g id="&lt;Group&gt;">
							<path id="&lt;Path&gt;" class="s2" d="m308.66 170.52v4.73h-4.73v-4.73z"/>
						</g>
						<g id="&lt;Group&gt;">
							<path id="&lt;Path&gt;" class="s2" d="m303.93 170.52v4.73h-4.74v-4.73z"/>
						</g>
					</g>
					<g id="&lt;Group&gt;" style="opacity: .39;mix-blend-mode: multiply">
						<g id="&lt;Group&gt;">
							<g id="&lt;Group&gt;">
								<path id="&lt;Path&gt;" class="s5" d="m306.29 191.83v4.73h-4.73v-4.73z"/>
							</g>
							<g id="&lt;Group&gt;">
								<path id="&lt;Path&gt;" class="s5" d="m320.5 191.83v4.73h-4.74v-4.73z"/>
							</g>
							<g id="&lt;Group&gt;">
								<path id="&lt;Path&gt;" class="s5" d="m311.03 196.56v4.74h-4.74v-4.74z"/>
							</g>
							<g id="&lt;Group&gt;">
								<path id="&lt;Path&gt;" class="s5" d="m315.76 196.56v4.74h-4.73v-4.74z"/>
							</g>
							<g id="&lt;Group&gt;">
								<path id="&lt;Path&gt;" class="s5" d="m301.56 187.09v4.74h-4.74v-4.74z"/>
							</g>
							<g id="&lt;Group&gt;">
								<path id="&lt;Path&gt;" class="s5" d="m325.23 187.09v4.74h-4.73v-4.74z"/>
							</g>
							<g id="&lt;Group&gt;">
								<path id="&lt;Path&gt;" class="s5" d="m296.82 182.36v4.73h-4.73v-4.73z"/>
							</g>
							<g id="&lt;Group&gt;">
								<path id="&lt;Path&gt;" class="s5" d="m329.97 182.36v4.73h-4.74v-4.73z"/>
							</g>
							<g id="&lt;Group&gt;">
								<path id="&lt;Path&gt;" class="s5" d="m292.09 177.62v4.74h-4.74v-4.74z"/>
							</g>
							<g id="&lt;Group&gt;">
								<path id="&lt;Path&gt;" class="s5" d="m287.35 172.89v4.73h-4.73v-4.73z"/>
							</g>
							<g id="&lt;Group&gt;">
								<path id="&lt;Path&gt;" class="s5" d="m329.97 177.62v4.74h4.73v-4.74z"/>
							</g>
							<g id="&lt;Group&gt;">
								<path id="&lt;Path&gt;" class="s5" d="m339.44 172.89v4.73h-4.74v-4.73z"/>
							</g>
							<g id="&lt;Group&gt;">
								<path id="&lt;Path&gt;" class="s5" d="m287.35 168.16v4.73h-4.73v-4.73z"/>
							</g>
							<g id="&lt;Group&gt;">
								<path id="&lt;Path&gt;" class="s5" d="m339.44 168.16v4.73h-4.74v-4.73z"/>
							</g>
						</g>
					</g>
					<g id="&lt;Group&gt;" style="opacity: .25;mix-blend-mode: screen">
						<g id="&lt;Group&gt;">
							<g id="&lt;Group&gt;">
								<path id="&lt;Path&gt;" class="s1" d="m320.5 153.96v-4.74h-4.74v4.74z"/>
							</g>
							<g id="&lt;Group&gt;">
								<path id="&lt;Path&gt;" class="s1" d="m306.29 153.96v-4.74h-4.73v4.74z"/>
							</g>
							<g id="&lt;Group&gt;">
								<path id="&lt;Path&gt;" class="s1" d="m315.76 149.22v-4.73h-4.73v4.73z"/>
							</g>
							<g id="&lt;Group&gt;">
								<path id="&lt;Path&gt;" class="s1" d="m311.03 144.49v4.73h-4.74v-4.73z"/>
							</g>
							<g id="&lt;Group&gt;">
								<path id="&lt;Path&gt;" class="s1" d="m325.23 153.96v4.73h-4.73v-4.73z"/>
							</g>
							<g id="&lt;Group&gt;">
								<path id="&lt;Path&gt;" class="s1" d="m301.56 158.69v-4.73h-4.74v4.73z"/>
							</g>
							<g id="&lt;Group&gt;">
								<path id="&lt;Path&gt;" class="s1" d="m329.97 163.43v-4.74h-4.74v4.74z"/>
							</g>
							<g id="&lt;Group&gt;">
								<path id="&lt;Path&gt;" class="s1" d="m296.82 163.43v-4.74h-4.73v4.74z"/>
							</g>
							<g id="&lt;Group&gt;">
								<path id="&lt;Path&gt;" class="s1" d="m334.7 163.43v4.73h-4.73v-4.73z"/>
							</g>
							<g id="&lt;Group&gt;">
								<path id="&lt;Path&gt;" class="s1" d="m292.09 163.43v4.73h-4.74v-4.73z"/>
							</g>
						</g>
					</g>
				</g>
				<g id="&lt;Group&gt;">
					<g id="&lt;Group&gt;">
						<path id="&lt;Path&gt;" class="s6" d="m344.17 163.42h9.47l23.68-23.67v-9.47l-23.68-23.67h-9.47l-23.67 23.67v9.47z"/>
					</g>
					<g id="&lt;Group&gt;">
						<g id="&lt;Group&gt;">
							<path id="&lt;Path&gt;" class="s1" d="m348.9 111.35v4.74h-4.73v-4.74z"/>
						</g>
						<g id="&lt;Group&gt;">
							<path id="&lt;Path&gt;" class="s1" d="m344.17 120.81v-4.73h-4.73v4.73z"/>
						</g>
					</g>
					<g id="&lt;Group&gt;">
						<g id="&lt;Group&gt;">
							<path id="&lt;Path&gt;" class="s2" d="m358.38 106.61v4.73h-4.74v-4.73z"/>
						</g>
						<g id="&lt;Group&gt;">
							<path id="&lt;Path&gt;" class="s2" d="m344.17 106.61v4.73h-4.73v-4.73z"/>
						</g>
						<g id="&lt;Group&gt;">
							<path id="&lt;Path&gt;" class="s2" d="m353.64 101.87v4.74h-4.73v-4.74z"/>
						</g>
						<g id="&lt;Group&gt;">
							<path id="&lt;Path&gt;" class="s2" d="m348.91 101.87v4.74h-4.74v-4.74z"/>
						</g>
						<g id="&lt;Group&gt;">
							<path id="&lt;Path&gt;" class="s2" d="m363.11 111.34v4.74h-4.73v-4.74z"/>
						</g>
						<g id="&lt;Group&gt;">
							<path id="&lt;Path&gt;" class="s2" d="m339.44 111.34v4.74h-4.74v-4.74z"/>
						</g>
						<g id="&lt;Group&gt;">
							<path id="&lt;Path&gt;" class="s2" d="m367.85 116.08v4.73h-4.74v-4.73z"/>
						</g>
						<g id="&lt;Group&gt;">
							<path id="&lt;Path&gt;" class="s2" d="m334.7 116.08v4.73h-4.73v-4.73z"/>
						</g>
						<g id="&lt;Group&gt;">
							<path id="&lt;Path&gt;" class="s2" d="m372.58 120.81v4.74h-4.73v-4.74z"/>
						</g>
						<g id="&lt;Group&gt;">
							<path id="&lt;Path&gt;" class="s2" d="m377.32 125.55v4.73h-4.74v-4.73z"/>
						</g>
						<g id="&lt;Group&gt;">
							<path id="&lt;Path&gt;" class="s2" d="m382.05 130.28v4.74h-4.73v-4.74z"/>
						</g>
						<g id="&lt;Group&gt;">
							<path id="&lt;Path&gt;" class="s2" d="m329.97 125.55v-4.74h-4.74v4.74z"/>
						</g>
						<g id="&lt;Group&gt;">
							<path id="&lt;Path&gt;" class="s2" d="m325.23 125.55v4.73h-4.73v-4.73z"/>
						</g>
						<g id="&lt;Group&gt;">
							<path id="&lt;Path&gt;" class="s2" d="m320.5 135.02v-4.74h-4.74v4.74z"/>
						</g>
					</g>
					<g id="&lt;Group&gt;">
						<g id="&lt;Group&gt;">
							<path id="&lt;Path&gt;" class="s2" d="m344.17 158.69v4.73h-4.73v-4.73z"/>
						</g>
						<g id="&lt;Group&gt;">
							<path id="&lt;Path&gt;" class="s2" d="m353.64 158.69v4.73h4.74v-4.73z"/>
						</g>
						<g id="&lt;Group&gt;">
							<path id="&lt;Path&gt;" class="s2" d="m348.91 163.42v4.74h-4.74v-4.74z"/>
						</g>
						<g id="&lt;Group&gt;">
							<path id="&lt;Path&gt;" class="s2" d="m353.64 163.42v4.74h-4.73v-4.74z"/>
						</g>
						<g id="&lt;Group&gt;">
							<path id="&lt;Path&gt;" class="s2" d="m339.44 153.95v4.74h-4.74v-4.74z"/>
						</g>
						<g id="&lt;Group&gt;">
							<path id="&lt;Path&gt;" class="s2" d="m358.38 153.95v4.74h4.73v-4.74z"/>
						</g>
						<g id="&lt;Group&gt;">
							<path id="&lt;Path&gt;" class="s2" d="m334.7 149.22v4.73h-4.73v-4.73z"/>
						</g>
						<g id="&lt;Group&gt;">
							<path id="&lt;Path&gt;" class="s2" d="m367.85 149.22v4.73h-4.74v-4.73z"/>
						</g>
						<g id="&lt;Group&gt;">
							<path id="&lt;Path&gt;" class="s2" d="m329.97 144.48v4.74h-4.74v-4.74z"/>
						</g>
						<g id="&lt;Group&gt;">
							<path id="&lt;Path&gt;" class="s2" d="m320.5 139.75v4.73h4.73v-4.73z"/>
						</g>
						<g id="&lt;Group&gt;">
							<path id="&lt;Path&gt;" class="s2" d="m320.5 135.01v4.74h-4.74v-4.74z"/>
						</g>
						<g id="&lt;Group&gt;">
							<path id="&lt;Path&gt;" class="s2" d="m367.85 144.48v4.74h4.73v-4.74z"/>
						</g>
						<g id="&lt;Group&gt;">
							<path id="&lt;Path&gt;" class="s2" d="m377.32 139.75v4.73h-4.74v-4.73z"/>
						</g>
						<g id="&lt;Group&gt;">
							<path id="&lt;Path&gt;" class="s2" d="m377.32 135.01v4.74h4.73v-4.74z"/>
						</g>
					</g>
					<g id="&lt;Group&gt;">
						<g id="&lt;Group&gt;">
							<path id="&lt;Path&gt;" class="s2" d="m360.74 132.65v4.73h-4.73v-4.73z"/>
						</g>
						<g id="&lt;Group&gt;">
							<path id="&lt;Path&gt;" class="s2" d="m351.27 132.65h4.74v4.73h-4.74z"/>
						</g>
						<g id="&lt;Group&gt;">
							<path id="&lt;Path&gt;" class="s2" d="m351.27 132.65v4.73h-4.73v-4.73z"/>
						</g>
						<g id="&lt;Group&gt;">
							<path id="&lt;Path&gt;" class="s2" d="m346.54 132.65v4.73h-4.73v-4.73z"/>
						</g>
						<g id="&lt;Group&gt;">
							<path id="&lt;Path&gt;" class="s2" d="m341.81 132.65v4.73h-4.74v-4.73z"/>
						</g>
						<g id="&lt;Group&gt;">
							<path id="&lt;Path&gt;" class="s2" d="m356.01 127.91v4.74h-4.74v-4.74z"/>
						</g>
						<g id="&lt;Group&gt;">
							<path id="&lt;Path&gt;" class="s2" d="m351.27 127.91v4.74h-4.73v-4.74z"/>
						</g>
						<g id="&lt;Group&gt;">
							<path id="&lt;Path&gt;" class="s2" d="m346.54 123.18h4.73v4.73h-4.73z"/>
						</g>
						<g id="&lt;Group&gt;">
							<path id="&lt;Path&gt;" class="s2" d="m351.27 137.38h4.74v4.73h-4.74z"/>
						</g>
						<g id="&lt;Group&gt;">
							<path id="&lt;Path&gt;" class="s2" d="m351.27 137.38v4.73h-4.73v-4.73z"/>
						</g>
						<g id="&lt;Group&gt;">
							<path id="&lt;Path&gt;" class="s2" d="m346.54 142.11h4.73v4.73h-4.73z"/>
						</g>
					</g>
					<g id="&lt;Group&gt;" style="opacity: .46;mix-blend-mode: multiply">
						<g id="&lt;Group&gt;">
							<g id="&lt;Group&gt;">
								<path id="&lt;Path&gt;" class="s7" d="m339.44 153.95v4.74h4.73v-4.74z"/>
							</g>
							<g id="&lt;Group&gt;">
								<path id="&lt;Path&gt;" class="s7" d="m358.38 153.95v4.74h-4.74v-4.74z"/>
							</g>
							<g id="&lt;Group&gt;">
								<path id="&lt;Path&gt;" class="s7" d="m348.91 158.69v4.73h-4.74v-4.73z"/>
							</g>
							<g id="&lt;Group&gt;">
								<path id="&lt;Path&gt;" class="s7" d="m348.91 158.69v4.73h4.73v-4.73z"/>
							</g>
							<g id="&lt;Group&gt;">
								<path id="&lt;Path&gt;" class="s7" d="m339.44 149.22v4.73h-4.74v-4.73z"/>
							</g>
							<g id="&lt;Group&gt;">
								<path id="&lt;Path&gt;" class="s7" d="m358.38 149.22v4.73h4.73v-4.73z"/>
							</g>
							<g id="&lt;Group&gt;">
								<path id="&lt;Path&gt;" class="s7" d="m329.97 144.48v4.74h4.73v-4.74z"/>
							</g>
							<g id="&lt;Group&gt;">
								<path id="&lt;Path&gt;" class="s7" d="m367.85 144.48v4.74h-4.74v-4.74z"/>
							</g>
							<g id="&lt;Group&gt;">
								<path id="&lt;Path&gt;" class="s7" d="m329.97 139.75v4.73h-4.74v-4.73z"/>
							</g>
							<g id="&lt;Group&gt;">
								<path id="&lt;Path&gt;" class="s7" d="m320.5 135.01v4.74h4.73v-4.74z"/>
							</g>
							<g id="&lt;Group&gt;">
								<path id="&lt;Path&gt;" class="s7" d="m372.58 139.75v4.73h-4.73v-4.73z"/>
							</g>
							<g id="&lt;Group&gt;">
								<path id="&lt;Path&gt;" class="s7" d="m377.32 135.01v4.74h-4.74v-4.74z"/>
							</g>
							<g id="&lt;Group&gt;">
								<path id="&lt;Path&gt;" class="s7" d="m320.5 130.28v4.74h4.73v-4.74z"/>
							</g>
							<g id="&lt;Group&gt;">
								<path id="&lt;Path&gt;" class="s7" d="m372.58 130.28v4.74h4.74v-4.74z"/>
							</g>
						</g>
					</g>
					<g id="&lt;Group&gt;" style="opacity: .31;mix-blend-mode: screen">
						<g id="&lt;Group&gt;">
							<g id="&lt;Group&gt;">
								<path id="&lt;Path&gt;" class="s1" d="m358.38 116.08v-4.73h-4.74v4.73z"/>
							</g>
							<g id="&lt;Group&gt;">
								<path id="&lt;Path&gt;" class="s1" d="m344.17 116.08v-4.73h-4.73v4.73z"/>
							</g>
							<g id="&lt;Group&gt;">
								<path id="&lt;Path&gt;" class="s1" d="m353.64 106.61v4.74h-4.73v-4.74z"/>
							</g>
							<g id="&lt;Group&gt;">
								<path id="&lt;Path&gt;" class="s1" d="m348.91 111.35v-4.74h-4.74v4.74z"/>
							</g>
							<g id="&lt;Group&gt;">
								<path id="&lt;Path&gt;" class="s1" d="m363.11 120.82v-4.74h-4.73v4.74z"/>
							</g>
							<g id="&lt;Group&gt;">
								<path id="&lt;Path&gt;" class="s1" d="m339.44 116.08v4.74h-4.74v-4.74z"/>
							</g>
							<g id="&lt;Group&gt;">
								<path id="&lt;Path&gt;" class="s1" d="m367.85 120.82v4.73h-4.74v-4.73z"/>
							</g>
							<g id="&lt;Group&gt;">
								<path id="&lt;Path&gt;" class="s1" d="m334.7 125.55v-4.73h-4.73v4.73z"/>
							</g>
							<g id="&lt;Group&gt;">
								<path id="&lt;Path&gt;" class="s1" d="m372.58 130.29v-4.74h-4.73v4.74z"/>
							</g>
							<g id="&lt;Group&gt;">
								<path id="&lt;Path&gt;" class="s1" d="m329.97 130.29v-4.74h-4.74v4.74z"/>
							</g>
						</g>
					</g>
				</g>
				<g id="&lt;Group&gt;">
					<g id="&lt;Group&gt;">
						<path id="&lt;Path&gt;" class="s8" d="m268.41 163.42h9.47l23.68-23.67v-9.47l-23.68-23.67h-9.47l-23.67 23.67v9.47z"/>
					</g>
					<g id="&lt;Group&gt;">
						<g id="&lt;Group&gt;">
							<path id="&lt;Path&gt;" class="s1" d="m273.14 111.35v4.74h-4.73v-4.74z"/>
						</g>
						<g id="&lt;Group&gt;">
							<path id="&lt;Path&gt;" class="s1" d="m268.41 120.81v-4.73h-4.73v4.73z"/>
						</g>
					</g>
					<g id="&lt;Group&gt;">
						<g id="&lt;Group&gt;">
							<path id="&lt;Path&gt;" class="s2" d="m282.62 111.34v-4.73h-4.74v4.73z"/>
						</g>
						<g id="&lt;Group&gt;">
							<path id="&lt;Path&gt;" class="s2" d="m268.41 106.61v4.73h-4.73v-4.73z"/>
						</g>
						<g id="&lt;Group&gt;">
							<path id="&lt;Path&gt;" class="s2" d="m277.88 101.87v4.74h-4.73v-4.74z"/>
						</g>
						<g id="&lt;Group&gt;">
							<path id="&lt;Path&gt;" class="s2" d="m273.15 101.87v4.74h-4.74v-4.74z"/>
						</g>
						<g id="&lt;Group&gt;">
							<path id="&lt;Path&gt;" class="s2" d="m287.35 111.34v4.74h-4.73v-4.74z"/>
						</g>
						<g id="&lt;Group&gt;">
							<path id="&lt;Path&gt;" class="s2" d="m263.68 111.34v4.74h-4.74v-4.74z"/>
						</g>
						<g id="&lt;Group&gt;">
							<path id="&lt;Path&gt;" class="s2" d="m292.09 116.08v4.73h-4.74v-4.73z"/>
						</g>
						<g id="&lt;Group&gt;">
							<path id="&lt;Path&gt;" class="s2" d="m258.94 116.08v4.73h-4.73v-4.73z"/>
						</g>
						<g id="&lt;Group&gt;">
							<path id="&lt;Path&gt;" class="s2" d="m296.82 125.55v-4.74h-4.73v4.74z"/>
						</g>
						<g id="&lt;Group&gt;">
							<path id="&lt;Path&gt;" class="s2" d="m301.56 125.55v4.73h-4.74v-4.73z"/>
						</g>
						<g id="&lt;Group&gt;">
							<path id="&lt;Path&gt;" class="s2" d="m306.29 130.28v4.74h-4.73v-4.74z"/>
						</g>
						<g id="&lt;Group&gt;">
							<path id="&lt;Path&gt;" class="s2" d="m254.21 120.81v4.74h-4.74v-4.74z"/>
						</g>
						<g id="&lt;Group&gt;">
							<path id="&lt;Path&gt;" class="s2" d="m249.47 125.55v4.73h-4.73v-4.73z"/>
						</g>
						<g id="&lt;Group&gt;">
							<path id="&lt;Path&gt;" class="s2" d="m244.74 135.02v-4.74h-4.74v4.74z"/>
						</g>
					</g>
					<g id="&lt;Group&gt;">
						<g id="&lt;Group&gt;">
							<path id="&lt;Path&gt;" class="s2" d="m268.41 158.69v4.73h-4.73v-4.73z"/>
						</g>
						<g id="&lt;Group&gt;">
							<path id="&lt;Path&gt;" class="s2" d="m277.88 158.69v4.73h4.74v-4.73z"/>
						</g>
						<g id="&lt;Group&gt;">
							<path id="&lt;Path&gt;" class="s2" d="m268.41 163.42v4.74h4.74v-4.74z"/>
						</g>
						<g id="&lt;Group&gt;">
							<path id="&lt;Path&gt;" class="s2" d="m273.15 163.42v4.74h4.73v-4.74z"/>
						</g>
						<g id="&lt;Group&gt;">
							<path id="&lt;Path&gt;" class="s2" d="m263.68 153.95v4.74h-4.74v-4.74z"/>
						</g>
						<g id="&lt;Group&gt;">
							<path id="&lt;Path&gt;" class="s2" d="m282.62 153.95v4.74h4.73v-4.74z"/>
						</g>
						<g id="&lt;Group&gt;">
							<path id="&lt;Path&gt;" class="s2" d="m258.94 149.22v4.73h-4.73v-4.73z"/>
						</g>
						<g id="&lt;Group&gt;">
							<path id="&lt;Path&gt;" class="s2" d="m292.09 149.22v4.73h-4.74v-4.73z"/>
						</g>
						<g id="&lt;Group&gt;">
							<path id="&lt;Path&gt;" class="s2" d="m254.21 144.48v4.74h-4.74v-4.74z"/>
						</g>
						<g id="&lt;Group&gt;">
							<path id="&lt;Path&gt;" class="s2" d="m244.74 139.75v4.73h4.73v-4.73z"/>
						</g>
						<g id="&lt;Group&gt;">
							<path id="&lt;Path&gt;" class="s2" d="m244.74 135.01v4.74h-4.74v-4.74z"/>
						</g>
						<g id="&lt;Group&gt;">
							<path id="&lt;Path&gt;" class="s2" d="m296.82 144.48v4.74h-4.73v-4.74z"/>
						</g>
						<g id="&lt;Group&gt;">
							<path id="&lt;Path&gt;" class="s2" d="m301.56 139.75v4.73h-4.74v-4.73z"/>
						</g>
						<g id="&lt;Group&gt;">
							<path id="&lt;Path&gt;" class="s2" d="m301.56 135.01v4.74h4.73v-4.74z"/>
						</g>
					</g>
					<g id="&lt;Group&gt;">
						<g id="&lt;Group&gt;">
							<path id="&lt;Path&gt;" class="s2" d="m266.05 132.65v4.73h-4.74v-4.73z"/>
						</g>
						<g id="&lt;Group&gt;">
							<path id="&lt;Path&gt;" class="s2" d="m270.78 132.65v4.73h-4.73v-4.73z"/>
						</g>
						<g id="&lt;Group&gt;">
							<path id="&lt;Path&gt;" class="s2" d="m275.51 132.65v4.73h-4.73v-4.73z"/>
						</g>
						<g id="&lt;Group&gt;">
							<path id="&lt;Path&gt;" class="s2" d="m280.24 137.38h-4.73v-4.73h4.73z"/>
						</g>
						<g id="&lt;Group&gt;">
							<path id="&lt;Path&gt;" class="s2" d="m284.98 132.65v4.73h-4.74v-4.73z"/>
						</g>
						<g id="&lt;Group&gt;">
							<path id="&lt;Path&gt;" class="s2" d="m270.78 137.38v4.73h-4.73v-4.73z"/>
						</g>
						<g id="&lt;Group&gt;">
							<path id="&lt;Path&gt;" class="s2" d="m275.51 137.38v4.73h-4.73v-4.73z"/>
						</g>
						<g id="&lt;Group&gt;">
							<path id="&lt;Path&gt;" class="s2" d="m275.51 142.11v4.73h-4.73v-4.73z"/>
						</g>
						<g id="&lt;Group&gt;">
							<path id="&lt;Path&gt;" class="s2" d="m270.78 127.91v4.74h-4.73v-4.74z"/>
						</g>
						<g id="&lt;Group&gt;">
							<path id="&lt;Path&gt;" class="s2" d="m275.51 127.91v4.74h-4.73v-4.74z"/>
						</g>
						<g id="&lt;Group&gt;">
							<path id="&lt;Path&gt;" class="s2" d="m275.51 123.18v4.73h-4.73v-4.73z"/>
						</g>
					</g>
					<g id="&lt;Group&gt;" style="opacity: .45;mix-blend-mode: multiply">
						<g id="&lt;Group&gt;">
							<g id="&lt;Group&gt;">
								<path id="&lt;Path&gt;" class="s9" d="m263.68 153.95v4.74h4.73v-4.74z"/>
							</g>
							<g id="&lt;Group&gt;">
								<path id="&lt;Path&gt;" class="s9" d="m282.62 153.95v4.74h-4.74v-4.74z"/>
							</g>
							<g id="&lt;Group&gt;">
								<path id="&lt;Path&gt;" class="s9" d="m273.15 158.69v4.73h-4.74v-4.73z"/>
							</g>
							<g id="&lt;Group&gt;">
								<path id="&lt;Path&gt;" class="s9" d="m277.88 158.69v4.73h-4.73v-4.73z"/>
							</g>
							<g id="&lt;Group&gt;">
								<path id="&lt;Path&gt;" class="s9" d="m263.68 149.22v4.73h-4.74v-4.73z"/>
							</g>
							<g id="&lt;Group&gt;">
								<path id="&lt;Path&gt;" class="s9" d="m287.35 149.22v4.73h-4.73v-4.73z"/>
							</g>
							<g id="&lt;Group&gt;">
								<path id="&lt;Path&gt;" class="s9" d="m254.21 144.48v4.74h4.73v-4.74z"/>
							</g>
							<g id="&lt;Group&gt;">
								<path id="&lt;Path&gt;" class="s9" d="m292.09 144.48v4.74h-4.74v-4.74z"/>
							</g>
							<g id="&lt;Group&gt;">
								<path id="&lt;Path&gt;" class="s9" d="m254.21 139.75v4.73h-4.74v-4.73z"/>
							</g>
							<g id="&lt;Group&gt;">
								<path id="&lt;Path&gt;" class="s9" d="m249.47 135.01v4.74h-4.73v-4.74z"/>
							</g>
							<g id="&lt;Group&gt;">
								<path id="&lt;Path&gt;" class="s9" d="m296.82 139.75v4.73h-4.73v-4.73z"/>
							</g>
							<g id="&lt;Group&gt;">
								<path id="&lt;Path&gt;" class="s9" d="m296.82 135.01v4.74h4.74v-4.74z"/>
							</g>
							<g id="&lt;Group&gt;">
								<path id="&lt;Path&gt;" class="s9" d="m244.74 130.28v4.74h4.73v-4.74z"/>
							</g>
							<g id="&lt;Group&gt;">
								<path id="&lt;Path&gt;" class="s9" d="m296.82 130.28v4.74h4.74v-4.74z"/>
							</g>
						</g>
					</g>
					<g id="&lt;Group&gt;" style="opacity: .43;mix-blend-mode: screen">
						<g id="&lt;Group&gt;">
							<g id="&lt;Group&gt;">
								<path id="&lt;Path&gt;" class="s1" d="m282.62 111.35v4.73h-4.74v-4.73z"/>
							</g>
							<g id="&lt;Group&gt;">
								<path id="&lt;Path&gt;" class="s1" d="m268.41 111.35v4.73h-4.73v-4.73z"/>
							</g>
							<g id="&lt;Group&gt;">
								<path id="&lt;Path&gt;" class="s1" d="m277.88 106.61v4.74h-4.73v-4.74z"/>
							</g>
							<g id="&lt;Group&gt;">
								<path id="&lt;Path&gt;" class="s1" d="m273.15 111.35v-4.74h-4.74v4.74z"/>
							</g>
							<g id="&lt;Group&gt;">
								<path id="&lt;Path&gt;" class="s1" d="m287.35 116.08v4.74h-4.73v-4.74z"/>
							</g>
							<g id="&lt;Group&gt;">
								<path id="&lt;Path&gt;" class="s1" d="m263.68 116.08v4.74h-4.74v-4.74z"/>
							</g>
							<g id="&lt;Group&gt;">
								<path id="&lt;Path&gt;" class="s1" d="m292.09 125.55v-4.73h-4.74v4.73z"/>
							</g>
							<g id="&lt;Group&gt;">
								<path id="&lt;Path&gt;" class="s1" d="m258.94 120.82v4.73h-4.73v-4.73z"/>
							</g>
							<g id="&lt;Group&gt;">
								<path id="&lt;Path&gt;" class="s1" d="m296.82 130.29v-4.74h-4.73v4.74z"/>
							</g>
							<g id="&lt;Group&gt;">
								<path id="&lt;Path&gt;" class="s1" d="m254.21 130.29v-4.74h-4.74v4.74z"/>
							</g>
						</g>
					</g>
				</g>
				<g id="&lt;Group&gt;">
					<g id="&lt;Group&gt;">
						<g id="&lt;Group&gt;">
							<path id="&lt;Path&gt;" class="s1" d="m282.62 101.87v4.74h-4.74v-4.74z"/>
						</g>
						<g id="&lt;Group&gt;">
							<path id="&lt;Path&gt;" class="s1" d="m287.35 111.34v-4.73h-4.73v4.73z"/>
						</g>
						<g id="&lt;Group&gt;">
							<path id="&lt;Path&gt;" class="s1" d="m292.09 111.35v4.73h-4.74v-4.73z"/>
						</g>
						<g id="&lt;Group&gt;">
							<path id="&lt;Path&gt;" class="s1" d="m296.82 120.82v-4.74h-4.73v4.74z"/>
						</g>
						<g id="&lt;Group&gt;">
							<path id="&lt;Path&gt;" class="s1" d="m301.56 120.82v4.73h-4.73v-4.73z"/>
						</g>
						<g id="&lt;Group&gt;">
							<path id="&lt;Path&gt;" class="s1" d="m306.3 125.55v4.74h-4.74v-4.74z"/>
						</g>
						<g id="&lt;Group&gt;">
							<path id="&lt;Path&gt;" class="s1" d="m311.03 130.29v4.74h-4.73v-4.74z"/>
						</g>
						<g id="&lt;Group&gt;">
							<path id="&lt;Path&gt;" class="s1" d="m315.77 135.03v4.73h-4.73v-4.73z"/>
						</g>
						<g id="&lt;Group&gt;">
							<path id="&lt;Path&gt;" class="s1" d="m320.51 139.76v4.74h-4.74v-4.74z"/>
						</g>
						<g id="&lt;Group&gt;">
							<path id="&lt;Path&gt;" class="s1" d="m325.24 144.5v4.74h-4.73v-4.74z"/>
						</g>
						<g id="&lt;Group&gt;">
							<path id="&lt;Path&gt;" class="s1" d="m329.98 153.97v-4.73h-4.74v4.73z"/>
						</g>
						<g id="&lt;Group&gt;">
							<path id="&lt;Path&gt;" class="s1" d="m334.72 153.97v4.74h-4.74v-4.74z"/>
						</g>
						<g id="&lt;Group&gt;">
							<path id="&lt;Path&gt;" class="s1" d="m339.45 158.71v4.73h-4.73v-4.73z"/>
						</g>
						<g id="&lt;Group&gt;">
							<path id="&lt;Path&gt;" class="s1" d="m344.19 163.45v4.73h-4.74v-4.73z"/>
						</g>
						<g id="&lt;Group&gt;">
							<path id="&lt;Path&gt;" class="s1" d="m282.62 163.45h-4.74v4.73h4.74z"/>
						</g>
						<g id="&lt;Group&gt;">
							<path id="&lt;Path&gt;" class="s1" d="m287.35 158.71v4.73h-4.73v-4.73z"/>
						</g>
						<g id="&lt;Group&gt;">
							<path id="&lt;Path&gt;" class="s1" d="m292.09 153.97v4.74h-4.74v-4.74z"/>
						</g>
						<g id="&lt;Group&gt;">
							<path id="&lt;Path&gt;" class="s1" d="m296.82 149.24v4.73h-4.73v-4.73z"/>
						</g>
						<g id="&lt;Group&gt;">
							<path id="&lt;Path&gt;" class="s1" d="m301.56 144.5v4.74h-4.73v-4.74z"/>
						</g>
						<g id="&lt;Group&gt;">
							<path id="&lt;Path&gt;" class="s1" d="m306.3 139.76h-4.74v4.74h4.74z"/>
						</g>
						<g id="&lt;Group&gt;">
							<path id="&lt;Path&gt;" class="s1" d="m311.03 135.03v4.73h-4.73v-4.73z"/>
						</g>
						<g id="&lt;Group&gt;">
							<path id="&lt;Path&gt;" class="s1" d="m315.77 130.29v4.74h-4.73v-4.74z"/>
						</g>
						<g id="&lt;Group&gt;">
							<path id="&lt;Path&gt;" class="s1" d="m320.51 125.55h-4.74v4.74h4.74z"/>
						</g>
						<g id="&lt;Group&gt;">
							<path id="&lt;Path&gt;" class="s1" d="m325.24 120.82v4.73h-4.73v-4.73z"/>
						</g>
						<g id="&lt;Group&gt;">
							<path id="&lt;Path&gt;" class="s1" d="m329.98 116.08v4.74h-4.74v-4.74z"/>
						</g>
						<g id="&lt;Group&gt;">
							<path id="&lt;Path&gt;" class="s1" d="m334.72 111.35v4.73h-4.74v-4.73z"/>
						</g>
						<g id="&lt;Group&gt;">
							<path id="&lt;Path&gt;" class="s1" d="m339.45 106.61v4.73h-4.73v-4.73z"/>
						</g>
						<g id="&lt;Group&gt;">
							<path id="&lt;Path&gt;" class="s1" d="m344.19 101.87v4.74h-4.74v-4.74z"/>
						</g>
					</g>
				</g>
			</g>
		</g>
	</g>
</svg>