<svg version="1.2" xmlns="http://www.w3.org/2000/svg" viewBox="528 65 244 369" width="244" height="369">
	<style>
		.s0 { fill: #f22259 } 
		.s1 { fill: #cc366f } 
		.s2 { fill: #000600 } 
		.s3 { fill: #ffffff } 
	</style>
	<g id="Layer 1">
		<g id="&lt;Group&gt;">
			<g id="&lt;Group&gt;">
				<g id="&lt;Group&gt;">
					<g id="&lt;Group&gt;">
						<path id="&lt;Path&gt;" class="s0" d="m548.11 86.48v286.22h20.44l40.89-40.89h20.45l20.44 40.89 20.45 40.89h40.89v-40.89l-20.45-40.89-20.44-40.89h81.78v-20.44l-184.01-184z"/>
					</g>
					<g id="&lt;Group&gt;" style="opacity: .46;mix-blend-mode: multiply">
						<g id="&lt;Group&gt;">
							<path id="&lt;Path&gt;" class="s1" d="m752.56 270.48v20.44h-20.45v-20.44z"/>
							<path id="&lt;Path&gt;" class="s1" d="m732.11 270.48v20.44h-20.44v-20.44z"/>
							<path id="&lt;Path&gt;" class="s1" d="m711.67 270.48v20.44h-20.45v-20.44z"/>
							<path id="&lt;Path&gt;" class="s1" d="m691.22 270.48v20.44h-20.44v-20.44z"/>
							<path id="&lt;Path&gt;" class="s1" d="m691.22 290.92v20.45h-20.44v-20.45z"/>
							<path id="&lt;Path&gt;" class="s1" d="m732.11 372.7v20.45h-20.44v-20.45z"/>
							<path id="&lt;Path&gt;" class="s1" d="m670.78 352.26v20.44h-20.45v-20.44z"/>
							<path id="&lt;Path&gt;" class="s1" d="m670.78 372.7v20.45h-20.45v-20.45z"/>
							<path id="&lt;Path&gt;" class="s1" d="m650.33 311.37v20.44h-20.44v-20.44z"/>
							<path id="&lt;Path&gt;" class="s1" d="m629.89 290.92v20.45h-20.45v-20.45z"/>
							<path id="&lt;Path&gt;" class="s1" d="m609.44 311.37v20.44h-20.44v-20.44z"/>
							<path id="&lt;Path&gt;" class="s1" d="m589 331.81v20.45h-20.45v-20.45z"/>
							<path id="&lt;Path&gt;" class="s1" d="m568.55 352.26v20.44h-20.44v-20.44z"/>
							<path id="&lt;Path&gt;" class="s1" d="m650.33 331.81v20.45h-20.44v-20.45z"/>
							<path id="&lt;Path&gt;" class="s1" d="m711.67 393.15v20.44h-20.45v-20.44z"/>
							<path id="&lt;Path&gt;" class="s1" d="m691.22 393.15v20.44h-20.44v-20.44z"/>
						</g>
					</g>
					<g id="&lt;Group&gt;">
						<g id="&lt;Group&gt;">
							<g id="&lt;Group&gt;">
								<path id="&lt;Path&gt;" class="s2" d="m548.11 86.48v20.44h-20.45v-20.44z"/>
							</g>
							<g id="&lt;Group&gt;">
								<path id="&lt;Path&gt;" class="s2" d="m548.11 106.92v20.45h-20.45v-20.45z"/>
							</g>
							<g id="&lt;Group&gt;">
								<path id="&lt;Path&gt;" class="s2" d="m548.11 127.37v20.44h-20.45v-20.44z"/>
							</g>
							<g id="&lt;Group&gt;">
								<path id="&lt;Path&gt;" class="s2" d="m548.11 147.81v20.45h-20.45v-20.45z"/>
							</g>
							<g id="&lt;Group&gt;">
								<path id="&lt;Path&gt;" class="s2" d="m548.11 168.26v20.44h-20.45v-20.44z"/>
							</g>
							<g id="&lt;Group&gt;">
								<path id="&lt;Path&gt;" class="s2" d="m548.11 188.7v20.45h-20.45v-20.45z"/>
							</g>
							<g id="&lt;Group&gt;">
								<path id="&lt;Path&gt;" class="s2" d="m548.11 209.15v20.44h-20.45v-20.44z"/>
							</g>
							<g id="&lt;Group&gt;">
								<path id="&lt;Path&gt;" class="s2" d="m548.11 229.59v20.44h-20.45v-20.44z"/>
							</g>
							<g id="&lt;Group&gt;">
								<path id="&lt;Path&gt;" class="s2" d="m548.11 250.03v20.45h-20.45v-20.45z"/>
							</g>
							<g id="&lt;Group&gt;">
								<path id="&lt;Path&gt;" class="s2" d="m548.11 270.48v20.44h-20.45v-20.44z"/>
							</g>
							<g id="&lt;Group&gt;">
								<path id="&lt;Path&gt;" class="s2" d="m548.11 290.92v20.45h-20.45v-20.45z"/>
							</g>
							<g id="&lt;Group&gt;">
								<path id="&lt;Path&gt;" class="s2" d="m548.11 311.37v20.44h-20.45v-20.44z"/>
							</g>
							<g id="&lt;Group&gt;">
								<path id="&lt;Path&gt;" class="s2" d="m548.11 331.81v20.45h-20.45v-20.45z"/>
							</g>
							<g id="&lt;Group&gt;">
								<path id="&lt;Path&gt;" class="s2" d="m548.11 352.26v20.44h-20.45v-20.44z"/>
							</g>
							<g id="&lt;Group&gt;">
								<path id="&lt;Path&gt;" class="s2" d="m568.55 66.03v20.45h-20.44v-20.45z"/>
							</g>
							<g id="&lt;Group&gt;">
								<path id="&lt;Path&gt;" class="s2" d="m589 86.48v20.44h-20.45v-20.44z"/>
							</g>
							<g id="&lt;Group&gt;">
								<path id="&lt;Path&gt;" class="s2" d="m609.44 106.92v20.45h-20.44v-20.45z"/>
							</g>
							<g id="&lt;Group&gt;">
								<path id="&lt;Path&gt;" class="s2" d="m629.89 127.37v20.44h-20.45v-20.44z"/>
							</g>
							<g id="&lt;Group&gt;">
								<path id="&lt;Path&gt;" class="s2" d="m650.33 147.81v20.45h-20.44v-20.45z"/>
							</g>
							<g id="&lt;Group&gt;">
								<path id="&lt;Path&gt;" class="s2" d="m670.78 168.26v20.44h-20.45v-20.44z"/>
							</g>
							<g id="&lt;Group&gt;">
								<path id="&lt;Path&gt;" class="s2" d="m691.22 188.7v20.45h-20.44v-20.45z"/>
							</g>
							<g id="&lt;Group&gt;">
								<path id="&lt;Path&gt;" class="s2" d="m711.67 209.15v20.44h-20.45v-20.44z"/>
							</g>
							<g id="&lt;Group&gt;">
								<path id="&lt;Path&gt;" class="s2" d="m732.11 229.59v20.44h-20.44v-20.44z"/>
							</g>
							<g id="&lt;Group&gt;">
								<path id="&lt;Path&gt;" class="s2" d="m752.56 250.03v20.45h-20.45v-20.45z"/>
							</g>
							<g id="&lt;Group&gt;">
								<path id="&lt;Path&gt;" class="s2" d="m773 270.48v20.44h-20.44v-20.44z"/>
							</g>
							<g id="&lt;Group&gt;">
								<path id="&lt;Path&gt;" class="s2" d="m752.56 290.92v20.45h-20.45v-20.45z"/>
							</g>
							<g id="&lt;Group&gt;">
								<path id="&lt;Path&gt;" class="s2" d="m732.11 290.92v20.45h-20.44v-20.45z"/>
							</g>
							<g id="&lt;Group&gt;">
								<path id="&lt;Path&gt;" class="s2" d="m711.67 290.92v20.45h-20.45v-20.45z"/>
							</g>
							<g id="&lt;Group&gt;">
								<path id="&lt;Path&gt;" class="s2" d="m691.22 290.92v20.45h-20.44v-20.45z"/>
							</g>
							<g id="&lt;Group&gt;">
								<path id="&lt;Path&gt;" class="s2" d="m691.22 311.37v20.44h-20.44v-20.44z"/>
							</g>
							<g id="&lt;Group&gt;">
								<path id="&lt;Path&gt;" class="s2" d="m711.67 331.81v20.45h-20.45v-20.45z"/>
							</g>
							<g id="&lt;Group&gt;">
								<path id="&lt;Path&gt;" class="s2" d="m711.67 352.26v20.44h-20.45v-20.44z"/>
							</g>
							<g id="&lt;Group&gt;">
								<path id="&lt;Path&gt;" class="s2" d="m732.11 372.7v20.45h-20.44v-20.45z"/>
							</g>
							<g id="&lt;Group&gt;">
								<path id="&lt;Path&gt;" class="s2" d="m732.11 393.15v20.44h-20.44v-20.44z"/>
							</g>
							<g id="&lt;Group&gt;">
								<path id="&lt;Path&gt;" class="s2" d="m670.78 372.7v20.45h-20.45v-20.45z"/>
							</g>
							<g id="&lt;Group&gt;">
								<path id="&lt;Path&gt;" class="s2" d="m670.78 393.15v20.44h-20.45v-20.44z"/>
							</g>
							<g id="&lt;Group&gt;">
								<path id="&lt;Path&gt;" class="s2" d="m650.33 331.81v20.45h-20.44v-20.45z"/>
							</g>
							<g id="&lt;Group&gt;">
								<path id="&lt;Path&gt;" class="s2" d="m629.89 311.37v20.44h-20.45v-20.44z"/>
							</g>
							<g id="&lt;Group&gt;">
								<path id="&lt;Path&gt;" class="s2" d="m609.44 331.81v20.45h-20.44v-20.45z"/>
							</g>
							<g id="&lt;Group&gt;">
								<path id="&lt;Path&gt;" class="s2" d="m589 352.26v20.44h-20.45v-20.44z"/>
							</g>
							<g id="&lt;Group&gt;">
								<path id="&lt;Path&gt;" class="s2" d="m568.55 372.7v20.45h-20.44v-20.45z"/>
							</g>
							<g id="&lt;Group&gt;">
								<path id="&lt;Path&gt;" class="s2" d="m650.33 352.26v20.44h-20.44v-20.44z"/>
							</g>
							<g id="&lt;Group&gt;">
								<path id="&lt;Path&gt;" class="s2" d="m711.67 413.59v20.45h-20.45v-20.45z"/>
							</g>
							<g id="&lt;Group&gt;">
								<path id="&lt;Path&gt;" class="s2" d="m691.22 413.59v20.45h-20.44v-20.45z"/>
							</g>
						</g>
					</g>
					<g id="&lt;Group&gt;" style="opacity: .31;mix-blend-mode: screen">
						<g id="&lt;Group&gt;">
							<g id="&lt;Group&gt;">
								<path id="&lt;Path&gt;" class="s3" d="m568.55 86.49v20.45h-20.44v-20.45z"/>
							</g>
							<g id="&lt;Group&gt;">
								<path id="&lt;Path&gt;" class="s3" d="m589 106.94v20.44h-20.45v-20.44z"/>
							</g>
							<g id="&lt;Group&gt;">
								<path id="&lt;Path&gt;" class="s3" d="m609.44 127.38v20.45h-20.44v-20.45z"/>
							</g>
							<g id="&lt;Group&gt;">
								<path id="&lt;Path&gt;" class="s3" d="m629.89 147.83v20.44h-20.45v-20.44z"/>
							</g>
							<g id="&lt;Group&gt;">
								<path id="&lt;Path&gt;" class="s3" d="m650.33 168.27v20.45h-20.44v-20.45z"/>
							</g>
							<g id="&lt;Group&gt;">
								<path id="&lt;Path&gt;" class="s3" d="m670.78 188.72v20.44h-20.45v-20.44z"/>
							</g>
							<g id="&lt;Group&gt;">
								<path id="&lt;Path&gt;" class="s3" d="m691.22 209.16v20.45h-20.44v-20.45z"/>
							</g>
							<g id="&lt;Group&gt;">
								<path id="&lt;Path&gt;" class="s3" d="m711.67 229.61v20.44h-20.45v-20.44z"/>
							</g>
							<g id="&lt;Group&gt;">
								<path id="&lt;Path&gt;" class="s3" d="m732.11 250.05v20.45h-20.44v-20.45z"/>
							</g>
						</g>
					</g>
				</g>
			</g>
		</g>
	</g>
</svg>