<svg version="1.2" xmlns="http://www.w3.org/2000/svg" viewBox="0 63.99999999999999 1300 369" width="1300" height="370">
	<style>
		.s0 { fill: #f22259 } 
		.s1 { fill: #000600 } 
		.s2 { fill: #cc366f } 
		.s3 { fill: #ffffff } 
	</style>
	<g id="Layer 1">
		<g id="&lt;Group&gt;">
			<g id="&lt;Group&gt;">
				<g id="&lt;Group&gt;">
					<g id="&lt;Group&gt;">
						<path id="&lt;Path&gt;" class="s0" d="m1164.71 97.62l67.64 33.82 33.83 67.65v101.46l-33.83 67.65-67.64 33.82h-1029.24l-67.64-33.82-33.83-67.65v-101.46l33.83-67.65 67.64-33.82z"/>
					</g>
					<g id="&lt;Group&gt;">
						<g id="&lt;Group&gt;">
							<path id="&lt;Path&gt;" class="s1" d="m1164.71 63.8v33.82h-995.42v-33.82z"/>
						</g>
						<g id="&lt;Group&gt;">
							<path id="&lt;Path&gt;" class="s1" d="m1164.71 402.02v33.82h-995.42v-33.82z"/>
						</g>
						<g id="&lt;Group&gt;">
							<path id="&lt;Path&gt;" class="s1" d="m1198.53 97.62v33.82h-33.82v-33.82z"/>
						</g>
						<g id="&lt;Group&gt;">
							<path id="&lt;Path&gt;" class="s1" d="m1232.35 97.62v33.82h-33.82v-33.82z"/>
						</g>
						<g id="&lt;Group&gt;">
							<path id="&lt;Path&gt;" class="s1" d="m1198.53 368.2v33.82h-33.82v-33.82z"/>
						</g>
						<g id="&lt;Group&gt;">
							<path id="&lt;Path&gt;" class="s1" d="m1232.35 368.2v33.82h-33.82v-33.82z"/>
						</g>
						<g id="&lt;Group&gt;">
							<path id="&lt;Path&gt;" class="s1" d="m1266.18 131.44v33.82h-33.83v-33.82z"/>
						</g>
						<g id="&lt;Group&gt;">
							<path id="&lt;Path&gt;" class="s1" d="m1266.18 165.26v33.83h-33.83v-33.83z"/>
						</g>
						<g id="&lt;Group&gt;">
							<path id="&lt;Path&gt;" class="s1" d="m1266.18 300.55v33.82h-33.83v-33.82z"/>
						</g>
						<g id="&lt;Group&gt;">
							<path id="&lt;Path&gt;" class="s1" d="m1266.18 334.37v33.83h-33.83v-33.83z"/>
						</g>
						<g id="&lt;Group&gt;">
							<path id="&lt;Path&gt;" class="s1" d="m1300 199.09v33.82h-33.82v-33.82z"/>
						</g>
						<g id="&lt;Group&gt;">
							<path id="&lt;Path&gt;" class="s1" d="m1300 232.91v33.82h-33.82v-33.82z"/>
						</g>
						<g id="&lt;Group&gt;">
							<path id="&lt;Path&gt;" class="s1" d="m1300 266.73v33.82h-33.82v-33.82z"/>
						</g>
						<g id="&lt;Group&gt;">
							<path id="&lt;Path&gt;" class="s1" d="m169.29 402.02v33.82h-33.82v-33.82z"/>
						</g>
						<g id="&lt;Group&gt;">
							<path id="&lt;Path&gt;" class="s1" d="m169.29 63.8v33.82h-33.82v-33.82z"/>
						</g>
						<g id="&lt;Group&gt;">
							<path id="&lt;Path&gt;" class="s1" d="m135.47 368.2v33.82h-33.82v-33.82z"/>
						</g>
						<g id="&lt;Group&gt;">
							<path id="&lt;Path&gt;" class="s1" d="m101.65 368.2v33.82h-33.82v-33.82z"/>
						</g>
						<g id="&lt;Group&gt;">
							<path id="&lt;Path&gt;" class="s1" d="m135.47 97.62v33.82h-33.82v-33.82z"/>
						</g>
						<g id="&lt;Group&gt;">
							<path id="&lt;Path&gt;" class="s1" d="m101.65 131.44h-33.82v-33.82h33.82z"/>
						</g>
						<g id="&lt;Group&gt;">
							<path id="&lt;Path&gt;" class="s1" d="m67.83 334.37v33.83h-33.83v-33.83z"/>
						</g>
						<g id="&lt;Group&gt;">
							<path id="&lt;Path&gt;" class="s1" d="m67.83 300.55v33.82h-33.83v-33.82z"/>
						</g>
						<g id="&lt;Group&gt;">
							<path id="&lt;Path&gt;" class="s1" d="m67.83 165.26v33.83h-33.83v-33.83z"/>
						</g>
						<g id="&lt;Group&gt;">
							<path id="&lt;Path&gt;" class="s1" d="m67.83 131.44v33.82h-33.83v-33.82z"/>
						</g>
						<g id="&lt;Group&gt;">
							<path id="&lt;Path&gt;" class="s1" d="m34 266.73v33.82h-33.82v-33.82z"/>
						</g>
						<g id="&lt;Group&gt;" style="opacity: .46;mix-blend-mode: multiply">
							<g id="&lt;Group&gt;">
								<g id="&lt;Group&gt;">
									<path id="&lt;Path&gt;" class="s2" d="m1164.71 368.2v33.82h-995.42v-33.82z"/>
								</g>
								<g id="&lt;Group&gt;">
									<path id="&lt;Path&gt;" class="s2" d="m1198.53 334.37v33.83h-33.82v-33.83z"/>
								</g>
								<g id="&lt;Group&gt;">
									<path id="&lt;Path&gt;" class="s2" d="m1232.35 334.37v33.83h-33.82v-33.83z"/>
								</g>
								<g id="&lt;Group&gt;">
									<path id="&lt;Path&gt;" class="s2" d="m1266.18 266.73v33.82h-33.83v-33.82z"/>
								</g>
								<g id="&lt;Group&gt;">
									<path id="&lt;Path&gt;" class="s2" d="m1266.18 300.55v33.82h-33.83v-33.82z"/>
								</g>
								<g id="&lt;Group&gt;">
									<path id="&lt;Path&gt;" class="s2" d="m1300 232.91v33.82h-33.82v-33.82z"/>
								</g>
								<g id="&lt;Group&gt;">
									<path id="&lt;Path&gt;" class="s2" d="m169.29 368.2v33.82h-33.82v-33.82z"/>
								</g>
								<g id="&lt;Group&gt;">
									<path id="&lt;Path&gt;" class="s2" d="m135.47 334.37v33.83h-33.82v-33.83z"/>
								</g>
								<g id="&lt;Group&gt;">
									<path id="&lt;Path&gt;" class="s2" d="m101.65 368.2h-33.82v-33.83h33.82z"/>
								</g>
								<g id="&lt;Group&gt;">
									<path id="&lt;Path&gt;" class="s2" d="m67.83 300.55v33.82h-33.83v-33.82z"/>
								</g>
								<g id="&lt;Group&gt;">
									<path id="&lt;Path&gt;" class="s2" d="m67.83 266.73v33.82h-33.83v-33.82z"/>
								</g>
								<g id="&lt;Group&gt;">
									<path id="&lt;Path&gt;" class="s2" d="m34 232.91v33.82h-33.82v-33.82z"/>
								</g>
							</g>
							<g id="&lt;Group&gt;">
								<g id="&lt;Group&gt;">
									<path id="&lt;Path&gt;" class="s2" d="m1164.71 334.37v33.83h-995.42v-33.83z"/>
								</g>
								<g id="&lt;Group&gt;">
									<path id="&lt;Path&gt;" class="s2" d="m1198.53 300.55v33.82h-33.82v-33.82z"/>
								</g>
								<g id="&lt;Group&gt;">
									<path id="&lt;Path&gt;" class="s2" d="m1232.35 300.55v33.82h-33.82v-33.82z"/>
								</g>
								<g id="&lt;Group&gt;">
									<path id="&lt;Path&gt;" class="s2" d="m1266.18 266.73v33.82h-33.83v-33.82z"/>
								</g>
								<g id="&lt;Group&gt;">
									<path id="&lt;Path&gt;" class="s2" d="m1266.18 232.91v33.82h-33.83v-33.82z"/>
								</g>
								<g id="&lt;Group&gt;">
									<path id="&lt;Path&gt;" class="s2" d="m1266.18 199.09v33.82h-33.83v-33.82z"/>
								</g>
								<g id="&lt;Group&gt;">
									<path id="&lt;Path&gt;" class="s2" d="m169.29 334.37v33.83h-33.82v-33.83z"/>
								</g>
								<g id="&lt;Group&gt;">
									<path id="&lt;Path&gt;" class="s2" d="m135.47 300.55v33.82h-33.82v-33.82z"/>
								</g>
								<g id="&lt;Group&gt;">
									<path id="&lt;Path&gt;" class="s2" d="m101.65 300.55v33.82h-33.82v-33.82z"/>
								</g>
								<g id="&lt;Group&gt;">
									<path id="&lt;Path&gt;" class="s2" d="m67.83 266.73v33.82h-33.83v-33.82z"/>
								</g>
							</g>
						</g>
						<g id="&lt;Group&gt;" style="opacity: .31;mix-blend-mode: screen">
							<g id="&lt;Group&gt;">
								<g id="&lt;Group&gt;">
									<g id="&lt;Group&gt;">
										<path id="&lt;Path&gt;" class="s3" d="m1130.89 98.02v33.82h-995.42v-33.82z"/>
									</g>
									<g id="&lt;Group&gt;">
										<path id="&lt;Path&gt;" class="s3" d="m135.47 131.84v33.83h-33.82v-33.83z"/>
									</g>
									<g id="&lt;Group&gt;">
										<path id="&lt;Path&gt;" class="s3" d="m169.29 131.84v33.83h-33.82v-33.83z"/>
									</g>
									<g id="&lt;Group&gt;">
										<path id="&lt;Path&gt;" class="s3" d="m101.65 131.84v33.83h-33.82v-33.83z"/>
									</g>
									<g id="&lt;Group&gt;">
										<path id="&lt;Path&gt;" class="s3" d="m1164.71 98.02v33.82h-33.82v-33.82z"/>
									</g>
									<g id="&lt;Group&gt;">
										<path id="&lt;Path&gt;" class="s3" d="m1164.71 131.44v33.82h-33.82v-33.82z"/>
									</g>
									<g id="&lt;Group&gt;">
										<path id="&lt;Path&gt;" class="s3" d="m1198.53 131.84v33.83h-33.82v-33.83z"/>
									</g>
									<g id="&lt;Group&gt;">
										<path id="&lt;Path&gt;" class="s3" d="m1232.35 131.84v33.83h-33.82v-33.83z"/>
									</g>
								</g>
								<g id="&lt;Group&gt;">
									<g id="&lt;Group&gt;">
										<path id="&lt;Path&gt;" class="s3" d="m101.65 165.67v33.82h-33.82v-33.82z"/>
									</g>
									<g id="&lt;Group&gt;">
										<path id="&lt;Path&gt;" class="s3" d="m1232.35 165.67v33.82h-33.82v-33.82z"/>
									</g>
								</g>
							</g>
						</g>
						<g id="&lt;Group&gt;">
							<path id="&lt;Path&gt;" class="s1" d="m34 232.91v33.82h-33.82v-33.82z"/>
						</g>
						<g id="&lt;Group&gt;">
							<path id="&lt;Path&gt;" class="s1" d="m34 199.09v33.82h-33.82v-33.82z"/>
						</g>
					</g>
					<g id="&lt;Group&gt;">
						<path id="&lt;Path&gt;" class="s3" d="m203.12 131.84v33.83h-33.83v-33.83z"/>
					</g>
					<g id="&lt;Group&gt;">
						<path id="&lt;Path&gt;" class="s3" d="m169.49 165.46v33.83h-33.82v-33.83z"/>
					</g>
					<g id="&lt;Group&gt;">
						<path id="&lt;Path&gt;" class="s3" d="m135.47 165.46v33.83h-33.82v-33.83z"/>
					</g>
				</g>
				<g id="&lt;Group&gt;">
					<g id="&lt;Group&gt;">
					</g>
				</g>
			</g>
		</g>
	</g>
</svg>