<svg version="1.2" xmlns="http://www.w3.org/2000/svg" viewBox="751 45 222.00000000000023 98" width="223" height="98">
	<style>
		.s0 { fill: #9a43ff } 
		.s1 { fill: #ffffff } 
		.s2 { fill: #7b2ee8 } 
		.s3 { fill: #000600 } 
	</style>
	<g id="Layer 1">
		<g id="&lt;Group&gt;">
			<g id="&lt;Group&gt;">
				<g id="&lt;Group&gt;">
					<g id="&lt;Group&gt;">
						<path id="&lt;Path&gt;" class="s0" d="m782.05 50.63h160.63l12.33 6.16 6.16 6.16 6.17 12.33v36.97l-6.17 12.33-6.16 6.16-12.32 6.16h-160.64l-12.32-6.16-6.16-6.16-6.17-12.33v-36.97l6.17-12.33 6.16-6.16z"/>
					</g>
					<g id="&lt;Group&gt;">
						<g id="&lt;Group&gt;">
							<path id="&lt;Path&gt;" class="s1" d="m955.01 118.42h-6.16v-6.17h6.16z"/>
						</g>
						<g id="&lt;Group&gt;">
							<path id="&lt;Path&gt;" class="s1" d="m955.01 112.25h-6.16v-6.16h6.16z"/>
						</g>
						<g id="&lt;Group&gt;">
							<path id="&lt;Path&gt;" class="s1" d="m948.85 118.42h-6.17v-6.17h6.17z"/>
						</g>
						<g id="&lt;Group&gt;">
							<path id="&lt;Path&gt;" class="s1" d="m942.68 124.58h-6.16v-6.16h6.16z"/>
						</g>
						<g id="&lt;Group&gt;">
							<path id="&lt;Path&gt;" class="s1" d="m936.52 124.58h-6.16v-6.16h6.16z"/>
						</g>
					</g>
					<g id="&lt;Group&gt;" style="opacity: .25;mix-blend-mode: screen">
						<g id="&lt;Group&gt;">
							<g id="&lt;Group&gt;">
								<g id="&lt;Group&gt;">
									<g id="&lt;Group&gt;">
										<path id="&lt;Path&gt;" class="s1" d="m769.73 56.79h6.16v6.16h-6.16z"/>
									</g>
									<g id="&lt;Group&gt;">
										<path id="&lt;Path&gt;" class="s1" d="m763.57 62.95h6.16v6.17h-6.16z"/>
									</g>
									<g id="&lt;Group&gt;">
										<path id="&lt;Path&gt;" class="s1" d="m775.89 56.79h6.16v6.16h-6.16z"/>
									</g>
									<g id="&lt;Group&gt;">
										<path id="&lt;Path&gt;" class="s1" d="m782.05 50.63h6.17v6.16h-6.17z"/>
									</g>
									<g id="&lt;Group&gt;">
										<path id="&lt;Path&gt;" class="s1" d="m961.17 69.12h-6.16v-6.17h6.16z"/>
									</g>
									<g id="&lt;Group&gt;">
										<path id="&lt;Path&gt;" class="s1" d="m955.01 62.95h-6.16v-6.16h6.16z"/>
									</g>
									<g id="&lt;Group&gt;">
										<path id="&lt;Path&gt;" class="s1" d="m948.85 62.95h-6.17v-6.16h6.17z"/>
									</g>
									<g id="&lt;Group&gt;">
										<path id="&lt;Path&gt;" class="s1" d="m942.68 56.79h-6.16v-6.16h6.16z"/>
									</g>
									<g id="&lt;Group&gt;">
										<path id="&lt;Path&gt;" class="s1" d="m936.52 56.79h-148.3v-6.16h148.3z"/>
									</g>
								</g>
							</g>
							<g id="&lt;Group&gt;">
								<g id="&lt;Group&gt;">
									<path id="&lt;Path&gt;" class="s1" d="m955.01 124.58h-6.16v-6.16h6.16z"/>
								</g>
								<g id="&lt;Group&gt;">
									<path id="&lt;Path&gt;" class="s1" d="m948.85 124.58h-6.17v-6.16h6.17z"/>
								</g>
								<g id="&lt;Group&gt;">
									<path id="&lt;Path&gt;" class="s1" d="m942.68 130.74h-6.16v-6.16h6.16z"/>
								</g>
								<g id="&lt;Group&gt;">
									<path id="&lt;Path&gt;" class="s1" d="m769.73 118.42h6.16v6.16h-6.16z"/>
								</g>
								<g id="&lt;Group&gt;">
									<path id="&lt;Path&gt;" class="s1" d="m775.89 118.42h6.16v6.16h-6.16z"/>
								</g>
								<g id="&lt;Group&gt;">
									<path id="&lt;Path&gt;" class="s1" d="m782.05 124.58h6.17v6.16h-6.17z"/>
								</g>
								<path id="&lt;Path&gt;" class="s1" d="m788.22 124.58h148.3v6.16h-148.3z"/>
							</g>
						</g>
					</g>
					<g id="&lt;Group&gt;" style="opacity: .43;mix-blend-mode: multiply">
						<g id="&lt;Group&gt;">
							<g id="&lt;Group&gt;">
								<g id="&lt;Group&gt;">
									<g id="&lt;Group&gt;">
										<path id="&lt;Path&gt;" class="s2" d="m769.73 63.03h6.16v6.16h-6.16z"/>
									</g>
									<g id="&lt;Group&gt;">
										<path id="&lt;Path&gt;" class="s2" d="m763.57 69.19h6.16v6.16h-6.16z"/>
									</g>
									<g id="&lt;Group&gt;">
										<path id="&lt;Path&gt;" class="s2" d="m763.57 75.35h6.16v6.16h-6.16z"/>
									</g>
									<g id="&lt;Group&gt;">
										<path id="&lt;Path&gt;" class="s2" d="m757.4 75.35h6.17v6.16h-6.17z"/>
									</g>
									<g id="&lt;Group&gt;">
										<path id="&lt;Path&gt;" class="s2" d="m757.4 81.51h6.17v6.17h-6.17z"/>
									</g>
									<g id="&lt;Group&gt;">
										<path id="&lt;Path&gt;" class="s2" d="m775.89 63.03h6.16v6.16h-6.16z"/>
									</g>
									<g id="&lt;Group&gt;">
										<path id="&lt;Path&gt;" class="s2" d="m782.05 56.86h6.17v6.17h-6.17z"/>
									</g>
									<g id="&lt;Group&gt;">
										<path id="&lt;Path&gt;" class="s2" d="m961.17 75.35h-6.16v-6.16h6.16z"/>
									</g>
									<g id="&lt;Group&gt;">
										<path id="&lt;Path&gt;" class="s2" d="m967.34 87.68h-6.17v-6.17h6.17z"/>
									</g>
									<g id="&lt;Group&gt;">
										<path id="&lt;Path&gt;" class="s2" d="m967.34 81.51h-6.17v-6.16h6.17z"/>
									</g>
									<g id="&lt;Group&gt;">
										<path id="&lt;Path&gt;" class="s2" d="m955.01 69.19h-6.16v-6.16h6.16z"/>
									</g>
									<g id="&lt;Group&gt;">
										<path id="&lt;Path&gt;" class="s2" d="m948.85 69.19h-6.17v-6.16h6.17z"/>
									</g>
									<g id="&lt;Group&gt;">
										<path id="&lt;Path&gt;" class="s2" d="m942.68 63.03h-6.16v-6.17h6.16z"/>
									</g>
									<path id="&lt;Path&gt;" class="s2" d="m936.52 63.03h-148.3v-6.17h148.3z"/>
								</g>
							</g>
							<g id="&lt;Group&gt;">
								<g id="&lt;Group&gt;">
									<g id="&lt;Group&gt;">
										<path id="&lt;Path&gt;" class="s2" d="m955.01 130.74h-6.16v-6.16h6.16z"/>
									</g>
									<g id="&lt;Group&gt;">
										<path id="&lt;Path&gt;" class="s2" d="m961.17 124.58h-6.16v-6.16h6.16z"/>
									</g>
									<g id="&lt;Group&gt;">
										<path id="&lt;Path&gt;" class="s2" d="m967.34 118.42h-6.17v-6.17h6.17z"/>
									</g>
									<g id="&lt;Group&gt;">
										<path id="&lt;Path&gt;" class="s2" d="m967.34 112.25h-6.17v-6.16h6.17z"/>
									</g>
									<g id="&lt;Group&gt;">
										<path id="&lt;Path&gt;" class="s2" d="m948.85 130.74h-6.17v-6.16h6.17z"/>
									</g>
									<g id="&lt;Group&gt;">
										<path id="&lt;Path&gt;" class="s2" d="m942.68 136.9h-6.16v-6.16h6.16z"/>
									</g>
									<g id="&lt;Group&gt;">
										<path id="&lt;Path&gt;" class="s2" d="m763.57 118.42h6.16v6.16h-6.16z"/>
									</g>
									<g id="&lt;Group&gt;">
										<path id="&lt;Path&gt;" class="s2" d="m961.17 118.42h-6.16v-6.17h6.16z"/>
									</g>
									<g id="&lt;Group&gt;">
										<path id="&lt;Path&gt;" class="s2" d="m763.57 112.25h6.16v6.17h-6.16z"/>
									</g>
									<g id="&lt;Group&gt;">
										<path id="&lt;Path&gt;" class="s2" d="m763.57 106.09h6.16v6.16h-6.16z"/>
									</g>
									<g id="&lt;Group&gt;">
										<path id="&lt;Path&gt;" class="s2" d="m955.01 75.35h6.16v6.16h-6.16z"/>
									</g>
									<g id="&lt;Group&gt;">
										<path id="&lt;Path&gt;" class="s2" d="m955.01 106.09h6.16v6.16h-6.16z"/>
									</g>
									<g id="&lt;Group&gt;">
										<path id="&lt;Path&gt;" class="s2" d="m757.4 106.09h6.17v6.16h-6.17z"/>
									</g>
									<g id="&lt;Group&gt;">
										<path id="&lt;Path&gt;" class="s2" d="m967.34 106.09h-6.17v-6.16h6.17z"/>
									</g>
									<g id="&lt;Group&gt;">
										<path id="&lt;Path&gt;" class="s2" d="m757.4 99.93h6.17v6.16h-6.17z"/>
									</g>
									<g id="&lt;Group&gt;">
										<path id="&lt;Path&gt;" class="s2" d="m967.34 99.93h-6.17v-6.16h6.17z"/>
									</g>
									<g id="&lt;Group&gt;">
										<path id="&lt;Path&gt;" class="s2" d="m757.4 93.77h6.17v6.16h-6.17z"/>
									</g>
									<g id="&lt;Group&gt;">
										<path id="&lt;Path&gt;" class="s2" d="m967.34 93.77h-6.17v-6.17h6.17z"/>
									</g>
									<g id="&lt;Group&gt;">
										<path id="&lt;Path&gt;" class="s2" d="m757.4 87.6h6.17v6.17h-6.17z"/>
									</g>
									<g id="&lt;Group&gt;">
										<path id="&lt;Path&gt;" class="s2" d="m757.4 112.25h6.17v6.17h-6.17z"/>
									</g>
									<g id="&lt;Group&gt;">
										<path id="&lt;Path&gt;" class="s2" d="m769.73 124.58h6.16v6.16h-6.16z"/>
									</g>
									<g id="&lt;Group&gt;">
										<path id="&lt;Path&gt;" class="s2" d="m775.89 124.58h6.16v6.16h-6.16z"/>
									</g>
									<g id="&lt;Group&gt;">
										<path id="&lt;Path&gt;" class="s2" d="m782.05 130.74h6.17v6.16h-6.17z"/>
									</g>
									<path id="&lt;Path&gt;" class="s2" d="m788.22 130.74h148.3v6.16h-148.3z"/>
								</g>
							</g>
						</g>
					</g>
					<g id="&lt;Group&gt;">
						<path id="&lt;Path&gt;" class="s3" d="m769.73 50.63h6.16v6.16h-6.16z"/>
					</g>
					<g id="&lt;Group&gt;">
						<path id="&lt;Path&gt;" class="s3" d="m763.57 56.79h6.16v6.16h-6.16z"/>
					</g>
					<g id="&lt;Group&gt;">
						<path id="&lt;Path&gt;" class="s3" d="m763.57 124.58h6.16v6.16h-6.16z"/>
					</g>
					<g id="&lt;Group&gt;">
						<path id="&lt;Path&gt;" class="s3" d="m757.4 62.95h6.17v6.17h-6.17z"/>
					</g>
					<g id="&lt;Group&gt;">
						<path id="&lt;Path&gt;" class="s3" d="m757.4 69.12h6.17v6.16h-6.17z"/>
					</g>
					<g id="&lt;Group&gt;">
						<path id="&lt;Path&gt;" class="s3" d="m757.4 112.25h6.17v6.17h-6.17z"/>
					</g>
					<g id="&lt;Group&gt;">
						<path id="&lt;Path&gt;" class="s3" d="m757.4 118.42h6.17v6.16h-6.17z"/>
					</g>
					<g id="&lt;Group&gt;">
						<path id="&lt;Path&gt;" class="s3" d="m751.24 75.28h6.16v6.16h-6.16z"/>
					</g>
					<g id="&lt;Group&gt;">
						<path id="&lt;Path&gt;" class="s3" d="m751.24 81.44h6.16v6.16h-6.16z"/>
					</g>
					<g id="&lt;Group&gt;">
						<path id="&lt;Path&gt;" class="s3" d="m751.24 87.6h6.16v6.17h-6.16z"/>
					</g>
					<g id="&lt;Group&gt;">
						<path id="&lt;Path&gt;" class="s3" d="m751.24 93.77h6.16v6.16h-6.16z"/>
					</g>
					<g id="&lt;Group&gt;">
						<path id="&lt;Path&gt;" class="s3" d="m751.24 99.93h6.16v6.16h-6.16z"/>
					</g>
					<g id="&lt;Group&gt;">
						<path id="&lt;Path&gt;" class="s3" d="m751.24 106.09h6.16v6.16h-6.16z"/>
					</g>
					<g id="&lt;Group&gt;">
						<path id="&lt;Path&gt;" class="s3" d="m775.89 50.63h6.16v6.16h-6.16z"/>
					</g>
					<g id="&lt;Group&gt;">
						<path id="&lt;Path&gt;" class="s3" d="m769.73 130.74h6.16v6.16h-6.16z"/>
					</g>
					<g id="&lt;Group&gt;">
						<path id="&lt;Path&gt;" class="s3" d="m775.89 130.74h6.16v6.16h-6.16z"/>
					</g>
					<g id="&lt;Group&gt;">
						<path id="&lt;Path&gt;" class="s3" d="m782.05 44.47h6.17v6.16h-6.17z"/>
					</g>
					<g id="&lt;Group&gt;">
						<path id="&lt;Path&gt;" class="s3" d="m782.05 136.9h6.17v6.17h-6.17z"/>
					</g>
					<g id="&lt;Group&gt;">
						<path id="&lt;Path&gt;" class="s3" d="m955.01 136.9h-6.16v-6.16h6.16z"/>
					</g>
					<g id="&lt;Group&gt;">
						<path id="&lt;Path&gt;" class="s3" d="m961.17 130.74h-6.16v-6.16h6.16z"/>
					</g>
					<g id="&lt;Group&gt;">
						<path id="&lt;Path&gt;" class="s3" d="m961.17 62.95h-6.16v-6.16h6.16z"/>
					</g>
					<g id="&lt;Group&gt;">
						<path id="&lt;Path&gt;" class="s3" d="m967.34 124.58h-6.17v-6.16h6.17z"/>
					</g>
					<g id="&lt;Group&gt;">
						<path id="&lt;Path&gt;" class="s3" d="m967.34 118.42h-6.17v-6.17h6.17z"/>
					</g>
					<g id="&lt;Group&gt;">
						<path id="&lt;Path&gt;" class="s3" d="m967.34 75.28h-6.17v-6.16h6.17z"/>
					</g>
					<g id="&lt;Group&gt;">
						<path id="&lt;Path&gt;" class="s3" d="m967.34 69.12h-6.17v-6.17h6.17z"/>
					</g>
					<g id="&lt;Group&gt;">
						<path id="&lt;Path&gt;" class="s3" d="m973.5 112.25h-6.16v-6.16h6.16z"/>
					</g>
					<g id="&lt;Group&gt;">
						<path id="&lt;Path&gt;" class="s3" d="m973.5 106.09h-6.16v-6.16h6.16z"/>
					</g>
					<g id="&lt;Group&gt;">
						<path id="&lt;Path&gt;" class="s3" d="m973.5 99.93h-6.16v-6.16h6.16z"/>
					</g>
					<g id="&lt;Group&gt;">
						<path id="&lt;Path&gt;" class="s3" d="m973.5 93.77h-6.16v-6.17h6.16z"/>
					</g>
					<g id="&lt;Group&gt;">
						<path id="&lt;Path&gt;" class="s3" d="m973.5 87.6h-6.16v-6.16h6.16z"/>
					</g>
					<g id="&lt;Group&gt;">
						<path id="&lt;Path&gt;" class="s3" d="m973.5 81.44h-6.16v-6.16h6.16z"/>
					</g>
					<g id="&lt;Group&gt;">
						<path id="&lt;Path&gt;" class="s3" d="m948.85 136.9h-6.16l-0.01-6.16h6.17z"/>
					</g>
					<g id="&lt;Group&gt;">
						<path id="&lt;Path&gt;" class="s3" d="m955.01 56.79h-6.16v-6.16h6.16z"/>
					</g>
					<g id="&lt;Group&gt;">
						<path id="&lt;Path&gt;" class="s3" d="m948.85 56.79h-6.17v-6.16h6.17z"/>
					</g>
					<g id="&lt;Group&gt;">
						<path id="&lt;Path&gt;" class="s3" d="m942.69 143.07h-6.17v-6.17h6.17z"/>
					</g>
					<g id="&lt;Group&gt;">
						<path id="&lt;Path&gt;" class="s3" d="m942.68 50.63h-6.16v-6.16h6.16z"/>
					</g>
					<path id="&lt;Path&gt;" class="s3" d="m936.52 50.63h-148.3v-6.16h148.3z"/>
					<path id="&lt;Path&gt;" class="s3" d="m936.52 143.07h-148.3v-6.17h148.3z"/>
				</g>
				<g id="&lt;Group&gt;">
					<g id="&lt;Group&gt;">
					</g>
				</g>
			</g>
		</g>
	</g>
</svg>