<svg version="1.2" xmlns="http://www.w3.org/2000/svg" viewBox="585 64 130 128" width="130" height="128">
	<style>
		.s0 { fill: #000600 } 
		.s1 { fill: #9a43ff } 
		.s2 { fill: #7b2ee8 } 
		.s3 { fill: #f22259 } 
		.s4 { fill: #cc366f } 
		.s5 { fill: #ffc627 } 
		.s6 { fill: #ff9a15 } 
		.s7 { fill: #2ebfff } 
		.s8 { fill: #25a4f2 } 
	</style>
	<g id="Layer 1">
		<g id="&lt;Group&gt;">
			<g id="&lt;Group&gt;">
				<g id="&lt;Group&gt;">
					<g id="&lt;Group&gt;">
						<g id="&lt;Group&gt;">
							<path id="&lt;Path&gt;" class="s0" d="m675.76 75.11v13.02h-13.03v-13.02z"/>
						</g>
						<g id="&lt;Group&gt;">
							<path id="&lt;Path&gt;" class="s0" d="m636.68 75.11v13.02h-13.02v-13.02z"/>
						</g>
						<g id="&lt;Group&gt;">
							<path id="&lt;Path&gt;" class="s0" d="m662.73 75.11v-13.03h-13.02v13.03z"/>
						</g>
						<g id="&lt;Group&gt;">
							<path id="&lt;Path&gt;" class="s0" d="m649.71 75.11v-13.03h-13.03v13.03z"/>
						</g>
						<g id="&lt;Group&gt;">
							<path id="&lt;Path&gt;" class="s1" d="m649.71 75.11v13.02h-13.03v-13.02z"/>
						</g>
						<g id="&lt;Group&gt;">
							<path id="&lt;Path&gt;" class="s1" d="m649.71 88.13v13.02h-13.03v-13.02z"/>
						</g>
						<g id="&lt;Group&gt;">
							<path id="&lt;Path&gt;" class="s1" d="m649.71 101.15v13.03h-13.03v-13.03z"/>
						</g>
						<g id="&lt;Group&gt;">
							<path id="&lt;Path&gt;" class="s1" d="m649.71 127.2v-13.02h-13.03v13.02z"/>
						</g>
						<g id="&lt;Group&gt;">
							<path id="&lt;Path&gt;" class="s1" d="m649.71 127.2v13.03h-13.03v-13.03z"/>
						</g>
						<g id="&lt;Group&gt;">
							<path id="&lt;Path&gt;" class="s1" d="m649.71 140.23v13.02h-13.03v-13.02z"/>
						</g>
						<g id="&lt;Group&gt;">
							<path id="&lt;Path&gt;" class="s1" d="m649.71 166.27v-13.02h-13.03v13.02z"/>
						</g>
						<g id="&lt;Group&gt;">
							<path id="&lt;Path&gt;" class="s1" d="m649.71 166.27v13.03h-13.03v-13.03z"/>
						</g>
						<g id="&lt;Group&gt;">
							<path id="&lt;Path&gt;" class="s1" d="m636.68 88.13v13.02h-13.02v-13.02z"/>
						</g>
						<g id="&lt;Group&gt;">
							<path id="&lt;Path&gt;" class="s1" d="m636.68 101.15v13.03h-13.02v-13.03z"/>
						</g>
						<g id="&lt;Group&gt;">
							<path id="&lt;Path&gt;" class="s1" d="m636.68 127.2v-13.02h-13.02v13.02z"/>
						</g>
						<g id="&lt;Group&gt;">
							<path id="&lt;Path&gt;" class="s1" d="m623.66 101.15v13.03h-13.02v-13.03z"/>
						</g>
						<g id="&lt;Group&gt;">
							<path id="&lt;Path&gt;" class="s1" d="m623.66 127.2v-13.02h-13.02v13.02z"/>
						</g>
						<g id="&lt;Group&gt;">
							<path id="&lt;Path&gt;" class="s1" d="m610.64 127.2v-13.02h-13.03v13.02z"/>
						</g>
						<g id="&lt;Group&gt;">
							<path id="&lt;Path&gt;" class="s1" d="m636.68 127.2v13.03h-13.02v-13.03z"/>
						</g>
						<g id="&lt;Group&gt;">
							<path id="&lt;Path&gt;" class="s1" d="m636.68 140.23v13.02h-13.02v-13.02z"/>
						</g>
						<g id="&lt;Group&gt;">
							<path id="&lt;Path&gt;" class="s1" d="m636.68 166.27v-13.02h-13.02v13.02z"/>
						</g>
						<g id="&lt;Group&gt;">
							<path id="&lt;Path&gt;" class="s1" d="m636.68 166.27v13.03h-13.02v-13.03z"/>
						</g>
						<g id="&lt;Group&gt;">
							<path id="&lt;Path&gt;" class="s1" d="m662.73 75.11v13.02h-13.02v-13.02z"/>
						</g>
						<g id="&lt;Group&gt;">
							<path id="&lt;Path&gt;" class="s1" d="m662.73 88.13v13.02h-13.02v-13.02z"/>
						</g>
						<g id="&lt;Group&gt;">
							<path id="&lt;Path&gt;" class="s1" d="m662.73 101.15v13.03h-13.02v-13.03z"/>
						</g>
						<g id="&lt;Group&gt;">
							<path id="&lt;Path&gt;" class="s1" d="m662.73 127.2v-13.02h-13.02v13.02z"/>
						</g>
						<g id="&lt;Group&gt;">
							<path id="&lt;Path&gt;" class="s1" d="m662.73 127.2v13.03h-13.02v-13.03z"/>
						</g>
						<g id="&lt;Group&gt;">
							<path id="&lt;Path&gt;" class="s1" d="m662.73 140.23v13.02h-13.02v-13.02z"/>
						</g>
						<g id="&lt;Group&gt;">
							<path id="&lt;Path&gt;" class="s1" d="m662.73 166.27v-13.02h-13.02v13.02z"/>
						</g>
						<g id="&lt;Group&gt;">
							<path id="&lt;Path&gt;" class="s1" d="m662.73 166.27v13.03h-13.02v-13.03z"/>
						</g>
						<g id="&lt;Group&gt;">
							<path id="&lt;Path&gt;" class="s1" d="m675.76 88.13v13.02h-13.03v-13.02z"/>
						</g>
						<g id="&lt;Group&gt;">
							<path id="&lt;Path&gt;" class="s1" d="m675.76 101.15v13.03h-13.03v-13.03z"/>
						</g>
						<g id="&lt;Group&gt;">
							<path id="&lt;Path&gt;" class="s1" d="m675.76 127.2v-13.02h-13.03v13.02z"/>
						</g>
						<g id="&lt;Group&gt;">
							<path id="&lt;Path&gt;" class="s1" d="m688.78 101.15v13.03h-13.02v-13.03z"/>
						</g>
						<g id="&lt;Group&gt;">
							<path id="&lt;Path&gt;" class="s1" d="m688.78 127.2v-13.02h-13.02v13.02z"/>
						</g>
						<g id="&lt;Group&gt;">
							<path id="&lt;Path&gt;" class="s1" d="m701.81 127.2v-13.02h-13.03v13.02z"/>
						</g>
						<g id="&lt;Group&gt;">
							<path id="&lt;Path&gt;" class="s1" d="m675.76 127.2v13.03h-13.03v-13.03z"/>
						</g>
						<g id="&lt;Group&gt;">
							<path id="&lt;Path&gt;" class="s1" d="m675.76 140.23v13.02h-13.03v-13.02z"/>
						</g>
						<g id="&lt;Group&gt;">
							<path id="&lt;Path&gt;" class="s1" d="m675.76 166.27v-13.02h-13.03v13.02z"/>
						</g>
						<g id="&lt;Group&gt;">
							<path id="&lt;Path&gt;" class="s1" d="m675.76 166.27v13.03h-13.03v-13.03z"/>
						</g>
						<g id="&lt;Group&gt;">
							<path id="&lt;Path&gt;" class="s0" d="m688.78 88.13v13.02h-13.02v-13.02z"/>
						</g>
						<g id="&lt;Group&gt;">
							<path id="&lt;Path&gt;" class="s0" d="m623.66 88.13v13.02h-13.02v-13.02z"/>
						</g>
						<g id="&lt;Group&gt;">
							<path id="&lt;Path&gt;" class="s0" d="m701.81 101.15v13.03h-13.03v-13.03z"/>
						</g>
						<g id="&lt;Group&gt;">
							<path id="&lt;Path&gt;" class="s0" d="m610.64 101.15v13.03h-13.03v-13.03z"/>
						</g>
						<g id="&lt;Group&gt;">
							<path id="&lt;Path&gt;" class="s0" d="m714.83 127.2v-13.02h-13.02v13.02z"/>
						</g>
						<g id="&lt;Group&gt;">
							<path id="&lt;Path&gt;" class="s0" d="m597.61 127.2v-13.02h-13.02v13.02z"/>
						</g>
						<g id="&lt;Group&gt;">
							<path id="&lt;Path&gt;" class="s0" d="m701.81 127.2v13.03h-13.03v-13.03z"/>
						</g>
						<g id="&lt;Group&gt;">
							<path id="&lt;Path&gt;" class="s0" d="m610.64 127.2v13.03h-13.03v-13.03z"/>
						</g>
						<g id="&lt;Group&gt;">
							<path id="&lt;Path&gt;" class="s1" d="m688.78 127.2v13.03h-13.02v-13.03z"/>
						</g>
						<g id="&lt;Group&gt;">
							<path id="&lt;Path&gt;" class="s0" d="m688.78 140.23v13.02h-13.02v-13.02z"/>
						</g>
						<g id="&lt;Group&gt;">
							<path id="&lt;Path&gt;" class="s0" d="m688.78 166.27v-13.02h-13.02v13.02z"/>
						</g>
						<g id="&lt;Group&gt;">
							<path id="&lt;Path&gt;" class="s0" d="m688.78 166.27v13.03h-13.02v-13.03z"/>
						</g>
						<g id="&lt;Group&gt;">
							<path id="&lt;Path&gt;" class="s0" d="m675.76 179.3v13.02h-13.03v-13.02z"/>
						</g>
						<g id="&lt;Group&gt;">
							<path id="&lt;Path&gt;" class="s0" d="m662.73 179.3v13.02h-13.02v-13.02z"/>
						</g>
						<g id="&lt;Group&gt;">
							<path id="&lt;Path&gt;" class="s0" d="m649.71 179.3v13.02h-13.03v-13.02z"/>
						</g>
						<g id="&lt;Group&gt;">
							<path id="&lt;Path&gt;" class="s0" d="m636.68 179.3v13.02h-13.02v-13.02z"/>
						</g>
						<g id="&lt;Group&gt;">
							<path id="&lt;Path&gt;" class="s0" d="m623.66 140.23v13.02h-13.02v-13.02z"/>
						</g>
						<g id="&lt;Group&gt;">
							<path id="&lt;Path&gt;" class="s1" d="m623.66 127.2v13.03h-13.02v-13.03z"/>
						</g>
						<g id="&lt;Group&gt;">
							<path id="&lt;Path&gt;" class="s0" d="m623.66 166.27v-13.02h-13.02v13.02z"/>
						</g>
						<g id="&lt;Group&gt;">
							<path id="&lt;Path&gt;" class="s0" d="m623.66 166.27v13.03h-13.02v-13.03z"/>
						</g>
					</g>
					<g id="&lt;Group&gt;" style="opacity: .43;mix-blend-mode: multiply">
						<g id="&lt;Group&gt;">
							<g id="&lt;Group&gt;">
								<path id="&lt;Path&gt;" class="s2" d="m649.71 166.27v13.03h-13.03v-13.03z"/>
							</g>
							<g id="&lt;Group&gt;">
								<path id="&lt;Path&gt;" class="s2" d="m636.68 166.27v13.03h-13.02v-13.03z"/>
							</g>
							<g id="&lt;Group&gt;">
								<path id="&lt;Path&gt;" class="s2" d="m662.73 75.11v13.02h-13.02v-13.02z"/>
							</g>
							<g id="&lt;Group&gt;">
								<path id="&lt;Path&gt;" class="s2" d="m662.73 166.27v-13.02h-13.02v13.02z"/>
							</g>
							<g id="&lt;Group&gt;">
								<path id="&lt;Path&gt;" class="s2" d="m662.73 166.27v13.03h-13.02v-13.03z"/>
							</g>
							<g id="&lt;Group&gt;">
								<path id="&lt;Path&gt;" class="s2" d="m675.76 88.13v13.02h-13.03v-13.02z"/>
							</g>
							<g id="&lt;Group&gt;">
								<path id="&lt;Path&gt;" class="s2" d="m688.78 101.15v13.03h-13.02v-13.03z"/>
							</g>
							<g id="&lt;Group&gt;">
								<path id="&lt;Path&gt;" class="s2" d="m688.78 127.2v-13.02h-13.02v13.02z"/>
							</g>
							<g id="&lt;Group&gt;">
								<path id="&lt;Path&gt;" class="s2" d="m701.81 127.2v-13.02h-13.03v13.02z"/>
							</g>
							<g id="&lt;Group&gt;">
								<path id="&lt;Path&gt;" class="s2" d="m675.76 127.2v13.03h-13.03v-13.03z"/>
							</g>
							<g id="&lt;Group&gt;">
								<path id="&lt;Path&gt;" class="s2" d="m675.76 140.23v13.02h-13.03v-13.02z"/>
							</g>
							<g id="&lt;Group&gt;">
								<path id="&lt;Path&gt;" class="s2" d="m675.76 166.27v-13.02h-13.03v13.02z"/>
							</g>
							<g id="&lt;Group&gt;">
								<path id="&lt;Path&gt;" class="s2" d="m675.76 166.27v13.03h-13.03v-13.03z"/>
							</g>
							<g id="&lt;Group&gt;">
								<path id="&lt;Path&gt;" class="s2" d="m688.78 127.2v13.03h-13.02v-13.03z"/>
							</g>
						</g>
					</g>
				</g>
				<g id="&lt;Group&gt;">
					<g id="&lt;Group&gt;">
						<g id="&lt;Group&gt;">
							<path id="&lt;Path&gt;" class="s0" d="m487.75 261v13.03h-13.03v-13.03z"/>
						</g>
						<g id="&lt;Group&gt;">
							<path id="&lt;Path&gt;" class="s0" d="m487.75 221.93v13.02h-13.03v-13.02z"/>
						</g>
						<g id="&lt;Group&gt;">
							<path id="&lt;Path&gt;" class="s0" d="m474.72 247.98v13.02h-13.02v-13.02z"/>
						</g>
						<g id="&lt;Group&gt;">
							<path id="&lt;Path&gt;" class="s0" d="m474.72 234.95v13.03h-13.02v-13.03z"/>
						</g>
						<g id="&lt;Group&gt;">
							<path id="&lt;Path&gt;" class="s3" d="m487.75 234.95v13.03h-13.03v-13.03z"/>
						</g>
						<g id="&lt;Group&gt;">
							<path id="&lt;Path&gt;" class="s3" d="m500.77 234.95v13.03h-13.02v-13.03z"/>
						</g>
						<g id="&lt;Group&gt;">
							<path id="&lt;Path&gt;" class="s3" d="m513.8 234.95v13.03h-13.03v-13.03z"/>
						</g>
						<g id="&lt;Group&gt;">
							<path id="&lt;Path&gt;" class="s3" d="m526.82 234.95v13.03h-13.02v-13.03z"/>
						</g>
						<g id="&lt;Group&gt;">
							<path id="&lt;Path&gt;" class="s3" d="m539.84 234.95v13.03h-13.02v-13.03z"/>
						</g>
						<g id="&lt;Group&gt;">
							<path id="&lt;Path&gt;" class="s3" d="m552.87 234.95v13.03h-13.03v-13.03z"/>
						</g>
						<g id="&lt;Group&gt;">
							<path id="&lt;Path&gt;" class="s3" d="m565.89 234.95v13.03h-13.02v-13.03z"/>
						</g>
						<g id="&lt;Group&gt;">
							<path id="&lt;Path&gt;" class="s3" d="m578.92 234.95v13.03h-13.03v-13.03z"/>
						</g>
						<g id="&lt;Group&gt;">
							<path id="&lt;Path&gt;" class="s3" d="m500.77 221.93v13.02h-13.02v-13.02z"/>
						</g>
						<g id="&lt;Group&gt;">
							<path id="&lt;Path&gt;" class="s3" d="m513.8 221.93v13.02h-13.03v-13.02z"/>
						</g>
						<g id="&lt;Group&gt;">
							<path id="&lt;Path&gt;" class="s3" d="m526.82 221.93v13.02h-13.02v-13.02z"/>
						</g>
						<g id="&lt;Group&gt;">
							<path id="&lt;Path&gt;" class="s3" d="m513.8 208.91v13.02h-13.03v-13.02z"/>
						</g>
						<g id="&lt;Group&gt;">
							<path id="&lt;Path&gt;" class="s3" d="m526.82 221.93h-13.02v-13.02h13.02z"/>
						</g>
						<g id="&lt;Group&gt;">
							<path id="&lt;Path&gt;" class="s3" d="m526.82 195.88v13.03h-13.02v-13.03z"/>
						</g>
						<g id="&lt;Group&gt;">
							<path id="&lt;Path&gt;" class="s3" d="m539.84 234.95h-13.02v-13.02h13.02z"/>
						</g>
						<g id="&lt;Group&gt;">
							<path id="&lt;Path&gt;" class="s3" d="m552.87 234.95h-13.03v-13.02h13.03z"/>
						</g>
						<g id="&lt;Group&gt;">
							<path id="&lt;Path&gt;" class="s3" d="m565.89 221.93v13.02h-13.02v-13.02z"/>
						</g>
						<g id="&lt;Group&gt;">
							<path id="&lt;Path&gt;" class="s3" d="m578.92 221.93v13.02h-13.03v-13.02z"/>
						</g>
						<g id="&lt;Group&gt;">
							<path id="&lt;Path&gt;" class="s3" d="m487.75 247.98v13.02h-13.03v-13.02z"/>
						</g>
						<g id="&lt;Group&gt;">
							<path id="&lt;Path&gt;" class="s3" d="m500.77 247.98v13.02h-13.02v-13.02z"/>
						</g>
						<g id="&lt;Group&gt;">
							<path id="&lt;Path&gt;" class="s3" d="m513.8 247.98v13.02h-13.03v-13.02z"/>
						</g>
						<g id="&lt;Group&gt;">
							<path id="&lt;Path&gt;" class="s3" d="m526.82 261h-13.02v-13.02h13.02z"/>
						</g>
						<g id="&lt;Group&gt;">
							<path id="&lt;Path&gt;" class="s3" d="m539.84 261h-13.02v-13.02h13.02z"/>
						</g>
						<g id="&lt;Group&gt;">
							<path id="&lt;Path&gt;" class="s3" d="m552.87 247.98v13.02h-13.03v-13.02z"/>
						</g>
						<g id="&lt;Group&gt;">
							<path id="&lt;Path&gt;" class="s3" d="m565.89 247.98v13.02h-13.02v-13.02z"/>
						</g>
						<g id="&lt;Group&gt;">
							<path id="&lt;Path&gt;" class="s3" d="m578.92 247.98v13.02h-13.03v-13.02z"/>
						</g>
						<g id="&lt;Group&gt;">
							<path id="&lt;Path&gt;" class="s3" d="m500.77 274.03h-13.02v-13.03h13.02z"/>
						</g>
						<g id="&lt;Group&gt;">
							<path id="&lt;Path&gt;" class="s3" d="m513.8 261v13.03h-13.03v-13.03z"/>
						</g>
						<g id="&lt;Group&gt;">
							<path id="&lt;Path&gt;" class="s3" d="m526.82 261v13.03h-13.02v-13.03z"/>
						</g>
						<g id="&lt;Group&gt;">
							<path id="&lt;Path&gt;" class="s3" d="m513.8 274.03v13.02h-13.03v-13.02z"/>
						</g>
						<g id="&lt;Group&gt;">
							<path id="&lt;Path&gt;" class="s3" d="m526.82 274.03v13.02h-13.02v-13.02z"/>
						</g>
						<g id="&lt;Group&gt;">
							<path id="&lt;Path&gt;" class="s3" d="m526.82 300.08h-13.02v-13.03h13.02z"/>
						</g>
						<g id="&lt;Group&gt;">
							<path id="&lt;Path&gt;" class="s3" d="m539.84 274.03h-13.02v-13.03h13.02z"/>
						</g>
						<g id="&lt;Group&gt;">
							<path id="&lt;Path&gt;" class="s3" d="m552.87 274.03h-13.03v-13.03h13.03z"/>
						</g>
						<g id="&lt;Group&gt;">
							<path id="&lt;Path&gt;" class="s3" d="m565.89 261v13.03h-13.02v-13.03z"/>
						</g>
						<g id="&lt;Group&gt;">
							<path id="&lt;Path&gt;" class="s3" d="m578.92 261v13.03h-13.03v-13.03z"/>
						</g>
						<g id="&lt;Group&gt;">
							<path id="&lt;Path&gt;" class="s0" d="m500.77 287.05h-13.02v-13.02h13.02z"/>
						</g>
						<g id="&lt;Group&gt;">
							<path id="&lt;Path&gt;" class="s0" d="m500.77 208.91v13.02h-13.02v-13.02z"/>
						</g>
						<g id="&lt;Group&gt;">
							<path id="&lt;Path&gt;" class="s0" d="m513.8 300.08h-13.03v-13.03h13.03z"/>
						</g>
						<g id="&lt;Group&gt;">
							<path id="&lt;Path&gt;" class="s0" d="m513.8 208.91h-13.03v-13.03h13.03z"/>
						</g>
						<g id="&lt;Group&gt;">
							<path id="&lt;Path&gt;" class="s0" d="m526.82 313.1h-13.02v-13.02h13.02z"/>
						</g>
						<g id="&lt;Group&gt;">
							<path id="&lt;Path&gt;" class="s0" d="m526.82 195.88h-13.02v-13.02h13.02z"/>
						</g>
						<g id="&lt;Group&gt;">
							<path id="&lt;Path&gt;" class="s0" d="m539.84 300.08h-13.02v-13.03h13.02z"/>
						</g>
						<g id="&lt;Group&gt;">
							<path id="&lt;Path&gt;" class="s0" d="m539.84 195.88v13.03h-13.02v-13.03z"/>
						</g>
						<g id="&lt;Group&gt;">
							<path id="&lt;Path&gt;" class="s3" d="m539.84 287.05h-13.02v-13.02h13.02z"/>
						</g>
						<g id="&lt;Group&gt;">
							<path id="&lt;Path&gt;" class="s0" d="m552.87 274.03v13.02h-13.03v-13.02z"/>
						</g>
						<g id="&lt;Group&gt;">
							<path id="&lt;Path&gt;" class="s0" d="m565.89 274.03v13.02h-13.02v-13.02z"/>
						</g>
						<g id="&lt;Group&gt;">
							<path id="&lt;Path&gt;" class="s0" d="m578.92 274.03v13.02h-13.03v-13.02z"/>
						</g>
						<g id="&lt;Group&gt;">
							<path id="&lt;Path&gt;" class="s0" d="m591.94 261v13.03h-13.02v-13.03z"/>
						</g>
						<g id="&lt;Group&gt;">
							<path id="&lt;Path&gt;" class="s0" d="m591.94 247.98v13.02h-13.02v-13.02z"/>
						</g>
						<g id="&lt;Group&gt;">
							<path id="&lt;Path&gt;" class="s0" d="m591.94 234.95v13.03h-13.02v-13.03z"/>
						</g>
						<g id="&lt;Group&gt;">
							<path id="&lt;Path&gt;" class="s0" d="m591.94 221.93v13.02h-13.02v-13.02z"/>
						</g>
						<g id="&lt;Group&gt;">
							<path id="&lt;Path&gt;" class="s0" d="m552.87 221.93h-13.03v-13.02h13.03z"/>
						</g>
						<g id="&lt;Group&gt;">
							<path id="&lt;Path&gt;" class="s3" d="m539.84 221.93h-13.02v-13.02h13.02z"/>
						</g>
						<g id="&lt;Group&gt;">
							<path id="&lt;Path&gt;" class="s0" d="m565.89 208.91v13.02h-13.02v-13.02z"/>
						</g>
						<g id="&lt;Group&gt;">
							<path id="&lt;Path&gt;" class="s0" d="m578.92 208.91v13.02h-13.03v-13.02z"/>
						</g>
					</g>
					<g id="&lt;Group&gt;" style="opacity: .46;mix-blend-mode: multiply">
						<g id="&lt;Group&gt;">
							<g id="&lt;Group&gt;">
								<path id="&lt;Path&gt;" class="s4" d="m578.92 234.95v13.03h-13.03v-13.03z"/>
							</g>
							<g id="&lt;Group&gt;">
								<path id="&lt;Path&gt;" class="s4" d="m578.92 221.93v13.02h-13.03v-13.02z"/>
							</g>
							<g id="&lt;Group&gt;">
								<path id="&lt;Path&gt;" class="s4" d="m487.75 247.98v13.02h-13.03v-13.02z"/>
							</g>
							<g id="&lt;Group&gt;">
								<path id="&lt;Path&gt;" class="s4" d="m565.89 247.98v13.02h-13.02v-13.02z"/>
							</g>
							<g id="&lt;Group&gt;">
								<path id="&lt;Path&gt;" class="s4" d="m578.92 247.98v13.02h-13.03v-13.02z"/>
							</g>
							<g id="&lt;Group&gt;">
								<path id="&lt;Path&gt;" class="s4" d="m500.77 274.03h-13.02v-13.03h13.02z"/>
							</g>
							<g id="&lt;Group&gt;">
								<path id="&lt;Path&gt;" class="s4" d="m513.8 274.03v13.02h-13.03v-13.02z"/>
							</g>
							<g id="&lt;Group&gt;">
								<path id="&lt;Path&gt;" class="s4" d="m526.82 274.03v13.02h-13.02v-13.02z"/>
							</g>
							<g id="&lt;Group&gt;">
								<path id="&lt;Path&gt;" class="s4" d="m526.82 300.08h-13.02v-13.03h13.02z"/>
							</g>
							<g id="&lt;Group&gt;">
								<path id="&lt;Path&gt;" class="s4" d="m539.84 274.03h-13.02v-13.03h13.02z"/>
							</g>
							<g id="&lt;Group&gt;">
								<path id="&lt;Path&gt;" class="s4" d="m552.87 274.03h-13.03v-13.03h13.03z"/>
							</g>
							<g id="&lt;Group&gt;">
								<path id="&lt;Path&gt;" class="s4" d="m565.89 261v13.03h-13.02v-13.03z"/>
							</g>
							<g id="&lt;Group&gt;">
								<path id="&lt;Path&gt;" class="s4" d="m578.92 261v13.03h-13.03v-13.03z"/>
							</g>
							<g id="&lt;Group&gt;">
								<path id="&lt;Path&gt;" class="s4" d="m539.84 287.05h-13.02v-13.02h13.02z"/>
							</g>
						</g>
					</g>
				</g>
				<g id="&lt;Group&gt;">
					<g id="&lt;Group&gt;">
						<g id="&lt;Group&gt;">
							<path id="&lt;Path&gt;" class="s0" d="m824.69 261v13.03h-13.02v-13.03z"/>
						</g>
						<g id="&lt;Group&gt;">
							<path id="&lt;Path&gt;" class="s0" d="m824.69 221.93v13.02h-13.02v-13.02z"/>
						</g>
						<g id="&lt;Group&gt;">
							<path id="&lt;Path&gt;" class="s0" d="m824.69 261h13.03v-13.02h-13.03z"/>
						</g>
						<g id="&lt;Group&gt;">
							<path id="&lt;Path&gt;" class="s0" d="m837.72 234.95v13.03h-13.03v-13.03z"/>
						</g>
						<g id="&lt;Group&gt;">
							<path id="&lt;Path&gt;" class="s5" d="m824.69 234.95v13.03h-13.02v-13.03z"/>
						</g>
						<g id="&lt;Group&gt;">
							<path id="&lt;Path&gt;" class="s5" d="m811.67 234.95v13.03h-13.02v-13.03z"/>
						</g>
						<g id="&lt;Group&gt;">
							<path id="&lt;Path&gt;" class="s5" d="m798.65 234.95v13.03h-13.03v-13.03z"/>
						</g>
						<g id="&lt;Group&gt;">
							<path id="&lt;Path&gt;" class="s5" d="m785.62 234.95v13.03h-13.02v-13.03z"/>
						</g>
						<g id="&lt;Group&gt;">
							<path id="&lt;Path&gt;" class="s5" d="m772.6 234.95v13.03h-13.03v-13.03z"/>
						</g>
						<g id="&lt;Group&gt;">
							<path id="&lt;Path&gt;" class="s5" d="m759.57 234.95v13.03h-13.02v-13.03z"/>
						</g>
						<g id="&lt;Group&gt;">
							<path id="&lt;Path&gt;" class="s5" d="m746.55 234.95v13.03h-13.02v-13.03z"/>
						</g>
						<g id="&lt;Group&gt;">
							<path id="&lt;Path&gt;" class="s5" d="m733.53 234.95v13.03h-13.03v-13.03z"/>
						</g>
						<g id="&lt;Group&gt;">
							<path id="&lt;Path&gt;" class="s5" d="m811.67 221.93v13.02h-13.02v-13.02z"/>
						</g>
						<g id="&lt;Group&gt;">
							<path id="&lt;Path&gt;" class="s5" d="m798.65 221.93v13.02h-13.03v-13.02z"/>
						</g>
						<g id="&lt;Group&gt;">
							<path id="&lt;Path&gt;" class="s5" d="m785.62 221.93v13.02h-13.02v-13.02z"/>
						</g>
						<g id="&lt;Group&gt;">
							<path id="&lt;Path&gt;" class="s5" d="m785.62 221.93h13.03v-13.02h-13.03z"/>
						</g>
						<g id="&lt;Group&gt;">
							<path id="&lt;Path&gt;" class="s5" d="m772.6 221.93h13.02v-13.02h-13.02z"/>
						</g>
						<g id="&lt;Group&gt;">
							<path id="&lt;Path&gt;" class="s5" d="m785.62 195.88v13.03h-13.02v-13.03z"/>
						</g>
						<g id="&lt;Group&gt;">
							<path id="&lt;Path&gt;" class="s5" d="m772.6 221.93v13.02h-13.03v-13.02z"/>
						</g>
						<g id="&lt;Group&gt;">
							<path id="&lt;Path&gt;" class="s5" d="m759.57 221.93v13.02h-13.02v-13.02z"/>
						</g>
						<g id="&lt;Group&gt;">
							<path id="&lt;Path&gt;" class="s5" d="m746.55 221.93v13.02h-13.02v-13.02z"/>
						</g>
						<g id="&lt;Group&gt;">
							<path id="&lt;Path&gt;" class="s5" d="m733.53 221.93v13.02h-13.03v-13.02z"/>
						</g>
						<g id="&lt;Group&gt;">
							<path id="&lt;Path&gt;" class="s5" d="m811.67 261h13.02v-13.02h-13.02z"/>
						</g>
						<g id="&lt;Group&gt;">
							<path id="&lt;Path&gt;" class="s5" d="m798.65 261h13.02v-13.02h-13.02z"/>
						</g>
						<g id="&lt;Group&gt;">
							<path id="&lt;Path&gt;" class="s5" d="m785.62 261h13.03v-13.02h-13.03z"/>
						</g>
						<g id="&lt;Group&gt;">
							<path id="&lt;Path&gt;" class="s5" d="m772.6 261h13.02v-13.02h-13.02z"/>
						</g>
						<g id="&lt;Group&gt;">
							<path id="&lt;Path&gt;" class="s5" d="m759.57 261h13.03v-13.02h-13.03z"/>
						</g>
						<g id="&lt;Group&gt;">
							<path id="&lt;Path&gt;" class="s5" d="m746.55 261h13.02v-13.02h-13.02z"/>
						</g>
						<g id="&lt;Group&gt;">
							<path id="&lt;Path&gt;" class="s5" d="m733.53 261h13.02v-13.02h-13.02z"/>
						</g>
						<g id="&lt;Group&gt;">
							<path id="&lt;Path&gt;" class="s5" d="m720.5 261h13.03v-13.02h-13.03z"/>
						</g>
						<g id="&lt;Group&gt;">
							<path id="&lt;Path&gt;" class="s5" d="m811.67 261v13.03h-13.02v-13.03z"/>
						</g>
						<g id="&lt;Group&gt;">
							<path id="&lt;Path&gt;" class="s5" d="m798.65 261v13.03h-13.03v-13.03z"/>
						</g>
						<g id="&lt;Group&gt;">
							<path id="&lt;Path&gt;" class="s5" d="m785.62 261v13.03h-13.02v-13.03z"/>
						</g>
						<g id="&lt;Group&gt;">
							<path id="&lt;Path&gt;" class="s5" d="m798.65 274.03v13.02h-13.03v-13.02z"/>
						</g>
						<g id="&lt;Group&gt;">
							<path id="&lt;Path&gt;" class="s5" d="m785.62 274.03v13.02h-13.02v-13.02z"/>
						</g>
						<g id="&lt;Group&gt;">
							<path id="&lt;Path&gt;" class="s5" d="m785.62 287.05v13.03h-13.02v-13.03z"/>
						</g>
						<g id="&lt;Group&gt;">
							<path id="&lt;Path&gt;" class="s5" d="m772.6 261v13.03h-13.03v-13.03z"/>
						</g>
						<g id="&lt;Group&gt;">
							<path id="&lt;Path&gt;" class="s5" d="m759.57 261v13.03h-13.02v-13.03z"/>
						</g>
						<g id="&lt;Group&gt;">
							<path id="&lt;Path&gt;" class="s5" d="m746.55 261v13.03h-13.02v-13.03z"/>
						</g>
						<g id="&lt;Group&gt;">
							<path id="&lt;Path&gt;" class="s5" d="m733.53 261v13.03h-13.03v-13.03z"/>
						</g>
						<g id="&lt;Group&gt;">
							<path id="&lt;Path&gt;" class="s0" d="m811.67 274.03v13.02h-13.02v-13.02z"/>
						</g>
						<g id="&lt;Group&gt;">
							<path id="&lt;Path&gt;" class="s0" d="m798.65 221.93h13.02v-13.02h-13.02z"/>
						</g>
						<g id="&lt;Group&gt;">
							<path id="&lt;Path&gt;" class="s0" d="m798.65 287.05v13.03h-13.03v-13.03z"/>
						</g>
						<g id="&lt;Group&gt;">
							<path id="&lt;Path&gt;" class="s0" d="m798.65 195.88v13.03h-13.03v-13.03z"/>
						</g>
						<g id="&lt;Group&gt;">
							<path id="&lt;Path&gt;" class="s0" d="m772.6 313.1h13.02v-13.02h-13.02z"/>
						</g>
						<g id="&lt;Group&gt;">
							<path id="&lt;Path&gt;" class="s0" d="m785.62 182.86v13.02h-13.02v-13.02z"/>
						</g>
						<g id="&lt;Group&gt;">
							<path id="&lt;Path&gt;" class="s0" d="m772.6 287.05v13.03h-13.03v-13.03z"/>
						</g>
						<g id="&lt;Group&gt;">
							<path id="&lt;Path&gt;" class="s0" d="m772.6 195.88v13.03h-13.03v-13.03z"/>
						</g>
						<g id="&lt;Group&gt;">
							<path id="&lt;Path&gt;" class="s5" d="m772.6 274.03v13.02h-13.03v-13.02z"/>
						</g>
						<g id="&lt;Group&gt;">
							<path id="&lt;Path&gt;" class="s0" d="m759.57 274.03v13.02h-13.02v-13.02z"/>
						</g>
						<g id="&lt;Group&gt;">
							<path id="&lt;Path&gt;" class="s0" d="m746.55 274.03v13.02h-13.02v-13.02z"/>
						</g>
						<g id="&lt;Group&gt;">
							<path id="&lt;Path&gt;" class="s0" d="m733.53 274.03v13.02h-13.03v-13.02z"/>
						</g>
						<g id="&lt;Group&gt;">
							<path id="&lt;Path&gt;" class="s0" d="m707.48 274.03h13.02v-13.03h-13.02z"/>
						</g>
						<g id="&lt;Group&gt;">
							<path id="&lt;Path&gt;" class="s0" d="m707.48 261h13.02v-13.02h-13.02z"/>
						</g>
						<g id="&lt;Group&gt;">
							<path id="&lt;Path&gt;" class="s0" d="m707.48 247.98h13.02v-13.03h-13.02z"/>
						</g>
						<g id="&lt;Group&gt;">
							<path id="&lt;Path&gt;" class="s0" d="m707.48 234.95h13.02v-13.02h-13.02z"/>
						</g>
						<g id="&lt;Group&gt;">
							<path id="&lt;Path&gt;" class="s0" d="m746.55 221.93h13.02v-13.02h-13.02z"/>
						</g>
						<g id="&lt;Group&gt;">
							<path id="&lt;Path&gt;" class="s5" d="m759.57 221.93h13.03v-13.02h-13.03z"/>
						</g>
						<g id="&lt;Group&gt;">
							<path id="&lt;Path&gt;" class="s0" d="m733.53 221.93h13.02v-13.02h-13.02z"/>
						</g>
						<g id="&lt;Group&gt;">
							<path id="&lt;Path&gt;" class="s0" d="m720.5 221.93h13.03v-13.02h-13.03z"/>
						</g>
					</g>
					<g id="&lt;Group&gt;" style="opacity: .45;mix-blend-mode: multiply">
						<g id="&lt;Group&gt;">
							<g id="&lt;Group&gt;">
								<path id="&lt;Path&gt;" class="s6" d="m733.53 234.95v13.03h-13.03v-13.03z"/>
							</g>
							<g id="&lt;Group&gt;">
								<path id="&lt;Path&gt;" class="s6" d="m733.53 221.93v13.02h-13.03v-13.02z"/>
							</g>
							<g id="&lt;Group&gt;">
								<path id="&lt;Path&gt;" class="s6" d="m811.67 261h13.02v-13.02h-13.02z"/>
							</g>
							<g id="&lt;Group&gt;">
								<path id="&lt;Path&gt;" class="s6" d="m733.53 261h13.02v-13.02h-13.02z"/>
							</g>
							<g id="&lt;Group&gt;">
								<path id="&lt;Path&gt;" class="s6" d="m720.5 261h13.03v-13.02h-13.03z"/>
							</g>
							<g id="&lt;Group&gt;">
								<path id="&lt;Path&gt;" class="s6" d="m811.67 261v13.03h-13.02v-13.03z"/>
							</g>
							<g id="&lt;Group&gt;">
								<path id="&lt;Path&gt;" class="s6" d="m798.65 274.03v13.02h-13.03v-13.02z"/>
							</g>
							<g id="&lt;Group&gt;">
								<path id="&lt;Path&gt;" class="s6" d="m785.62 274.03v13.02h-13.02v-13.02z"/>
							</g>
							<g id="&lt;Group&gt;">
								<path id="&lt;Path&gt;" class="s6" d="m785.62 287.05v13.03h-13.02v-13.03z"/>
							</g>
							<g id="&lt;Group&gt;">
								<path id="&lt;Path&gt;" class="s6" d="m772.6 261v13.03h-13.03v-13.03z"/>
							</g>
							<g id="&lt;Group&gt;">
								<path id="&lt;Path&gt;" class="s6" d="m759.57 261v13.03h-13.02v-13.03z"/>
							</g>
							<g id="&lt;Group&gt;">
								<path id="&lt;Path&gt;" class="s6" d="m746.55 261v13.03h-13.02v-13.03z"/>
							</g>
							<g id="&lt;Group&gt;">
								<path id="&lt;Path&gt;" class="s6" d="m733.53 261v13.03h-13.03v-13.03z"/>
							</g>
							<g id="&lt;Group&gt;">
								<path id="&lt;Path&gt;" class="s6" d="m772.6 274.03v13.02h-13.03v-13.02z"/>
							</g>
						</g>
					</g>
				</g>
				<g id="&lt;Group&gt;">
					<g id="&lt;Group&gt;">
						<g id="&lt;Group&gt;">
							<path id="&lt;Path&gt;" class="s0" d="m675.76 409.94v13.02h-13.03v-13.02z"/>
						</g>
						<g id="&lt;Group&gt;">
							<path id="&lt;Path&gt;" class="s0" d="m636.68 409.94v13.02h-13.02v-13.02z"/>
						</g>
						<g id="&lt;Group&gt;">
							<path id="&lt;Path&gt;" class="s0" d="m662.73 422.96v13.03h-13.02v-13.03z"/>
						</g>
						<g id="&lt;Group&gt;">
							<path id="&lt;Path&gt;" class="s0" d="m649.71 422.96v13.03h-13.03v-13.03z"/>
						</g>
						<g id="&lt;Group&gt;">
							<path id="&lt;Path&gt;" class="s7" d="m649.71 409.94v13.02h-13.03v-13.02z"/>
						</g>
						<g id="&lt;Group&gt;">
							<path id="&lt;Path&gt;" class="s7" d="m649.71 396.92v13.02h-13.03v-13.02z"/>
						</g>
						<g id="&lt;Group&gt;">
							<path id="&lt;Path&gt;" class="s7" d="m649.71 383.89v13.03h-13.03v-13.03z"/>
						</g>
						<g id="&lt;Group&gt;">
							<path id="&lt;Path&gt;" class="s7" d="m649.71 370.87v13.02h-13.03v-13.02z"/>
						</g>
						<g id="&lt;Group&gt;">
							<path id="&lt;Path&gt;" class="s7" d="m649.71 357.84v13.03h-13.03v-13.03z"/>
						</g>
						<g id="&lt;Group&gt;">
							<path id="&lt;Path&gt;" class="s7" d="m649.71 344.82v13.02h-13.03v-13.02z"/>
						</g>
						<g id="&lt;Group&gt;">
							<path id="&lt;Path&gt;" class="s7" d="m649.71 331.8v13.02h-13.03v-13.02z"/>
						</g>
						<g id="&lt;Group&gt;">
							<path id="&lt;Path&gt;" class="s7" d="m649.71 318.77v13.03h-13.03v-13.03z"/>
						</g>
						<g id="&lt;Group&gt;">
							<path id="&lt;Path&gt;" class="s7" d="m636.68 396.92v13.02h-13.02v-13.02z"/>
						</g>
						<g id="&lt;Group&gt;">
							<path id="&lt;Path&gt;" class="s7" d="m636.68 383.89v13.03h-13.02v-13.03z"/>
						</g>
						<g id="&lt;Group&gt;">
							<path id="&lt;Path&gt;" class="s7" d="m636.68 370.87v13.02h-13.02v-13.02z"/>
						</g>
						<g id="&lt;Group&gt;">
							<path id="&lt;Path&gt;" class="s7" d="m623.66 383.89v13.03h-13.02v-13.03z"/>
						</g>
						<g id="&lt;Group&gt;">
							<path id="&lt;Path&gt;" class="s7" d="m623.66 370.87v13.02h-13.02v-13.02z"/>
						</g>
						<g id="&lt;Group&gt;">
							<path id="&lt;Path&gt;" class="s7" d="m610.64 370.87v13.02h-13.03v-13.02z"/>
						</g>
						<g id="&lt;Group&gt;">
							<path id="&lt;Path&gt;" class="s7" d="m636.68 357.84v13.03h-13.02v-13.03z"/>
						</g>
						<g id="&lt;Group&gt;">
							<path id="&lt;Path&gt;" class="s7" d="m636.68 344.82v13.02h-13.02v-13.02z"/>
						</g>
						<g id="&lt;Group&gt;">
							<path id="&lt;Path&gt;" class="s7" d="m636.68 331.8v13.02h-13.02v-13.02z"/>
						</g>
						<g id="&lt;Group&gt;">
							<path id="&lt;Path&gt;" class="s7" d="m636.68 318.77v13.03h-13.02v-13.03z"/>
						</g>
						<g id="&lt;Group&gt;">
							<path id="&lt;Path&gt;" class="s7" d="m662.73 409.94v13.02h-13.02v-13.02z"/>
						</g>
						<g id="&lt;Group&gt;">
							<path id="&lt;Path&gt;" class="s7" d="m662.73 396.92v13.02h-13.02v-13.02z"/>
						</g>
						<g id="&lt;Group&gt;">
							<path id="&lt;Path&gt;" class="s7" d="m662.73 383.89v13.03h-13.02v-13.03z"/>
						</g>
						<g id="&lt;Group&gt;">
							<path id="&lt;Path&gt;" class="s7" d="m662.73 370.87v13.02h-13.02v-13.02z"/>
						</g>
						<g id="&lt;Group&gt;">
							<path id="&lt;Path&gt;" class="s7" d="m662.73 357.84v13.03h-13.02v-13.03z"/>
						</g>
						<g id="&lt;Group&gt;">
							<path id="&lt;Path&gt;" class="s7" d="m662.73 344.82v13.02h-13.02v-13.02z"/>
						</g>
						<g id="&lt;Group&gt;">
							<path id="&lt;Path&gt;" class="s7" d="m662.73 331.8v13.02h-13.02v-13.02z"/>
						</g>
						<g id="&lt;Group&gt;">
							<path id="&lt;Path&gt;" class="s7" d="m662.73 318.77v13.03h-13.02v-13.03z"/>
						</g>
						<g id="&lt;Group&gt;">
							<path id="&lt;Path&gt;" class="s7" d="m675.76 396.92v13.02h-13.03v-13.02z"/>
						</g>
						<g id="&lt;Group&gt;">
							<path id="&lt;Path&gt;" class="s7" d="m675.76 383.89v13.03h-13.03v-13.03z"/>
						</g>
						<g id="&lt;Group&gt;">
							<path id="&lt;Path&gt;" class="s7" d="m675.76 370.87v13.02h-13.03v-13.02z"/>
						</g>
						<g id="&lt;Group&gt;">
							<path id="&lt;Path&gt;" class="s7" d="m688.78 383.89v13.03h-13.02v-13.03z"/>
						</g>
						<g id="&lt;Group&gt;">
							<path id="&lt;Path&gt;" class="s7" d="m688.78 370.87v13.02h-13.02v-13.02z"/>
						</g>
						<g id="&lt;Group&gt;">
							<path id="&lt;Path&gt;" class="s7" d="m701.81 370.87v13.02h-13.03v-13.02z"/>
						</g>
						<g id="&lt;Group&gt;">
							<path id="&lt;Path&gt;" class="s7" d="m675.76 357.84v13.03h-13.03v-13.03z"/>
						</g>
						<g id="&lt;Group&gt;">
							<path id="&lt;Path&gt;" class="s7" d="m675.76 344.82v13.02h-13.03v-13.02z"/>
						</g>
						<g id="&lt;Group&gt;">
							<path id="&lt;Path&gt;" class="s7" d="m675.76 331.8v13.02h-13.03v-13.02z"/>
						</g>
						<g id="&lt;Group&gt;">
							<path id="&lt;Path&gt;" class="s7" d="m675.76 318.77v13.03h-13.03v-13.03z"/>
						</g>
						<g id="&lt;Group&gt;">
							<path id="&lt;Path&gt;" class="s0" d="m688.78 396.92v13.02h-13.02v-13.02z"/>
						</g>
						<g id="&lt;Group&gt;">
							<path id="&lt;Path&gt;" class="s0" d="m623.66 396.92v13.02h-13.02v-13.02z"/>
						</g>
						<g id="&lt;Group&gt;">
							<path id="&lt;Path&gt;" class="s0" d="m701.81 383.89v13.03h-13.03v-13.03z"/>
						</g>
						<g id="&lt;Group&gt;">
							<path id="&lt;Path&gt;" class="s0" d="m610.64 383.89v13.03h-13.03v-13.03z"/>
						</g>
						<g id="&lt;Group&gt;">
							<path id="&lt;Path&gt;" class="s0" d="m714.83 370.87v13.02h-13.02v-13.02z"/>
						</g>
						<g id="&lt;Group&gt;">
							<path id="&lt;Path&gt;" class="s0" d="m597.61 370.87v13.02h-13.02v-13.02z"/>
						</g>
						<g id="&lt;Group&gt;">
							<path id="&lt;Path&gt;" class="s0" d="m701.81 357.84v13.03h-13.03v-13.03z"/>
						</g>
						<g id="&lt;Group&gt;">
							<path id="&lt;Path&gt;" class="s0" d="m610.64 357.84v13.03h-13.03v-13.03z"/>
						</g>
						<g id="&lt;Group&gt;">
							<path id="&lt;Path&gt;" class="s7" d="m688.78 357.84v13.03h-13.02v-13.03z"/>
						</g>
						<g id="&lt;Group&gt;">
							<path id="&lt;Path&gt;" class="s0" d="m688.78 344.82v13.02h-13.02v-13.02z"/>
						</g>
						<g id="&lt;Group&gt;">
							<path id="&lt;Path&gt;" class="s0" d="m688.78 331.8v13.02h-13.02v-13.02z"/>
						</g>
						<g id="&lt;Group&gt;">
							<path id="&lt;Path&gt;" class="s0" d="m688.78 318.77v13.03h-13.02v-13.03z"/>
						</g>
						<g id="&lt;Group&gt;">
							<path id="&lt;Path&gt;" class="s0" d="m675.76 305.75v13.02h-13.03v-13.02z"/>
						</g>
						<g id="&lt;Group&gt;">
							<path id="&lt;Path&gt;" class="s0" d="m662.73 305.75v13.02h-13.02v-13.02z"/>
						</g>
						<g id="&lt;Group&gt;">
							<path id="&lt;Path&gt;" class="s0" d="m649.71 305.75v13.02h-13.03v-13.02z"/>
						</g>
						<g id="&lt;Group&gt;">
							<path id="&lt;Path&gt;" class="s0" d="m636.68 305.75v13.02h-13.02v-13.02z"/>
						</g>
						<g id="&lt;Group&gt;">
							<path id="&lt;Path&gt;" class="s0" d="m623.66 344.82v13.02h-13.02v-13.02z"/>
						</g>
						<g id="&lt;Group&gt;">
							<path id="&lt;Path&gt;" class="s7" d="m623.66 357.84v13.03h-13.02v-13.03z"/>
						</g>
						<g id="&lt;Group&gt;">
							<path id="&lt;Path&gt;" class="s0" d="m623.66 331.8v13.02h-13.02v-13.02z"/>
						</g>
						<g id="&lt;Group&gt;">
							<path id="&lt;Path&gt;" class="s0" d="m623.66 318.77v13.03h-13.02v-13.03z"/>
						</g>
					</g>
					<g id="&lt;Group&gt;" style="opacity: .39;mix-blend-mode: multiply">
						<g id="&lt;Group&gt;">
							<path id="&lt;Path&gt;" class="s8" d="m649.71 318.77v13.03h-13.03v-13.03z"/>
						</g>
						<g id="&lt;Group&gt;">
							<path id="&lt;Path&gt;" class="s8" d="m636.68 318.77v13.03h-13.02v-13.03z"/>
						</g>
						<g id="&lt;Group&gt;">
							<path id="&lt;Path&gt;" class="s8" d="m662.73 409.94v13.02h-13.02v-13.02z"/>
						</g>
						<g id="&lt;Group&gt;">
							<path id="&lt;Path&gt;" class="s8" d="m662.73 331.8v13.02h-13.02v-13.02z"/>
						</g>
						<g id="&lt;Group&gt;">
							<path id="&lt;Path&gt;" class="s8" d="m662.73 318.77v13.03h-13.02v-13.03z"/>
						</g>
						<g id="&lt;Group&gt;">
							<path id="&lt;Path&gt;" class="s8" d="m675.76 396.92v13.02h-13.03v-13.02z"/>
						</g>
						<g id="&lt;Group&gt;">
							<path id="&lt;Path&gt;" class="s8" d="m688.78 383.89v13.03h-13.02v-13.03z"/>
						</g>
						<g id="&lt;Group&gt;">
							<path id="&lt;Path&gt;" class="s8" d="m688.78 370.87v13.02h-13.02v-13.02z"/>
						</g>
						<g id="&lt;Group&gt;">
							<path id="&lt;Path&gt;" class="s8" d="m701.81 370.87v13.02h-13.03v-13.02z"/>
						</g>
						<g id="&lt;Group&gt;">
							<path id="&lt;Path&gt;" class="s8" d="m675.76 357.84v13.03h-13.03v-13.03z"/>
						</g>
						<g id="&lt;Group&gt;">
							<path id="&lt;Path&gt;" class="s8" d="m675.76 344.82v13.02h-13.03v-13.02z"/>
						</g>
						<g id="&lt;Group&gt;">
							<path id="&lt;Path&gt;" class="s8" d="m675.76 331.8v13.02h-13.03v-13.02z"/>
						</g>
						<g id="&lt;Group&gt;">
							<path id="&lt;Path&gt;" class="s8" d="m675.76 318.77v13.03h-13.03v-13.03z"/>
						</g>
						<g id="&lt;Group&gt;">
							<path id="&lt;Path&gt;" class="s8" d="m688.78 357.84v13.03h-13.02v-13.03z"/>
						</g>
					</g>
				</g>
			</g>
		</g>
	</g>
</svg>