<svg version="1.2" xmlns="http://www.w3.org/2000/svg" viewBox="1015 158 222.00000000000023 98" width="223" height="98">
	<style>
		.s0 { fill: #f22259 } 
		.s1 { fill: #ffffff } 
		.s2 { fill: #cc366f } 
		.s3 { fill: #000600 } 
	</style>
	<g id="Layer 1">
		<g id="&lt;Group&gt;">
			<g id="&lt;Group&gt;">
				<g id="&lt;Group&gt;">
					<g id="&lt;Group&gt;">
						<path id="&lt;Path&gt;" class="s0" d="m1046.06 163.63h160.63l12.33 6.17 6.16 6.16 6.16 12.32v36.98l-6.16 12.32-6.16 6.17-12.33 6.16h-160.63l-12.32-6.16-6.17-6.17-6.16-12.32v-36.98l6.16-12.32 6.17-6.16z"/>
					</g>
					<g id="&lt;Group&gt;" style="opacity: .31;mix-blend-mode: screen">
						<g id="&lt;Group&gt;">
							<g id="&lt;Group&gt;">
								<g id="&lt;Group&gt;">
									<g id="&lt;Group&gt;">
										<path id="&lt;Path&gt;" class="s1" d="m1033.74 169.8h6.16v6.16h-6.16z"/>
									</g>
									<g id="&lt;Group&gt;">
										<path id="&lt;Path&gt;" class="s1" d="m1027.57 175.96h6.17v6.16h-6.17z"/>
									</g>
									<g id="&lt;Group&gt;">
										<path id="&lt;Path&gt;" class="s1" d="m1039.9 169.8h6.16v6.16h-6.16z"/>
									</g>
									<g id="&lt;Group&gt;">
										<path id="&lt;Path&gt;" class="s1" d="m1046.06 163.63h6.17v6.17h-6.17z"/>
									</g>
									<g id="&lt;Group&gt;">
										<path id="&lt;Path&gt;" class="s1" d="m1225.18 182.12h-6.16v-6.16h6.16z"/>
									</g>
									<g id="&lt;Group&gt;">
										<path id="&lt;Path&gt;" class="s1" d="m1219.02 175.96h-6.16v-6.16h6.16z"/>
									</g>
									<g id="&lt;Group&gt;">
										<path id="&lt;Path&gt;" class="s1" d="m1212.86 175.96h-6.17v-6.16h6.17z"/>
									</g>
									<g id="&lt;Group&gt;">
										<path id="&lt;Path&gt;" class="s1" d="m1206.69 169.8h-6.16v-6.17h6.16z"/>
									</g>
									<path id="&lt;Path&gt;" class="s1" d="m1200.53 169.8h-148.3v-6.17h148.3z"/>
								</g>
							</g>
							<g id="&lt;Group&gt;">
								<g id="&lt;Group&gt;">
									<path id="&lt;Path&gt;" class="s1" d="m1219.02 237.58h-6.16v-6.16h6.16z"/>
								</g>
								<g id="&lt;Group&gt;">
									<path id="&lt;Path&gt;" class="s1" d="m1212.86 237.58h-6.17v-6.16h6.17z"/>
								</g>
								<g id="&lt;Group&gt;">
									<path id="&lt;Path&gt;" class="s1" d="m1206.69 243.75h-6.16v-6.17h6.16z"/>
								</g>
								<g id="&lt;Group&gt;">
									<path id="&lt;Path&gt;" class="s1" d="m1033.74 231.42h6.16v6.16h-6.16z"/>
								</g>
								<g id="&lt;Group&gt;">
									<path id="&lt;Path&gt;" class="s1" d="m1039.9 231.42h6.16v6.16h-6.16z"/>
								</g>
								<g id="&lt;Group&gt;">
									<path id="&lt;Path&gt;" class="s1" d="m1046.06 237.58h6.17v6.17h-6.17z"/>
								</g>
								<path id="&lt;Path&gt;" class="s1" d="m1052.23 237.58h148.3v6.17h-148.3z"/>
							</g>
						</g>
					</g>
					<g id="&lt;Group&gt;" style="opacity: .46;mix-blend-mode: multiply">
						<g id="&lt;Group&gt;">
							<g id="&lt;Group&gt;">
								<g id="&lt;Group&gt;">
									<g id="&lt;Group&gt;">
										<path id="&lt;Path&gt;" class="s2" d="m1033.74 176.03h6.16v6.16h-6.16z"/>
									</g>
									<g id="&lt;Group&gt;">
										<path id="&lt;Path&gt;" class="s2" d="m1027.57 182.19h6.17v6.17h-6.17z"/>
									</g>
									<g id="&lt;Group&gt;">
										<path id="&lt;Path&gt;" class="s2" d="m1027.57 188.36h6.17v6.16h-6.17z"/>
									</g>
									<g id="&lt;Group&gt;">
										<path id="&lt;Path&gt;" class="s2" d="m1021.41 188.36h6.16v6.16h-6.16z"/>
									</g>
									<g id="&lt;Group&gt;">
										<path id="&lt;Path&gt;" class="s2" d="m1021.41 194.52h6.16v6.16h-6.16z"/>
									</g>
									<g id="&lt;Group&gt;">
										<path id="&lt;Path&gt;" class="s2" d="m1039.9 176.03h6.16v6.16h-6.16z"/>
									</g>
									<g id="&lt;Group&gt;">
										<path id="&lt;Path&gt;" class="s2" d="m1046.06 169.87h6.17v6.16h-6.17z"/>
									</g>
									<g id="&lt;Group&gt;">
										<path id="&lt;Path&gt;" class="s2" d="m1225.18 188.36h-6.16v-6.17h6.16z"/>
									</g>
									<g id="&lt;Group&gt;">
										<path id="&lt;Path&gt;" class="s2" d="m1231.34 200.68h-6.16v-6.16h6.16z"/>
									</g>
									<g id="&lt;Group&gt;">
										<path id="&lt;Path&gt;" class="s2" d="m1231.34 194.52h-6.16v-6.16h6.16z"/>
									</g>
									<g id="&lt;Group&gt;">
										<path id="&lt;Path&gt;" class="s2" d="m1219.02 182.19h-6.16v-6.16h6.16z"/>
									</g>
									<g id="&lt;Group&gt;">
										<path id="&lt;Path&gt;" class="s2" d="m1212.86 182.19h-6.17v-6.16h6.17z"/>
									</g>
									<g id="&lt;Group&gt;">
										<path id="&lt;Path&gt;" class="s2" d="m1206.69 176.03h-6.16v-6.16h6.16z"/>
									</g>
									<path id="&lt;Path&gt;" class="s2" d="m1200.53 176.03h-148.3v-6.16h148.3z"/>
								</g>
							</g>
							<g id="&lt;Group&gt;">
								<g id="&lt;Group&gt;">
									<g id="&lt;Group&gt;">
										<path id="&lt;Path&gt;" class="s2" d="m1219.02 243.75h-6.16v-6.17h6.16z"/>
									</g>
									<g id="&lt;Group&gt;">
										<path id="&lt;Path&gt;" class="s2" d="m1225.18 237.58h-6.16v-6.16h6.16z"/>
									</g>
									<g id="&lt;Group&gt;">
										<path id="&lt;Path&gt;" class="s2" d="m1231.34 231.42h-6.16v-6.16h6.16z"/>
									</g>
									<g id="&lt;Group&gt;">
										<path id="&lt;Path&gt;" class="s2" d="m1231.34 225.26h-6.16v-6.16h6.16z"/>
									</g>
									<g id="&lt;Group&gt;">
										<path id="&lt;Path&gt;" class="s2" d="m1212.86 243.75h-6.17v-6.17h6.17z"/>
									</g>
									<g id="&lt;Group&gt;">
										<path id="&lt;Path&gt;" class="s2" d="m1206.69 249.91h-6.16v-6.16h6.16z"/>
									</g>
									<g id="&lt;Group&gt;">
										<path id="&lt;Path&gt;" class="s2" d="m1027.57 231.42h6.17v6.16h-6.17z"/>
									</g>
									<g id="&lt;Group&gt;">
										<path id="&lt;Path&gt;" class="s2" d="m1225.18 231.42h-6.16v-6.16h6.16z"/>
									</g>
									<g id="&lt;Group&gt;">
										<path id="&lt;Path&gt;" class="s2" d="m1027.57 225.26h6.17v6.16h-6.17z"/>
									</g>
									<g id="&lt;Group&gt;">
										<path id="&lt;Path&gt;" class="s2" d="m1027.57 219.1h6.17v6.16h-6.17z"/>
									</g>
									<g id="&lt;Group&gt;">
										<path id="&lt;Path&gt;" class="s2" d="m1219.02 188.36h6.16v6.16h-6.16z"/>
									</g>
									<g id="&lt;Group&gt;">
										<path id="&lt;Path&gt;" class="s2" d="m1219.02 219.1h6.16v6.16h-6.16z"/>
									</g>
									<g id="&lt;Group&gt;">
										<path id="&lt;Path&gt;" class="s2" d="m1021.41 219.1h6.16v6.16h-6.16z"/>
									</g>
									<g id="&lt;Group&gt;">
										<path id="&lt;Path&gt;" class="s2" d="m1231.34 219.1h-6.16v-6.17h6.16z"/>
									</g>
									<g id="&lt;Group&gt;">
										<path id="&lt;Path&gt;" class="s2" d="m1021.41 212.93h6.16v6.17h-6.16z"/>
									</g>
									<g id="&lt;Group&gt;">
										<path id="&lt;Path&gt;" class="s2" d="m1231.34 212.93h-6.16v-6.16h6.16z"/>
									</g>
									<g id="&lt;Group&gt;">
										<path id="&lt;Path&gt;" class="s2" d="m1021.41 206.77h6.16v6.16h-6.16z"/>
									</g>
									<g id="&lt;Group&gt;">
										<path id="&lt;Path&gt;" class="s2" d="m1231.34 206.77h-6.16v-6.16h6.16z"/>
									</g>
									<g id="&lt;Group&gt;">
										<path id="&lt;Path&gt;" class="s2" d="m1021.41 200.61h6.16v6.16h-6.16z"/>
									</g>
									<g id="&lt;Group&gt;">
										<path id="&lt;Path&gt;" class="s2" d="m1021.41 225.26h6.16v6.16h-6.16z"/>
									</g>
									<g id="&lt;Group&gt;">
										<path id="&lt;Path&gt;" class="s2" d="m1033.74 237.58h6.16v6.17h-6.16z"/>
									</g>
									<g id="&lt;Group&gt;">
										<path id="&lt;Path&gt;" class="s2" d="m1039.9 237.58h6.16v6.17h-6.16z"/>
									</g>
									<g id="&lt;Group&gt;">
										<path id="&lt;Path&gt;" class="s2" d="m1046.06 243.75h6.17v6.16h-6.17z"/>
									</g>
									<path id="&lt;Path&gt;" class="s2" d="m1052.23 243.75h148.3v6.16h-148.3z"/>
								</g>
							</g>
						</g>
					</g>
					<g id="&lt;Group&gt;">
						<g id="&lt;Group&gt;">
							<path id="&lt;Path&gt;" class="s1" d="m1219.02 231.42h-6.16v-6.16h6.16z"/>
						</g>
						<g id="&lt;Group&gt;">
							<path id="&lt;Path&gt;" class="s1" d="m1219.02 225.26h-6.16v-6.16h6.16z"/>
						</g>
						<g id="&lt;Group&gt;">
							<path id="&lt;Path&gt;" class="s1" d="m1212.86 231.42h-6.17v-6.16h6.17z"/>
						</g>
						<g id="&lt;Group&gt;">
							<path id="&lt;Path&gt;" class="s1" d="m1206.69 237.58h-6.16v-6.16h6.16z"/>
						</g>
						<g id="&lt;Group&gt;">
							<path id="&lt;Path&gt;" class="s1" d="m1200.53 237.58h-6.16v-6.16h6.16z"/>
						</g>
					</g>
					<g id="&lt;Group&gt;">
						<path id="&lt;Path&gt;" class="s3" d="m1033.74 163.63h6.16v6.17h-6.16z"/>
					</g>
					<g id="&lt;Group&gt;">
						<path id="&lt;Path&gt;" class="s3" d="m1027.57 169.8h6.17v6.16h-6.17z"/>
					</g>
					<g id="&lt;Group&gt;">
						<path id="&lt;Path&gt;" class="s3" d="m1027.57 237.58h6.17v6.17h-6.17z"/>
					</g>
					<g id="&lt;Group&gt;">
						<path id="&lt;Path&gt;" class="s3" d="m1021.41 175.96h6.16v6.16h-6.16z"/>
					</g>
					<g id="&lt;Group&gt;">
						<path id="&lt;Path&gt;" class="s3" d="m1021.41 182.12h6.16v6.16h-6.16z"/>
					</g>
					<g id="&lt;Group&gt;">
						<path id="&lt;Path&gt;" class="s3" d="m1021.41 225.26h6.16v6.16h-6.16z"/>
					</g>
					<g id="&lt;Group&gt;">
						<path id="&lt;Path&gt;" class="s3" d="m1021.41 231.42h6.16v6.16h-6.16z"/>
					</g>
					<g id="&lt;Group&gt;">
						<path id="&lt;Path&gt;" class="s3" d="m1015.25 188.28h6.16v6.17h-6.16z"/>
					</g>
					<g id="&lt;Group&gt;">
						<path id="&lt;Path&gt;" class="s3" d="m1015.25 194.45h6.16v6.16h-6.16z"/>
					</g>
					<g id="&lt;Group&gt;">
						<path id="&lt;Path&gt;" class="s3" d="m1015.25 200.61h6.16v6.16h-6.16z"/>
					</g>
					<g id="&lt;Group&gt;">
						<path id="&lt;Path&gt;" class="s3" d="m1015.25 206.77h6.16v6.16h-6.16z"/>
					</g>
					<g id="&lt;Group&gt;">
						<path id="&lt;Path&gt;" class="s3" d="m1015.25 212.93h6.16v6.17h-6.16z"/>
					</g>
					<g id="&lt;Group&gt;">
						<path id="&lt;Path&gt;" class="s3" d="m1015.25 219.1h6.16v6.16h-6.16z"/>
					</g>
					<g id="&lt;Group&gt;">
						<path id="&lt;Path&gt;" class="s3" d="m1039.9 163.63h6.16v6.17h-6.16z"/>
					</g>
					<g id="&lt;Group&gt;">
						<path id="&lt;Path&gt;" class="s3" d="m1033.74 243.75h6.16v6.16h-6.16z"/>
					</g>
					<g id="&lt;Group&gt;">
						<path id="&lt;Path&gt;" class="s3" d="m1039.9 243.75h6.16v6.16h-6.16z"/>
					</g>
					<g id="&lt;Group&gt;">
						<path id="&lt;Path&gt;" class="s3" d="m1046.06 157.47h6.17v6.16h-6.17z"/>
					</g>
					<g id="&lt;Group&gt;">
						<path id="&lt;Path&gt;" class="s3" d="m1046.06 249.91h6.17v6.16h-6.17z"/>
					</g>
					<g id="&lt;Group&gt;">
						<path id="&lt;Path&gt;" class="s3" d="m1219.02 249.91h-6.16v-6.16h6.16z"/>
					</g>
					<g id="&lt;Group&gt;">
						<path id="&lt;Path&gt;" class="s3" d="m1225.18 243.75h-6.16v-6.17h6.16z"/>
					</g>
					<g id="&lt;Group&gt;">
						<path id="&lt;Path&gt;" class="s3" d="m1225.18 175.96h-6.16v-6.16h6.16z"/>
					</g>
					<g id="&lt;Group&gt;">
						<path id="&lt;Path&gt;" class="s3" d="m1231.34 237.58h-6.16v-6.16h6.16z"/>
					</g>
					<g id="&lt;Group&gt;">
						<path id="&lt;Path&gt;" class="s3" d="m1231.34 231.42h-6.16v-6.16h6.16z"/>
					</g>
					<g id="&lt;Group&gt;">
						<path id="&lt;Path&gt;" class="s3" d="m1231.34 188.28h-6.16v-6.16h6.16z"/>
					</g>
					<g id="&lt;Group&gt;">
						<path id="&lt;Path&gt;" class="s3" d="m1231.34 182.12h-6.16v-6.16h6.16z"/>
					</g>
					<g id="&lt;Group&gt;">
						<path id="&lt;Path&gt;" class="s3" d="m1237.51 225.26h-6.17v-6.16h6.17z"/>
					</g>
					<g id="&lt;Group&gt;">
						<path id="&lt;Path&gt;" class="s3" d="m1237.51 219.1h-6.17v-6.17h6.17z"/>
					</g>
					<g id="&lt;Group&gt;">
						<path id="&lt;Path&gt;" class="s3" d="m1237.51 212.93h-6.17v-6.16h6.17z"/>
					</g>
					<g id="&lt;Group&gt;">
						<path id="&lt;Path&gt;" class="s3" d="m1237.51 206.77h-6.17v-6.16h6.17z"/>
					</g>
					<g id="&lt;Group&gt;">
						<path id="&lt;Path&gt;" class="s3" d="m1237.51 200.61h-6.17v-6.16h6.17z"/>
					</g>
					<g id="&lt;Group&gt;">
						<path id="&lt;Path&gt;" class="s3" d="m1237.51 194.45h-6.17v-6.17h6.17z"/>
					</g>
					<g id="&lt;Group&gt;">
						<path id="&lt;Path&gt;" class="s3" d="m1212.86 249.91h-6.17v-6.16h6.17z"/>
					</g>
					<g id="&lt;Group&gt;">
						<path id="&lt;Path&gt;" class="s3" d="m1219.02 169.8h-6.16v-6.17h6.16z"/>
					</g>
					<g id="&lt;Group&gt;">
						<path id="&lt;Path&gt;" class="s3" d="m1212.86 169.8h-6.17v-6.17h6.17z"/>
					</g>
					<g id="&lt;Group&gt;">
						<path id="&lt;Path&gt;" class="s3" d="m1206.69 256.07h-6.16v-6.16h6.16z"/>
					</g>
					<g id="&lt;Group&gt;">
						<path id="&lt;Path&gt;" class="s3" d="m1206.69 163.63h-6.16v-6.16h6.16z"/>
					</g>
					<path id="&lt;Path&gt;" class="s3" d="m1200.53 163.63h-148.3v-6.16h148.3z"/>
					<path id="&lt;Path&gt;" class="s3" d="m1200.53 256.07h-148.3v-6.16h148.3z"/>
				</g>
				<g id="&lt;Group&gt;">
				</g>
			</g>
		</g>
	</g>
</svg>