<svg version="1.2" xmlns="http://www.w3.org/2000/svg" viewBox="585 64 130 128" width="130" height="128">
	<style>
		.s0 { fill: #000600 } 
		.s1 { fill: #f22259 } 
		.s2 { fill: #cc366f } 
		.s3 { fill: #ffc627 } 
		.s4 { fill: #ff9a15 } 
		.s5 { fill: #2ebfff } 
		.s6 { fill: #25a4f2 } 
	</style>
	<g id="Layer 1">
		<g id="&lt;Group&gt;">
			<g id="&lt;Group&gt;">
				<g id="&lt;Group&gt;">
					<g id="&lt;Group&gt;">
						<g id="&lt;Group&gt;">
						</g>
						<g id="&lt;Group&gt;">
						</g>
						<g id="&lt;Group&gt;">
						</g>
						<g id="&lt;Group&gt;">
						</g>
						<g id="&lt;Group&gt;">
						</g>
						<g id="&lt;Group&gt;">
						</g>
						<g id="&lt;Group&gt;">
						</g>
						<g id="&lt;Group&gt;">
						</g>
						<g id="&lt;Group&gt;">
						</g>
						<g id="&lt;Group&gt;">
						</g>
						<g id="&lt;Group&gt;">
						</g>
						<g id="&lt;Group&gt;">
						</g>
						<g id="&lt;Group&gt;">
						</g>
						<g id="&lt;Group&gt;">
						</g>
						<g id="&lt;Group&gt;">
						</g>
						<g id="&lt;Group&gt;">
						</g>
						<g id="&lt;Group&gt;">
						</g>
						<g id="&lt;Group&gt;">
						</g>
						<g id="&lt;Group&gt;">
						</g>
						<g id="&lt;Group&gt;">
						</g>
						<g id="&lt;Group&gt;">
						</g>
						<g id="&lt;Group&gt;">
						</g>
						<g id="&lt;Group&gt;">
						</g>
						<g id="&lt;Group&gt;">
						</g>
						<g id="&lt;Group&gt;">
						</g>
						<g id="&lt;Group&gt;">
						</g>
						<g id="&lt;Group&gt;">
						</g>
						<g id="&lt;Group&gt;">
						</g>
						<g id="&lt;Group&gt;">
						</g>
						<g id="&lt;Group&gt;">
						</g>
						<g id="&lt;Group&gt;">
						</g>
						<g id="&lt;Group&gt;">
						</g>
						<g id="&lt;Group&gt;">
						</g>
						<g id="&lt;Group&gt;">
						</g>
						<g id="&lt;Group&gt;">
						</g>
						<g id="&lt;Group&gt;">
						</g>
						<g id="&lt;Group&gt;">
						</g>
						<g id="&lt;Group&gt;">
						</g>
						<g id="&lt;Group&gt;">
						</g>
						<g id="&lt;Group&gt;">
						</g>
						<g id="&lt;Group&gt;">
						</g>
						<g id="&lt;Group&gt;">
						</g>
						<g id="&lt;Group&gt;">
						</g>
						<g id="&lt;Group&gt;">
						</g>
						<g id="&lt;Group&gt;">
						</g>
						<g id="&lt;Group&gt;">
						</g>
						<g id="&lt;Group&gt;">
						</g>
						<g id="&lt;Group&gt;">
						</g>
						<g id="&lt;Group&gt;">
						</g>
						<g id="&lt;Group&gt;">
						</g>
						<g id="&lt;Group&gt;">
						</g>
						<g id="&lt;Group&gt;">
						</g>
						<g id="&lt;Group&gt;">
						</g>
						<g id="&lt;Group&gt;">
						</g>
						<g id="&lt;Group&gt;">
						</g>
						<g id="&lt;Group&gt;">
						</g>
						<g id="&lt;Group&gt;">
						</g>
						<g id="&lt;Group&gt;">
						</g>
						<g id="&lt;Group&gt;">
						</g>
						<g id="&lt;Group&gt;">
						</g>
					</g>
					<g id="&lt;Group&gt;" style="opacity: .43;mix-blend-mode: multiply">
						<g id="&lt;Group&gt;">
							<g id="&lt;Group&gt;">
							</g>
							<g id="&lt;Group&gt;">
							</g>
							<g id="&lt;Group&gt;">
							</g>
							<g id="&lt;Group&gt;">
							</g>
							<g id="&lt;Group&gt;">
							</g>
							<g id="&lt;Group&gt;">
							</g>
							<g id="&lt;Group&gt;">
							</g>
							<g id="&lt;Group&gt;">
							</g>
							<g id="&lt;Group&gt;">
							</g>
							<g id="&lt;Group&gt;">
							</g>
							<g id="&lt;Group&gt;">
							</g>
							<g id="&lt;Group&gt;">
							</g>
							<g id="&lt;Group&gt;">
							</g>
							<g id="&lt;Group&gt;">
							</g>
						</g>
					</g>
				</g>
				<g id="&lt;Group&gt;">
					<g id="&lt;Group&gt;">
						<g id="&lt;Group&gt;">
							<path id="&lt;Path&gt;" class="s0" d="m610.75 141v13.03h-13.03v-13.03z"/>
						</g>
						<g id="&lt;Group&gt;">
							<path id="&lt;Path&gt;" class="s0" d="m610.75 101.93v13.02h-13.03v-13.02z"/>
						</g>
						<g id="&lt;Group&gt;">
							<path id="&lt;Path&gt;" class="s0" d="m597.72 127.98v13.02h-13.02v-13.02z"/>
						</g>
						<g id="&lt;Group&gt;">
							<path id="&lt;Path&gt;" class="s0" d="m597.72 114.95v13.03h-13.02v-13.03z"/>
						</g>
						<g id="&lt;Group&gt;">
							<path id="&lt;Path&gt;" class="s1" d="m610.75 114.95v13.03h-13.03v-13.03z"/>
						</g>
						<g id="&lt;Group&gt;">
							<path id="&lt;Path&gt;" class="s1" d="m623.77 114.95v13.03h-13.02v-13.03z"/>
						</g>
						<g id="&lt;Group&gt;">
							<path id="&lt;Path&gt;" class="s1" d="m636.8 114.95v13.03h-13.03v-13.03z"/>
						</g>
						<g id="&lt;Group&gt;">
							<path id="&lt;Path&gt;" class="s1" d="m649.82 114.95v13.03h-13.02v-13.03z"/>
						</g>
						<g id="&lt;Group&gt;">
							<path id="&lt;Path&gt;" class="s1" d="m662.84 114.95v13.03h-13.02v-13.03z"/>
						</g>
						<g id="&lt;Group&gt;">
							<path id="&lt;Path&gt;" class="s1" d="m675.87 114.95v13.03h-13.03v-13.03z"/>
						</g>
						<g id="&lt;Group&gt;">
							<path id="&lt;Path&gt;" class="s1" d="m688.89 114.95v13.03h-13.02v-13.03z"/>
						</g>
						<g id="&lt;Group&gt;">
							<path id="&lt;Path&gt;" class="s1" d="m701.92 114.95v13.03h-13.03v-13.03z"/>
						</g>
						<g id="&lt;Group&gt;">
							<path id="&lt;Path&gt;" class="s1" d="m623.77 101.93v13.02h-13.02v-13.02z"/>
						</g>
						<g id="&lt;Group&gt;">
							<path id="&lt;Path&gt;" class="s1" d="m636.8 101.93v13.02h-13.03v-13.02z"/>
						</g>
						<g id="&lt;Group&gt;">
							<path id="&lt;Path&gt;" class="s1" d="m649.82 101.93v13.02h-13.02v-13.02z"/>
						</g>
						<g id="&lt;Group&gt;">
							<path id="&lt;Path&gt;" class="s1" d="m636.8 88.91v13.02h-13.03v-13.02z"/>
						</g>
						<g id="&lt;Group&gt;">
							<path id="&lt;Path&gt;" class="s1" d="m649.82 101.93h-13.02v-13.02h13.02z"/>
						</g>
						<g id="&lt;Group&gt;">
							<path id="&lt;Path&gt;" class="s1" d="m649.82 75.88v13.03h-13.02v-13.03z"/>
						</g>
						<g id="&lt;Group&gt;">
							<path id="&lt;Path&gt;" class="s1" d="m662.84 114.95h-13.02v-13.02h13.02z"/>
						</g>
						<g id="&lt;Group&gt;">
							<path id="&lt;Path&gt;" class="s1" d="m675.87 114.95h-13.03v-13.02h13.03z"/>
						</g>
						<g id="&lt;Group&gt;">
							<path id="&lt;Path&gt;" class="s1" d="m688.89 101.93v13.02h-13.02v-13.02z"/>
						</g>
						<g id="&lt;Group&gt;">
							<path id="&lt;Path&gt;" class="s1" d="m701.92 101.93v13.02h-13.03v-13.02z"/>
						</g>
						<g id="&lt;Group&gt;">
							<path id="&lt;Path&gt;" class="s1" d="m610.75 127.98v13.02h-13.03v-13.02z"/>
						</g>
						<g id="&lt;Group&gt;">
							<path id="&lt;Path&gt;" class="s1" d="m623.77 127.98v13.02h-13.02v-13.02z"/>
						</g>
						<g id="&lt;Group&gt;">
							<path id="&lt;Path&gt;" class="s1" d="m636.8 127.98v13.02h-13.03v-13.02z"/>
						</g>
						<g id="&lt;Group&gt;">
							<path id="&lt;Path&gt;" class="s1" d="m649.82 141h-13.02v-13.02h13.02z"/>
						</g>
						<g id="&lt;Group&gt;">
							<path id="&lt;Path&gt;" class="s1" d="m662.84 141h-13.02v-13.02h13.02z"/>
						</g>
						<g id="&lt;Group&gt;">
							<path id="&lt;Path&gt;" class="s1" d="m675.87 127.98v13.02h-13.03v-13.02z"/>
						</g>
						<g id="&lt;Group&gt;">
							<path id="&lt;Path&gt;" class="s1" d="m688.89 127.98v13.02h-13.02v-13.02z"/>
						</g>
						<g id="&lt;Group&gt;">
							<path id="&lt;Path&gt;" class="s1" d="m701.92 127.98v13.02h-13.03v-13.02z"/>
						</g>
						<g id="&lt;Group&gt;">
							<path id="&lt;Path&gt;" class="s1" d="m623.77 154.03h-13.02v-13.03h13.02z"/>
						</g>
						<g id="&lt;Group&gt;">
							<path id="&lt;Path&gt;" class="s1" d="m636.8 141v13.03h-13.03v-13.03z"/>
						</g>
						<g id="&lt;Group&gt;">
							<path id="&lt;Path&gt;" class="s1" d="m649.82 141v13.03h-13.02v-13.03z"/>
						</g>
						<g id="&lt;Group&gt;">
							<path id="&lt;Path&gt;" class="s1" d="m636.8 154.03v13.02h-13.03v-13.02z"/>
						</g>
						<g id="&lt;Group&gt;">
							<path id="&lt;Path&gt;" class="s1" d="m649.82 154.03v13.02h-13.02v-13.02z"/>
						</g>
						<g id="&lt;Group&gt;">
							<path id="&lt;Path&gt;" class="s1" d="m649.82 180.08h-13.02v-13.03h13.02z"/>
						</g>
						<g id="&lt;Group&gt;">
							<path id="&lt;Path&gt;" class="s1" d="m662.84 154.03h-13.02v-13.03h13.02z"/>
						</g>
						<g id="&lt;Group&gt;">
							<path id="&lt;Path&gt;" class="s1" d="m675.87 154.03h-13.03v-13.03h13.03z"/>
						</g>
						<g id="&lt;Group&gt;">
							<path id="&lt;Path&gt;" class="s1" d="m688.89 141v13.03h-13.02v-13.03z"/>
						</g>
						<g id="&lt;Group&gt;">
							<path id="&lt;Path&gt;" class="s1" d="m701.92 141v13.03h-13.03v-13.03z"/>
						</g>
						<g id="&lt;Group&gt;">
							<path id="&lt;Path&gt;" class="s0" d="m623.77 167.05h-13.02v-13.02h13.02z"/>
						</g>
						<g id="&lt;Group&gt;">
							<path id="&lt;Path&gt;" class="s0" d="m623.77 88.91v13.02h-13.02v-13.02z"/>
						</g>
						<g id="&lt;Group&gt;">
							<path id="&lt;Path&gt;" class="s0" d="m636.8 180.08h-13.03v-13.03h13.03z"/>
						</g>
						<g id="&lt;Group&gt;">
							<path id="&lt;Path&gt;" class="s0" d="m636.8 88.91h-13.03v-13.03h13.03z"/>
						</g>
						<g id="&lt;Group&gt;">
							<path id="&lt;Path&gt;" class="s0" d="m649.82 193.1h-13.02v-13.02h13.02z"/>
						</g>
						<g id="&lt;Group&gt;">
							<path id="&lt;Path&gt;" class="s0" d="m649.82 75.88h-13.02v-13.02h13.02z"/>
						</g>
						<g id="&lt;Group&gt;">
							<path id="&lt;Path&gt;" class="s0" d="m662.84 180.08h-13.02v-13.03h13.02z"/>
						</g>
						<g id="&lt;Group&gt;">
							<path id="&lt;Path&gt;" class="s0" d="m662.84 75.88v13.03h-13.02v-13.03z"/>
						</g>
						<g id="&lt;Group&gt;">
							<path id="&lt;Path&gt;" class="s1" d="m662.84 167.05h-13.02v-13.02h13.02z"/>
						</g>
						<g id="&lt;Group&gt;">
							<path id="&lt;Path&gt;" class="s0" d="m675.87 154.03v13.02h-13.03v-13.02z"/>
						</g>
						<g id="&lt;Group&gt;">
							<path id="&lt;Path&gt;" class="s0" d="m688.89 154.03v13.02h-13.02v-13.02z"/>
						</g>
						<g id="&lt;Group&gt;">
							<path id="&lt;Path&gt;" class="s0" d="m701.92 154.03v13.02h-13.03v-13.02z"/>
						</g>
						<g id="&lt;Group&gt;">
							<path id="&lt;Path&gt;" class="s0" d="m714.94 141v13.03h-13.02v-13.03z"/>
						</g>
						<g id="&lt;Group&gt;">
							<path id="&lt;Path&gt;" class="s0" d="m714.94 127.98v13.02h-13.02v-13.02z"/>
						</g>
						<g id="&lt;Group&gt;">
							<path id="&lt;Path&gt;" class="s0" d="m714.94 114.95v13.03h-13.02v-13.03z"/>
						</g>
						<g id="&lt;Group&gt;">
							<path id="&lt;Path&gt;" class="s0" d="m714.94 101.93v13.02h-13.02v-13.02z"/>
						</g>
						<g id="&lt;Group&gt;">
							<path id="&lt;Path&gt;" class="s0" d="m675.87 101.93h-13.03v-13.02h13.03z"/>
						</g>
						<g id="&lt;Group&gt;">
							<path id="&lt;Path&gt;" class="s1" d="m662.84 101.93h-13.02v-13.02h13.02z"/>
						</g>
						<g id="&lt;Group&gt;">
							<path id="&lt;Path&gt;" class="s0" d="m688.89 88.91v13.02h-13.02v-13.02z"/>
						</g>
						<g id="&lt;Group&gt;">
							<path id="&lt;Path&gt;" class="s0" d="m701.92 88.91v13.02h-13.03v-13.02z"/>
						</g>
					</g>
					<g id="&lt;Group&gt;" style="opacity: .46;mix-blend-mode: multiply">
						<g id="&lt;Group&gt;">
							<g id="&lt;Group&gt;">
								<path id="&lt;Path&gt;" class="s2" d="m701.92 114.95v13.03h-13.03v-13.03z"/>
							</g>
							<g id="&lt;Group&gt;">
								<path id="&lt;Path&gt;" class="s2" d="m701.92 101.93v13.02h-13.03v-13.02z"/>
							</g>
							<g id="&lt;Group&gt;">
								<path id="&lt;Path&gt;" class="s2" d="m610.75 127.98v13.02h-13.03v-13.02z"/>
							</g>
							<g id="&lt;Group&gt;">
								<path id="&lt;Path&gt;" class="s2" d="m688.89 127.98v13.02h-13.02v-13.02z"/>
							</g>
							<g id="&lt;Group&gt;">
								<path id="&lt;Path&gt;" class="s2" d="m701.92 127.98v13.02h-13.03v-13.02z"/>
							</g>
							<g id="&lt;Group&gt;">
								<path id="&lt;Path&gt;" class="s2" d="m623.77 154.03h-13.02v-13.03h13.02z"/>
							</g>
							<g id="&lt;Group&gt;">
								<path id="&lt;Path&gt;" class="s2" d="m636.8 154.03v13.02h-13.03v-13.02z"/>
							</g>
							<g id="&lt;Group&gt;">
								<path id="&lt;Path&gt;" class="s2" d="m649.82 154.03v13.02h-13.02v-13.02z"/>
							</g>
							<g id="&lt;Group&gt;">
								<path id="&lt;Path&gt;" class="s2" d="m649.82 180.08h-13.02v-13.03h13.02z"/>
							</g>
							<g id="&lt;Group&gt;">
								<path id="&lt;Path&gt;" class="s2" d="m662.84 154.03h-13.02v-13.03h13.02z"/>
							</g>
							<g id="&lt;Group&gt;">
								<path id="&lt;Path&gt;" class="s2" d="m675.87 154.03h-13.03v-13.03h13.03z"/>
							</g>
							<g id="&lt;Group&gt;">
								<path id="&lt;Path&gt;" class="s2" d="m688.89 141v13.03h-13.02v-13.03z"/>
							</g>
							<g id="&lt;Group&gt;">
								<path id="&lt;Path&gt;" class="s2" d="m701.92 141v13.03h-13.03v-13.03z"/>
							</g>
							<g id="&lt;Group&gt;">
								<path id="&lt;Path&gt;" class="s2" d="m662.84 167.05h-13.02v-13.02h13.02z"/>
							</g>
						</g>
					</g>
				</g>
				<g id="&lt;Group&gt;">
					<g id="&lt;Group&gt;">
						<g id="&lt;Group&gt;">
							<path id="&lt;Path&gt;" class="s0" d="m824.69 261v13.03h-13.02v-13.03z"/>
						</g>
						<g id="&lt;Group&gt;">
							<path id="&lt;Path&gt;" class="s0" d="m824.69 221.93v13.02h-13.02v-13.02z"/>
						</g>
						<g id="&lt;Group&gt;">
							<path id="&lt;Path&gt;" class="s0" d="m824.69 261h13.03v-13.02h-13.03z"/>
						</g>
						<g id="&lt;Group&gt;">
							<path id="&lt;Path&gt;" class="s0" d="m837.72 234.95v13.03h-13.03v-13.03z"/>
						</g>
						<g id="&lt;Group&gt;">
							<path id="&lt;Path&gt;" class="s3" d="m824.69 234.95v13.03h-13.02v-13.03z"/>
						</g>
						<g id="&lt;Group&gt;">
							<path id="&lt;Path&gt;" class="s3" d="m811.67 234.95v13.03h-13.02v-13.03z"/>
						</g>
						<g id="&lt;Group&gt;">
							<path id="&lt;Path&gt;" class="s3" d="m798.65 234.95v13.03h-13.03v-13.03z"/>
						</g>
						<g id="&lt;Group&gt;">
							<path id="&lt;Path&gt;" class="s3" d="m785.62 234.95v13.03h-13.02v-13.03z"/>
						</g>
						<g id="&lt;Group&gt;">
							<path id="&lt;Path&gt;" class="s3" d="m772.6 234.95v13.03h-13.03v-13.03z"/>
						</g>
						<g id="&lt;Group&gt;">
							<path id="&lt;Path&gt;" class="s3" d="m759.57 234.95v13.03h-13.02v-13.03z"/>
						</g>
						<g id="&lt;Group&gt;">
							<path id="&lt;Path&gt;" class="s3" d="m746.55 234.95v13.03h-13.02v-13.03z"/>
						</g>
						<g id="&lt;Group&gt;">
							<path id="&lt;Path&gt;" class="s3" d="m733.53 234.95v13.03h-13.03v-13.03z"/>
						</g>
						<g id="&lt;Group&gt;">
							<path id="&lt;Path&gt;" class="s3" d="m811.67 221.93v13.02h-13.02v-13.02z"/>
						</g>
						<g id="&lt;Group&gt;">
							<path id="&lt;Path&gt;" class="s3" d="m798.65 221.93v13.02h-13.03v-13.02z"/>
						</g>
						<g id="&lt;Group&gt;">
							<path id="&lt;Path&gt;" class="s3" d="m785.62 221.93v13.02h-13.02v-13.02z"/>
						</g>
						<g id="&lt;Group&gt;">
							<path id="&lt;Path&gt;" class="s3" d="m785.62 221.93h13.03v-13.02h-13.03z"/>
						</g>
						<g id="&lt;Group&gt;">
							<path id="&lt;Path&gt;" class="s3" d="m772.6 221.93h13.02v-13.02h-13.02z"/>
						</g>
						<g id="&lt;Group&gt;">
							<path id="&lt;Path&gt;" class="s3" d="m785.62 195.88v13.03h-13.02v-13.03z"/>
						</g>
						<g id="&lt;Group&gt;">
							<path id="&lt;Path&gt;" class="s3" d="m772.6 221.93v13.02h-13.03v-13.02z"/>
						</g>
						<g id="&lt;Group&gt;">
							<path id="&lt;Path&gt;" class="s3" d="m759.57 221.93v13.02h-13.02v-13.02z"/>
						</g>
						<g id="&lt;Group&gt;">
							<path id="&lt;Path&gt;" class="s3" d="m746.55 221.93v13.02h-13.02v-13.02z"/>
						</g>
						<g id="&lt;Group&gt;">
							<path id="&lt;Path&gt;" class="s3" d="m733.53 221.93v13.02h-13.03v-13.02z"/>
						</g>
						<g id="&lt;Group&gt;">
							<path id="&lt;Path&gt;" class="s3" d="m811.67 261h13.02v-13.02h-13.02z"/>
						</g>
						<g id="&lt;Group&gt;">
							<path id="&lt;Path&gt;" class="s3" d="m798.65 261h13.02v-13.02h-13.02z"/>
						</g>
						<g id="&lt;Group&gt;">
							<path id="&lt;Path&gt;" class="s3" d="m785.62 261h13.03v-13.02h-13.03z"/>
						</g>
						<g id="&lt;Group&gt;">
							<path id="&lt;Path&gt;" class="s3" d="m772.6 261h13.02v-13.02h-13.02z"/>
						</g>
						<g id="&lt;Group&gt;">
							<path id="&lt;Path&gt;" class="s3" d="m759.57 261h13.03v-13.02h-13.03z"/>
						</g>
						<g id="&lt;Group&gt;">
							<path id="&lt;Path&gt;" class="s3" d="m746.55 261h13.02v-13.02h-13.02z"/>
						</g>
						<g id="&lt;Group&gt;">
							<path id="&lt;Path&gt;" class="s3" d="m733.53 261h13.02v-13.02h-13.02z"/>
						</g>
						<g id="&lt;Group&gt;">
							<path id="&lt;Path&gt;" class="s3" d="m720.5 261h13.03v-13.02h-13.03z"/>
						</g>
						<g id="&lt;Group&gt;">
							<path id="&lt;Path&gt;" class="s3" d="m811.67 261v13.03h-13.02v-13.03z"/>
						</g>
						<g id="&lt;Group&gt;">
							<path id="&lt;Path&gt;" class="s3" d="m798.65 261v13.03h-13.03v-13.03z"/>
						</g>
						<g id="&lt;Group&gt;">
							<path id="&lt;Path&gt;" class="s3" d="m785.62 261v13.03h-13.02v-13.03z"/>
						</g>
						<g id="&lt;Group&gt;">
							<path id="&lt;Path&gt;" class="s3" d="m798.65 274.03v13.02h-13.03v-13.02z"/>
						</g>
						<g id="&lt;Group&gt;">
							<path id="&lt;Path&gt;" class="s3" d="m785.62 274.03v13.02h-13.02v-13.02z"/>
						</g>
						<g id="&lt;Group&gt;">
							<path id="&lt;Path&gt;" class="s3" d="m785.62 287.05v13.03h-13.02v-13.03z"/>
						</g>
						<g id="&lt;Group&gt;">
							<path id="&lt;Path&gt;" class="s3" d="m772.6 261v13.03h-13.03v-13.03z"/>
						</g>
						<g id="&lt;Group&gt;">
							<path id="&lt;Path&gt;" class="s3" d="m759.57 261v13.03h-13.02v-13.03z"/>
						</g>
						<g id="&lt;Group&gt;">
							<path id="&lt;Path&gt;" class="s3" d="m746.55 261v13.03h-13.02v-13.03z"/>
						</g>
						<g id="&lt;Group&gt;">
							<path id="&lt;Path&gt;" class="s3" d="m733.53 261v13.03h-13.03v-13.03z"/>
						</g>
						<g id="&lt;Group&gt;">
							<path id="&lt;Path&gt;" class="s0" d="m811.67 274.03v13.02h-13.02v-13.02z"/>
						</g>
						<g id="&lt;Group&gt;">
							<path id="&lt;Path&gt;" class="s0" d="m798.65 221.93h13.02v-13.02h-13.02z"/>
						</g>
						<g id="&lt;Group&gt;">
							<path id="&lt;Path&gt;" class="s0" d="m798.65 287.05v13.03h-13.03v-13.03z"/>
						</g>
						<g id="&lt;Group&gt;">
							<path id="&lt;Path&gt;" class="s0" d="m798.65 195.88v13.03h-13.03v-13.03z"/>
						</g>
						<g id="&lt;Group&gt;">
							<path id="&lt;Path&gt;" class="s0" d="m772.6 313.1h13.02v-13.02h-13.02z"/>
						</g>
						<g id="&lt;Group&gt;">
							<path id="&lt;Path&gt;" class="s0" d="m785.62 182.86v13.02h-13.02v-13.02z"/>
						</g>
						<g id="&lt;Group&gt;">
							<path id="&lt;Path&gt;" class="s0" d="m772.6 287.05v13.03h-13.03v-13.03z"/>
						</g>
						<g id="&lt;Group&gt;">
							<path id="&lt;Path&gt;" class="s0" d="m772.6 195.88v13.03h-13.03v-13.03z"/>
						</g>
						<g id="&lt;Group&gt;">
							<path id="&lt;Path&gt;" class="s3" d="m772.6 274.03v13.02h-13.03v-13.02z"/>
						</g>
						<g id="&lt;Group&gt;">
							<path id="&lt;Path&gt;" class="s0" d="m759.57 274.03v13.02h-13.02v-13.02z"/>
						</g>
						<g id="&lt;Group&gt;">
							<path id="&lt;Path&gt;" class="s0" d="m746.55 274.03v13.02h-13.02v-13.02z"/>
						</g>
						<g id="&lt;Group&gt;">
							<path id="&lt;Path&gt;" class="s0" d="m733.53 274.03v13.02h-13.03v-13.02z"/>
						</g>
						<g id="&lt;Group&gt;">
							<path id="&lt;Path&gt;" class="s0" d="m707.48 274.03h13.02v-13.03h-13.02z"/>
						</g>
						<g id="&lt;Group&gt;">
							<path id="&lt;Path&gt;" class="s0" d="m707.48 261h13.02v-13.02h-13.02z"/>
						</g>
						<g id="&lt;Group&gt;">
							<path id="&lt;Path&gt;" class="s0" d="m707.48 247.98h13.02v-13.03h-13.02z"/>
						</g>
						<g id="&lt;Group&gt;">
							<path id="&lt;Path&gt;" class="s0" d="m707.48 234.95h13.02v-13.02h-13.02z"/>
						</g>
						<g id="&lt;Group&gt;">
							<path id="&lt;Path&gt;" class="s0" d="m746.55 221.93h13.02v-13.02h-13.02z"/>
						</g>
						<g id="&lt;Group&gt;">
							<path id="&lt;Path&gt;" class="s3" d="m759.57 221.93h13.03v-13.02h-13.03z"/>
						</g>
						<g id="&lt;Group&gt;">
							<path id="&lt;Path&gt;" class="s0" d="m733.53 221.93h13.02v-13.02h-13.02z"/>
						</g>
						<g id="&lt;Group&gt;">
							<path id="&lt;Path&gt;" class="s0" d="m720.5 221.93h13.03v-13.02h-13.03z"/>
						</g>
					</g>
					<g id="&lt;Group&gt;" style="opacity: .45;mix-blend-mode: multiply">
						<g id="&lt;Group&gt;">
							<g id="&lt;Group&gt;">
								<path id="&lt;Path&gt;" class="s4" d="m733.53 234.95v13.03h-13.03v-13.03z"/>
							</g>
							<g id="&lt;Group&gt;">
								<path id="&lt;Path&gt;" class="s4" d="m733.53 221.93v13.02h-13.03v-13.02z"/>
							</g>
							<g id="&lt;Group&gt;">
								<path id="&lt;Path&gt;" class="s4" d="m811.67 261h13.02v-13.02h-13.02z"/>
							</g>
							<g id="&lt;Group&gt;">
								<path id="&lt;Path&gt;" class="s4" d="m733.53 261h13.02v-13.02h-13.02z"/>
							</g>
							<g id="&lt;Group&gt;">
								<path id="&lt;Path&gt;" class="s4" d="m720.5 261h13.03v-13.02h-13.03z"/>
							</g>
							<g id="&lt;Group&gt;">
								<path id="&lt;Path&gt;" class="s4" d="m811.67 261v13.03h-13.02v-13.03z"/>
							</g>
							<g id="&lt;Group&gt;">
								<path id="&lt;Path&gt;" class="s4" d="m798.65 274.03v13.02h-13.03v-13.02z"/>
							</g>
							<g id="&lt;Group&gt;">
								<path id="&lt;Path&gt;" class="s4" d="m785.62 274.03v13.02h-13.02v-13.02z"/>
							</g>
							<g id="&lt;Group&gt;">
								<path id="&lt;Path&gt;" class="s4" d="m785.62 287.05v13.03h-13.02v-13.03z"/>
							</g>
							<g id="&lt;Group&gt;">
								<path id="&lt;Path&gt;" class="s4" d="m772.6 261v13.03h-13.03v-13.03z"/>
							</g>
							<g id="&lt;Group&gt;">
								<path id="&lt;Path&gt;" class="s4" d="m759.57 261v13.03h-13.02v-13.03z"/>
							</g>
							<g id="&lt;Group&gt;">
								<path id="&lt;Path&gt;" class="s4" d="m746.55 261v13.03h-13.02v-13.03z"/>
							</g>
							<g id="&lt;Group&gt;">
								<path id="&lt;Path&gt;" class="s4" d="m733.53 261v13.03h-13.03v-13.03z"/>
							</g>
							<g id="&lt;Group&gt;">
								<path id="&lt;Path&gt;" class="s4" d="m772.6 274.03v13.02h-13.03v-13.02z"/>
							</g>
						</g>
					</g>
				</g>
				<g id="&lt;Group&gt;">
					<g id="&lt;Group&gt;">
						<g id="&lt;Group&gt;">
							<path id="&lt;Path&gt;" class="s0" d="m675.76 409.94v13.02h-13.03v-13.02z"/>
						</g>
						<g id="&lt;Group&gt;">
							<path id="&lt;Path&gt;" class="s0" d="m636.68 409.94v13.02h-13.02v-13.02z"/>
						</g>
						<g id="&lt;Group&gt;">
							<path id="&lt;Path&gt;" class="s0" d="m662.73 422.96v13.03h-13.02v-13.03z"/>
						</g>
						<g id="&lt;Group&gt;">
							<path id="&lt;Path&gt;" class="s0" d="m649.71 422.96v13.03h-13.03v-13.03z"/>
						</g>
						<g id="&lt;Group&gt;">
							<path id="&lt;Path&gt;" class="s5" d="m649.71 409.94v13.02h-13.03v-13.02z"/>
						</g>
						<g id="&lt;Group&gt;">
							<path id="&lt;Path&gt;" class="s5" d="m649.71 396.92v13.02h-13.03v-13.02z"/>
						</g>
						<g id="&lt;Group&gt;">
							<path id="&lt;Path&gt;" class="s5" d="m649.71 383.89v13.03h-13.03v-13.03z"/>
						</g>
						<g id="&lt;Group&gt;">
							<path id="&lt;Path&gt;" class="s5" d="m649.71 370.87v13.02h-13.03v-13.02z"/>
						</g>
						<g id="&lt;Group&gt;">
							<path id="&lt;Path&gt;" class="s5" d="m649.71 357.84v13.03h-13.03v-13.03z"/>
						</g>
						<g id="&lt;Group&gt;">
							<path id="&lt;Path&gt;" class="s5" d="m649.71 344.82v13.02h-13.03v-13.02z"/>
						</g>
						<g id="&lt;Group&gt;">
							<path id="&lt;Path&gt;" class="s5" d="m649.71 331.8v13.02h-13.03v-13.02z"/>
						</g>
						<g id="&lt;Group&gt;">
							<path id="&lt;Path&gt;" class="s5" d="m649.71 318.77v13.03h-13.03v-13.03z"/>
						</g>
						<g id="&lt;Group&gt;">
							<path id="&lt;Path&gt;" class="s5" d="m636.68 396.92v13.02h-13.02v-13.02z"/>
						</g>
						<g id="&lt;Group&gt;">
							<path id="&lt;Path&gt;" class="s5" d="m636.68 383.89v13.03h-13.02v-13.03z"/>
						</g>
						<g id="&lt;Group&gt;">
							<path id="&lt;Path&gt;" class="s5" d="m636.68 370.87v13.02h-13.02v-13.02z"/>
						</g>
						<g id="&lt;Group&gt;">
							<path id="&lt;Path&gt;" class="s5" d="m623.66 383.89v13.03h-13.02v-13.03z"/>
						</g>
						<g id="&lt;Group&gt;">
							<path id="&lt;Path&gt;" class="s5" d="m623.66 370.87v13.02h-13.02v-13.02z"/>
						</g>
						<g id="&lt;Group&gt;">
							<path id="&lt;Path&gt;" class="s5" d="m610.64 370.87v13.02h-13.03v-13.02z"/>
						</g>
						<g id="&lt;Group&gt;">
							<path id="&lt;Path&gt;" class="s5" d="m636.68 357.84v13.03h-13.02v-13.03z"/>
						</g>
						<g id="&lt;Group&gt;">
							<path id="&lt;Path&gt;" class="s5" d="m636.68 344.82v13.02h-13.02v-13.02z"/>
						</g>
						<g id="&lt;Group&gt;">
							<path id="&lt;Path&gt;" class="s5" d="m636.68 331.8v13.02h-13.02v-13.02z"/>
						</g>
						<g id="&lt;Group&gt;">
							<path id="&lt;Path&gt;" class="s5" d="m636.68 318.77v13.03h-13.02v-13.03z"/>
						</g>
						<g id="&lt;Group&gt;">
							<path id="&lt;Path&gt;" class="s5" d="m662.73 409.94v13.02h-13.02v-13.02z"/>
						</g>
						<g id="&lt;Group&gt;">
							<path id="&lt;Path&gt;" class="s5" d="m662.73 396.92v13.02h-13.02v-13.02z"/>
						</g>
						<g id="&lt;Group&gt;">
							<path id="&lt;Path&gt;" class="s5" d="m662.73 383.89v13.03h-13.02v-13.03z"/>
						</g>
						<g id="&lt;Group&gt;">
							<path id="&lt;Path&gt;" class="s5" d="m662.73 370.87v13.02h-13.02v-13.02z"/>
						</g>
						<g id="&lt;Group&gt;">
							<path id="&lt;Path&gt;" class="s5" d="m662.73 357.84v13.03h-13.02v-13.03z"/>
						</g>
						<g id="&lt;Group&gt;">
							<path id="&lt;Path&gt;" class="s5" d="m662.73 344.82v13.02h-13.02v-13.02z"/>
						</g>
						<g id="&lt;Group&gt;">
							<path id="&lt;Path&gt;" class="s5" d="m662.73 331.8v13.02h-13.02v-13.02z"/>
						</g>
						<g id="&lt;Group&gt;">
							<path id="&lt;Path&gt;" class="s5" d="m662.73 318.77v13.03h-13.02v-13.03z"/>
						</g>
						<g id="&lt;Group&gt;">
							<path id="&lt;Path&gt;" class="s5" d="m675.76 396.92v13.02h-13.03v-13.02z"/>
						</g>
						<g id="&lt;Group&gt;">
							<path id="&lt;Path&gt;" class="s5" d="m675.76 383.89v13.03h-13.03v-13.03z"/>
						</g>
						<g id="&lt;Group&gt;">
							<path id="&lt;Path&gt;" class="s5" d="m675.76 370.87v13.02h-13.03v-13.02z"/>
						</g>
						<g id="&lt;Group&gt;">
							<path id="&lt;Path&gt;" class="s5" d="m688.78 383.89v13.03h-13.02v-13.03z"/>
						</g>
						<g id="&lt;Group&gt;">
							<path id="&lt;Path&gt;" class="s5" d="m688.78 370.87v13.02h-13.02v-13.02z"/>
						</g>
						<g id="&lt;Group&gt;">
							<path id="&lt;Path&gt;" class="s5" d="m701.81 370.87v13.02h-13.03v-13.02z"/>
						</g>
						<g id="&lt;Group&gt;">
							<path id="&lt;Path&gt;" class="s5" d="m675.76 357.84v13.03h-13.03v-13.03z"/>
						</g>
						<g id="&lt;Group&gt;">
							<path id="&lt;Path&gt;" class="s5" d="m675.76 344.82v13.02h-13.03v-13.02z"/>
						</g>
						<g id="&lt;Group&gt;">
							<path id="&lt;Path&gt;" class="s5" d="m675.76 331.8v13.02h-13.03v-13.02z"/>
						</g>
						<g id="&lt;Group&gt;">
							<path id="&lt;Path&gt;" class="s5" d="m675.76 318.77v13.03h-13.03v-13.03z"/>
						</g>
						<g id="&lt;Group&gt;">
							<path id="&lt;Path&gt;" class="s0" d="m688.78 396.92v13.02h-13.02v-13.02z"/>
						</g>
						<g id="&lt;Group&gt;">
							<path id="&lt;Path&gt;" class="s0" d="m623.66 396.92v13.02h-13.02v-13.02z"/>
						</g>
						<g id="&lt;Group&gt;">
							<path id="&lt;Path&gt;" class="s0" d="m701.81 383.89v13.03h-13.03v-13.03z"/>
						</g>
						<g id="&lt;Group&gt;">
							<path id="&lt;Path&gt;" class="s0" d="m610.64 383.89v13.03h-13.03v-13.03z"/>
						</g>
						<g id="&lt;Group&gt;">
							<path id="&lt;Path&gt;" class="s0" d="m714.83 370.87v13.02h-13.02v-13.02z"/>
						</g>
						<g id="&lt;Group&gt;">
							<path id="&lt;Path&gt;" class="s0" d="m597.61 370.87v13.02h-13.02v-13.02z"/>
						</g>
						<g id="&lt;Group&gt;">
							<path id="&lt;Path&gt;" class="s0" d="m701.81 357.84v13.03h-13.03v-13.03z"/>
						</g>
						<g id="&lt;Group&gt;">
							<path id="&lt;Path&gt;" class="s0" d="m610.64 357.84v13.03h-13.03v-13.03z"/>
						</g>
						<g id="&lt;Group&gt;">
							<path id="&lt;Path&gt;" class="s5" d="m688.78 357.84v13.03h-13.02v-13.03z"/>
						</g>
						<g id="&lt;Group&gt;">
							<path id="&lt;Path&gt;" class="s0" d="m688.78 344.82v13.02h-13.02v-13.02z"/>
						</g>
						<g id="&lt;Group&gt;">
							<path id="&lt;Path&gt;" class="s0" d="m688.78 331.8v13.02h-13.02v-13.02z"/>
						</g>
						<g id="&lt;Group&gt;">
							<path id="&lt;Path&gt;" class="s0" d="m688.78 318.77v13.03h-13.02v-13.03z"/>
						</g>
						<g id="&lt;Group&gt;">
							<path id="&lt;Path&gt;" class="s0" d="m675.76 305.75v13.02h-13.03v-13.02z"/>
						</g>
						<g id="&lt;Group&gt;">
							<path id="&lt;Path&gt;" class="s0" d="m662.73 305.75v13.02h-13.02v-13.02z"/>
						</g>
						<g id="&lt;Group&gt;">
							<path id="&lt;Path&gt;" class="s0" d="m649.71 305.75v13.02h-13.03v-13.02z"/>
						</g>
						<g id="&lt;Group&gt;">
							<path id="&lt;Path&gt;" class="s0" d="m636.68 305.75v13.02h-13.02v-13.02z"/>
						</g>
						<g id="&lt;Group&gt;">
							<path id="&lt;Path&gt;" class="s0" d="m623.66 344.82v13.02h-13.02v-13.02z"/>
						</g>
						<g id="&lt;Group&gt;">
							<path id="&lt;Path&gt;" class="s5" d="m623.66 357.84v13.03h-13.02v-13.03z"/>
						</g>
						<g id="&lt;Group&gt;">
							<path id="&lt;Path&gt;" class="s0" d="m623.66 331.8v13.02h-13.02v-13.02z"/>
						</g>
						<g id="&lt;Group&gt;">
							<path id="&lt;Path&gt;" class="s0" d="m623.66 318.77v13.03h-13.02v-13.03z"/>
						</g>
					</g>
					<g id="&lt;Group&gt;" style="opacity: .39;mix-blend-mode: multiply">
						<g id="&lt;Group&gt;">
							<path id="&lt;Path&gt;" class="s6" d="m649.71 318.77v13.03h-13.03v-13.03z"/>
						</g>
						<g id="&lt;Group&gt;">
							<path id="&lt;Path&gt;" class="s6" d="m636.68 318.77v13.03h-13.02v-13.03z"/>
						</g>
						<g id="&lt;Group&gt;">
							<path id="&lt;Path&gt;" class="s6" d="m662.73 409.94v13.02h-13.02v-13.02z"/>
						</g>
						<g id="&lt;Group&gt;">
							<path id="&lt;Path&gt;" class="s6" d="m662.73 331.8v13.02h-13.02v-13.02z"/>
						</g>
						<g id="&lt;Group&gt;">
							<path id="&lt;Path&gt;" class="s6" d="m662.73 318.77v13.03h-13.02v-13.03z"/>
						</g>
						<g id="&lt;Group&gt;">
							<path id="&lt;Path&gt;" class="s6" d="m675.76 396.92v13.02h-13.03v-13.02z"/>
						</g>
						<g id="&lt;Group&gt;">
							<path id="&lt;Path&gt;" class="s6" d="m688.78 383.89v13.03h-13.02v-13.03z"/>
						</g>
						<g id="&lt;Group&gt;">
							<path id="&lt;Path&gt;" class="s6" d="m688.78 370.87v13.02h-13.02v-13.02z"/>
						</g>
						<g id="&lt;Group&gt;">
							<path id="&lt;Path&gt;" class="s6" d="m701.81 370.87v13.02h-13.03v-13.02z"/>
						</g>
						<g id="&lt;Group&gt;">
							<path id="&lt;Path&gt;" class="s6" d="m675.76 357.84v13.03h-13.03v-13.03z"/>
						</g>
						<g id="&lt;Group&gt;">
							<path id="&lt;Path&gt;" class="s6" d="m675.76 344.82v13.02h-13.03v-13.02z"/>
						</g>
						<g id="&lt;Group&gt;">
							<path id="&lt;Path&gt;" class="s6" d="m675.76 331.8v13.02h-13.03v-13.02z"/>
						</g>
						<g id="&lt;Group&gt;">
							<path id="&lt;Path&gt;" class="s6" d="m675.76 318.77v13.03h-13.03v-13.03z"/>
						</g>
						<g id="&lt;Group&gt;">
							<path id="&lt;Path&gt;" class="s6" d="m688.78 357.84v13.03h-13.02v-13.03z"/>
						</g>
					</g>
				</g>
			</g>
		</g>
	</g>
</svg>