<svg version="1.2" xmlns="http://www.w3.org/2000/svg" viewBox="1015 45 222.00000000000023 98" width="223" height="98">
	<style>
		.s0 { fill: #2ebfff } 
		.s1 { fill: #ffffff } 
		.s2 { fill: #25a4f2 } 
		.s3 { fill: #000600 } 
	</style>
	<g id="Layer 1">
		<g id="&lt;Group&gt;">
			<g id="&lt;Group&gt;">
				<g id="&lt;Group&gt;">
					<g id="&lt;Group&gt;">
						<path id="&lt;Path&gt;" class="s0" d="m1046.06 50.63h160.63l12.33 6.16 6.16 6.16 6.16 12.33v36.97l-6.16 12.33-6.16 6.16-12.33 6.16h-160.63l-12.32-6.16-6.17-6.16-6.16-12.33v-36.97l6.16-12.33 6.17-6.16z"/>
					</g>
					<g id="&lt;Group&gt;">
						<g id="&lt;Group&gt;">
							<path id="&lt;Path&gt;" class="s1" d="m1219.02 118.42h-6.16v-6.17h6.16z"/>
						</g>
						<g id="&lt;Group&gt;">
							<path id="&lt;Path&gt;" class="s1" d="m1219.02 112.25h-6.16v-6.16h6.16z"/>
						</g>
						<g id="&lt;Group&gt;">
							<path id="&lt;Path&gt;" class="s1" d="m1212.86 118.42h-6.17v-6.17h6.17z"/>
						</g>
						<g id="&lt;Group&gt;">
							<path id="&lt;Path&gt;" class="s1" d="m1206.69 124.58h-6.16v-6.16h6.16z"/>
						</g>
						<g id="&lt;Group&gt;">
							<path id="&lt;Path&gt;" class="s1" d="m1200.53 124.58h-6.16v-6.16h6.16z"/>
						</g>
					</g>
					<g id="&lt;Group&gt;" style="opacity: .31;mix-blend-mode: screen">
						<g id="&lt;Group&gt;">
							<g id="&lt;Group&gt;">
								<g id="&lt;Group&gt;">
									<g id="&lt;Group&gt;">
										<path id="&lt;Path&gt;" class="s1" d="m1033.74 56.79h6.16v6.16h-6.16z"/>
									</g>
									<g id="&lt;Group&gt;">
										<path id="&lt;Path&gt;" class="s1" d="m1027.57 62.95h6.17v6.17h-6.17z"/>
									</g>
									<g id="&lt;Group&gt;">
										<path id="&lt;Path&gt;" class="s1" d="m1039.9 56.79h6.16v6.16h-6.16z"/>
									</g>
									<g id="&lt;Group&gt;">
										<path id="&lt;Path&gt;" class="s1" d="m1046.06 50.63h6.17v6.16h-6.17z"/>
									</g>
									<g id="&lt;Group&gt;">
										<path id="&lt;Path&gt;" class="s1" d="m1225.18 69.12h-6.16v-6.17h6.16z"/>
									</g>
									<g id="&lt;Group&gt;">
										<path id="&lt;Path&gt;" class="s1" d="m1219.02 62.95h-6.16v-6.16h6.16z"/>
									</g>
									<g id="&lt;Group&gt;">
										<path id="&lt;Path&gt;" class="s1" d="m1212.86 62.95h-6.17v-6.16h6.17z"/>
									</g>
									<g id="&lt;Group&gt;">
										<path id="&lt;Path&gt;" class="s1" d="m1206.69 56.79h-6.16v-6.16h6.16z"/>
									</g>
									<path id="&lt;Path&gt;" class="s1" d="m1200.53 56.79h-148.3v-6.16h148.3z"/>
								</g>
							</g>
							<g id="&lt;Group&gt;">
								<g id="&lt;Group&gt;">
									<path id="&lt;Path&gt;" class="s1" d="m1219.02 124.58h-6.16v-6.16h6.16z"/>
								</g>
								<g id="&lt;Group&gt;">
									<path id="&lt;Path&gt;" class="s1" d="m1212.86 124.58h-6.17v-6.16h6.17z"/>
								</g>
								<g id="&lt;Group&gt;">
									<path id="&lt;Path&gt;" class="s1" d="m1206.69 130.74h-6.16v-6.16h6.16z"/>
								</g>
								<g id="&lt;Group&gt;">
									<path id="&lt;Path&gt;" class="s1" d="m1033.74 118.42h6.16v6.16h-6.16z"/>
								</g>
								<g id="&lt;Group&gt;">
									<path id="&lt;Path&gt;" class="s1" d="m1039.9 118.42h6.16v6.16h-6.16z"/>
								</g>
								<g id="&lt;Group&gt;">
									<path id="&lt;Path&gt;" class="s1" d="m1046.06 124.58h6.17v6.16h-6.17z"/>
								</g>
								<path id="&lt;Path&gt;" class="s1" d="m1052.23 124.58h148.3v6.16h-148.3z"/>
							</g>
						</g>
					</g>
					<g id="&lt;Group&gt;" style="opacity: .39;mix-blend-mode: multiply">
						<g id="&lt;Group&gt;">
							<g id="&lt;Group&gt;">
								<g id="&lt;Group&gt;">
									<g id="&lt;Group&gt;">
										<path id="&lt;Path&gt;" class="s2" d="m1033.74 63.03h6.16v6.16h-6.16z"/>
									</g>
									<g id="&lt;Group&gt;">
										<path id="&lt;Path&gt;" class="s2" d="m1027.57 69.19h6.17v6.16h-6.17z"/>
									</g>
									<g id="&lt;Group&gt;">
										<path id="&lt;Path&gt;" class="s2" d="m1027.57 75.35h6.17v6.16h-6.17z"/>
									</g>
									<g id="&lt;Group&gt;">
										<path id="&lt;Path&gt;" class="s2" d="m1021.41 75.35h6.16v6.16h-6.16z"/>
									</g>
									<g id="&lt;Group&gt;">
										<path id="&lt;Path&gt;" class="s2" d="m1021.41 81.51h6.16v6.17h-6.16z"/>
									</g>
									<g id="&lt;Group&gt;">
										<path id="&lt;Path&gt;" class="s2" d="m1039.9 63.03h6.16v6.16h-6.16z"/>
									</g>
									<g id="&lt;Group&gt;">
										<path id="&lt;Path&gt;" class="s2" d="m1046.06 56.86h6.17v6.17h-6.17z"/>
									</g>
									<g id="&lt;Group&gt;">
										<path id="&lt;Path&gt;" class="s2" d="m1225.18 75.35h-6.16v-6.16h6.16z"/>
									</g>
									<g id="&lt;Group&gt;">
										<path id="&lt;Path&gt;" class="s2" d="m1231.34 87.68h-6.16v-6.17h6.16z"/>
									</g>
									<g id="&lt;Group&gt;">
										<path id="&lt;Path&gt;" class="s2" d="m1231.34 81.51h-6.16v-6.16h6.16z"/>
									</g>
									<g id="&lt;Group&gt;">
										<path id="&lt;Path&gt;" class="s2" d="m1219.02 69.19h-6.16v-6.16h6.16z"/>
									</g>
									<g id="&lt;Group&gt;">
										<path id="&lt;Path&gt;" class="s2" d="m1212.86 69.19h-6.17v-6.16h6.17z"/>
									</g>
									<g id="&lt;Group&gt;">
										<path id="&lt;Path&gt;" class="s2" d="m1206.69 63.03h-6.16v-6.17h6.16z"/>
									</g>
									<path id="&lt;Path&gt;" class="s2" d="m1200.53 63.03h-148.3v-6.17h148.3z"/>
								</g>
							</g>
							<g id="&lt;Group&gt;">
								<g id="&lt;Group&gt;">
									<g id="&lt;Group&gt;">
										<path id="&lt;Path&gt;" class="s2" d="m1219.02 130.74h-6.16v-6.16h6.16z"/>
									</g>
									<g id="&lt;Group&gt;">
										<path id="&lt;Path&gt;" class="s2" d="m1225.18 124.58h-6.16v-6.16h6.16z"/>
									</g>
									<g id="&lt;Group&gt;">
										<path id="&lt;Path&gt;" class="s2" d="m1231.34 118.42h-6.16v-6.17h6.16z"/>
									</g>
									<g id="&lt;Group&gt;">
										<path id="&lt;Path&gt;" class="s2" d="m1231.34 112.25h-6.16v-6.16h6.16z"/>
									</g>
									<g id="&lt;Group&gt;">
										<path id="&lt;Path&gt;" class="s2" d="m1212.86 130.74h-6.17v-6.16h6.17z"/>
									</g>
									<g id="&lt;Group&gt;">
										<path id="&lt;Path&gt;" class="s2" d="m1206.69 136.9h-6.16v-6.16h6.16z"/>
									</g>
									<g id="&lt;Group&gt;">
										<path id="&lt;Path&gt;" class="s2" d="m1027.57 118.42h6.17v6.16h-6.17z"/>
									</g>
									<g id="&lt;Group&gt;">
										<path id="&lt;Path&gt;" class="s2" d="m1225.18 118.42h-6.16v-6.17h6.16z"/>
									</g>
									<g id="&lt;Group&gt;">
										<path id="&lt;Path&gt;" class="s2" d="m1027.57 112.25h6.17v6.17h-6.17z"/>
									</g>
									<g id="&lt;Group&gt;">
										<path id="&lt;Path&gt;" class="s2" d="m1027.57 106.09h6.17v6.16h-6.17z"/>
									</g>
									<g id="&lt;Group&gt;">
										<path id="&lt;Path&gt;" class="s2" d="m1219.02 75.35h6.16v6.16h-6.16z"/>
									</g>
									<g id="&lt;Group&gt;">
										<path id="&lt;Path&gt;" class="s2" d="m1219.02 106.09h6.16v6.16h-6.16z"/>
									</g>
									<g id="&lt;Group&gt;">
										<path id="&lt;Path&gt;" class="s2" d="m1021.41 106.09h6.16v6.16h-6.16z"/>
									</g>
									<g id="&lt;Group&gt;">
										<path id="&lt;Path&gt;" class="s2" d="m1231.34 106.09h-6.16v-6.16h6.16z"/>
									</g>
									<g id="&lt;Group&gt;">
										<path id="&lt;Path&gt;" class="s2" d="m1021.41 99.93h6.16v6.16h-6.16z"/>
									</g>
									<g id="&lt;Group&gt;">
										<path id="&lt;Path&gt;" class="s2" d="m1231.34 99.93h-6.16v-6.16h6.16z"/>
									</g>
									<g id="&lt;Group&gt;">
										<path id="&lt;Path&gt;" class="s2" d="m1021.41 93.77h6.16v6.16h-6.16z"/>
									</g>
									<g id="&lt;Group&gt;">
										<path id="&lt;Path&gt;" class="s2" d="m1231.34 93.77h-6.16v-6.17h6.16z"/>
									</g>
									<g id="&lt;Group&gt;">
										<path id="&lt;Path&gt;" class="s2" d="m1021.41 87.6h6.16v6.17h-6.16z"/>
									</g>
									<g id="&lt;Group&gt;">
										<path id="&lt;Path&gt;" class="s2" d="m1021.41 112.25h6.16v6.17h-6.16z"/>
									</g>
									<g id="&lt;Group&gt;">
										<path id="&lt;Path&gt;" class="s2" d="m1033.74 124.58h6.16v6.16h-6.16z"/>
									</g>
									<g id="&lt;Group&gt;">
										<path id="&lt;Path&gt;" class="s2" d="m1039.9 124.58h6.16v6.16h-6.16z"/>
									</g>
									<g id="&lt;Group&gt;">
										<path id="&lt;Path&gt;" class="s2" d="m1046.06 130.74h6.17v6.16h-6.17z"/>
									</g>
									<path id="&lt;Path&gt;" class="s2" d="m1052.23 130.74h148.3v6.16h-148.3z"/>
								</g>
							</g>
						</g>
					</g>
					<g id="&lt;Group&gt;">
						<path id="&lt;Path&gt;" class="s3" d="m1033.74 50.63h6.16v6.16h-6.16z"/>
					</g>
					<g id="&lt;Group&gt;">
						<path id="&lt;Path&gt;" class="s3" d="m1027.57 56.79h6.17v6.16h-6.17z"/>
					</g>
					<g id="&lt;Group&gt;">
						<path id="&lt;Path&gt;" class="s3" d="m1027.57 124.58h6.17v6.16h-6.17z"/>
					</g>
					<g id="&lt;Group&gt;">
						<path id="&lt;Path&gt;" class="s3" d="m1021.41 62.95h6.16v6.17h-6.16z"/>
					</g>
					<g id="&lt;Group&gt;">
						<path id="&lt;Path&gt;" class="s3" d="m1021.41 69.12h6.16v6.16h-6.16z"/>
					</g>
					<g id="&lt;Group&gt;">
						<path id="&lt;Path&gt;" class="s3" d="m1021.41 112.25h6.16v6.17h-6.16z"/>
					</g>
					<g id="&lt;Group&gt;">
						<path id="&lt;Path&gt;" class="s3" d="m1021.41 118.42h6.16v6.16h-6.16z"/>
					</g>
					<g id="&lt;Group&gt;">
						<path id="&lt;Path&gt;" class="s3" d="m1015.25 75.28h6.16v6.16h-6.16z"/>
					</g>
					<g id="&lt;Group&gt;">
						<path id="&lt;Path&gt;" class="s3" d="m1015.25 81.44h6.16v6.16h-6.16z"/>
					</g>
					<g id="&lt;Group&gt;">
						<path id="&lt;Path&gt;" class="s3" d="m1015.25 87.6h6.16v6.17h-6.16z"/>
					</g>
					<g id="&lt;Group&gt;">
						<path id="&lt;Path&gt;" class="s3" d="m1015.25 93.77h6.16v6.16h-6.16z"/>
					</g>
					<g id="&lt;Group&gt;">
						<path id="&lt;Path&gt;" class="s3" d="m1015.25 99.93h6.16v6.16h-6.16z"/>
					</g>
					<g id="&lt;Group&gt;">
						<path id="&lt;Path&gt;" class="s3" d="m1015.25 106.09h6.16v6.16h-6.16z"/>
					</g>
					<g id="&lt;Group&gt;">
						<path id="&lt;Path&gt;" class="s3" d="m1039.9 50.63h6.16v6.16h-6.16z"/>
					</g>
					<g id="&lt;Group&gt;">
						<path id="&lt;Path&gt;" class="s3" d="m1033.74 130.74h6.16v6.16h-6.16z"/>
					</g>
					<g id="&lt;Group&gt;">
						<path id="&lt;Path&gt;" class="s3" d="m1039.9 130.74h6.16v6.16h-6.16z"/>
					</g>
					<g id="&lt;Group&gt;">
						<path id="&lt;Path&gt;" class="s3" d="m1046.06 44.47h6.17v6.16h-6.17z"/>
					</g>
					<g id="&lt;Group&gt;">
						<path id="&lt;Path&gt;" class="s3" d="m1046.06 136.9h6.17v6.17h-6.17z"/>
					</g>
					<g id="&lt;Group&gt;">
						<path id="&lt;Path&gt;" class="s3" d="m1219.02 136.9h-6.16v-6.16h6.16z"/>
					</g>
					<g id="&lt;Group&gt;">
						<path id="&lt;Path&gt;" class="s3" d="m1225.18 130.74h-6.16v-6.16h6.16z"/>
					</g>
					<g id="&lt;Group&gt;">
						<path id="&lt;Path&gt;" class="s3" d="m1225.18 62.95h-6.16v-6.16h6.16z"/>
					</g>
					<g id="&lt;Group&gt;">
						<path id="&lt;Path&gt;" class="s3" d="m1231.34 124.58h-6.16v-6.16h6.16z"/>
					</g>
					<g id="&lt;Group&gt;">
						<path id="&lt;Path&gt;" class="s3" d="m1231.34 118.42h-6.16v-6.17h6.16z"/>
					</g>
					<g id="&lt;Group&gt;">
						<path id="&lt;Path&gt;" class="s3" d="m1231.34 75.28h-6.16v-6.16h6.16z"/>
					</g>
					<g id="&lt;Group&gt;">
						<path id="&lt;Path&gt;" class="s3" d="m1231.34 69.12h-6.16v-6.17h6.16z"/>
					</g>
					<g id="&lt;Group&gt;">
						<path id="&lt;Path&gt;" class="s3" d="m1237.51 112.25h-6.17v-6.16h6.17z"/>
					</g>
					<g id="&lt;Group&gt;">
						<path id="&lt;Path&gt;" class="s3" d="m1237.51 106.09h-6.17v-6.16h6.17z"/>
					</g>
					<g id="&lt;Group&gt;">
						<path id="&lt;Path&gt;" class="s3" d="m1237.51 99.93h-6.17v-6.16h6.17z"/>
					</g>
					<g id="&lt;Group&gt;">
						<path id="&lt;Path&gt;" class="s3" d="m1237.51 93.77h-6.17v-6.17h6.17z"/>
					</g>
					<g id="&lt;Group&gt;">
						<path id="&lt;Path&gt;" class="s3" d="m1237.51 87.6h-6.17v-6.16h6.17z"/>
					</g>
					<g id="&lt;Group&gt;">
						<path id="&lt;Path&gt;" class="s3" d="m1237.51 81.44h-6.17v-6.16h6.17z"/>
					</g>
					<g id="&lt;Group&gt;">
						<path id="&lt;Path&gt;" class="s3" d="m1212.86 136.9h-6.17v-6.16h6.17z"/>
					</g>
					<g id="&lt;Group&gt;">
						<path id="&lt;Path&gt;" class="s3" d="m1219.02 56.79h-6.16v-6.16h6.16z"/>
					</g>
					<g id="&lt;Group&gt;">
						<path id="&lt;Path&gt;" class="s3" d="m1212.86 56.79h-6.17v-6.16h6.17z"/>
					</g>
					<g id="&lt;Group&gt;">
						<path id="&lt;Path&gt;" class="s3" d="m1206.69 143.07h-6.16v-6.17h6.16z"/>
					</g>
					<g id="&lt;Group&gt;">
						<path id="&lt;Path&gt;" class="s3" d="m1206.69 50.63h-6.16v-6.16h6.16z"/>
					</g>
					<path id="&lt;Path&gt;" class="s3" d="m1200.53 50.63h-148.3v-6.16h148.3z"/>
					<path id="&lt;Path&gt;" class="s3" d="m1200.53 143.07h-148.3v-6.17h148.3z"/>
				</g>
			</g>
		</g>
	</g>
</svg>